# Blender 4.2.3 LTS
# www.blender.org
mtllib SM_Card.mtl
o SM_Card
v -0.104248 -0.040190 0.103798
v 0.105588 -0.040190 0.103798
v -0.104248 -0.040190 -0.106039
v 0.105588 -0.040190 -0.106039
v 0.105589 0.039439 0.103798
v -0.104248 0.039439 0.103798
v 0.105589 0.039439 -0.106039
v -0.104248 0.039439 -0.106039
v -0.120834 0.055665 -0.122625
v 0.122175 0.055665 -0.122625
v -0.120834 0.055665 0.120384
v 0.122175 0.055665 0.120384
v 0.122175 -0.056415 -0.122625
v -0.120834 -0.056415 -0.122625
v 0.122175 -0.056415 0.120384
v -0.120834 -0.056415 0.120384
v -0.120834 -0.056415 -0.118575
v -0.120834 -0.056415 0.116334
v 0.122175 -0.056415 -0.118575
v 0.122175 -0.056415 0.116334
v 0.122175 0.055665 -0.118575
v 0.122175 0.055665 0.116334
v -0.120834 0.055665 -0.118575
v -0.120834 0.055665 0.116334
v -0.116784 0.055665 -0.122625
v 0.118125 0.055665 -0.122625
v -0.116784 0.055665 0.120384
v 0.118125 0.055665 0.120384
v 0.118125 -0.056415 -0.122625
v -0.116784 -0.056415 -0.122625
v 0.118125 -0.056415 0.120384
v -0.116784 -0.056415 0.120384
v -0.116784 0.055665 -0.118575
v 0.118125 0.055665 -0.118575
v -0.116784 0.055665 0.116334
v 0.118125 0.055665 0.116334
v 0.118125 -0.056415 -0.118575
v -0.116784 -0.056415 -0.118575
v 0.118125 -0.056415 0.116334
v -0.116784 -0.056415 0.116334
v -0.116784 0.039439 0.116334
v 0.118125 0.039439 0.116334
v -0.116784 -0.040190 -0.118575
v -0.116784 -0.040190 0.116334
v 0.118125 -0.040190 0.116334
v 0.118125 0.039439 -0.118575
v -0.116784 0.039439 -0.118575
v 0.118125 -0.040190 -0.118575
v -0.087466 0.075931 0.087016
v 0.088807 0.075931 0.087016
v -0.087466 -0.076681 -0.089257
v -0.087466 -0.076681 0.087016
v 0.088806 -0.076681 0.087016
v 0.088807 0.075931 -0.089257
v -0.087466 0.075931 -0.089257
v 0.088806 -0.076681 -0.089257
v -0.087466 0.068018 0.087016
v 0.088807 0.068018 0.087016
v -0.087466 -0.068769 -0.089257
v -0.087466 -0.068769 0.087016
v 0.088806 -0.068769 0.087016
v 0.088807 0.068018 -0.089257
v -0.087466 0.068018 -0.089257
v 0.088806 -0.068769 -0.089257
v -0.174387 -0.038971 -0.059473
v -0.160519 -0.056399 -0.075827
v -0.160519 -0.056399 0.073586
v -0.174387 -0.038971 0.057232
v -0.174387 0.038221 0.057232
v -0.160519 0.055649 0.073586
v -0.160519 0.055649 -0.075827
v -0.174387 0.038221 -0.059473
v 0.175728 -0.038971 0.057232
v 0.161859 -0.056399 0.073586
v 0.161859 -0.056399 -0.075827
v 0.175728 -0.038971 -0.059473
v 0.175728 0.038221 -0.059473
v 0.161859 0.055649 -0.075827
v 0.161859 0.055649 0.073586
v 0.175728 0.038221 0.057232
v 0.059023 -0.038971 -0.176178
v 0.075511 -0.056399 -0.162196
v -0.074171 -0.056399 -0.162196
v -0.057682 -0.038971 -0.176178
v -0.057682 0.038221 -0.176178
v -0.074171 0.055649 -0.162196
v 0.075511 0.055649 -0.162196
v 0.059023 0.038221 -0.176178
v -0.057682 -0.038971 0.173937
v -0.074171 -0.056399 0.159955
v 0.075511 -0.056399 0.159955
v 0.059023 -0.038971 0.173937
v 0.059023 0.038221 0.173937
v 0.075511 0.055649 0.159955
v -0.057682 0.038221 0.173937
v -0.140805 -0.056399 -0.057399
v -0.148128 -0.038971 -0.034965
v -0.148128 -0.038971 0.032724
v -0.140805 -0.056399 0.055158
v -0.140805 0.055649 0.055158
v -0.148128 0.038221 0.032724
v -0.148128 0.038221 -0.034965
v -0.140805 0.055649 -0.057399
v 0.142146 -0.056399 0.055158
v 0.149469 -0.038971 0.032724
v 0.149469 -0.038971 -0.034965
v 0.142146 -0.056399 -0.057399
v 0.142146 0.055649 -0.057399
v 0.149469 0.038221 -0.034965
v 0.149469 0.038221 0.032724
v 0.142146 0.055649 0.055158
v 0.052939 -0.056399 -0.142560
v 0.028874 -0.038971 -0.149919
v -0.027533 -0.038971 -0.149919
v -0.051598 -0.056399 -0.142560
v -0.051598 0.055649 -0.142560
v -0.027533 0.038221 -0.149919
v 0.028874 0.038221 -0.149919
v 0.052939 0.055649 -0.142560
v -0.051598 -0.056399 0.140319
v -0.027533 -0.038971 0.147678
v 0.028874 -0.038971 0.147678
v 0.052939 -0.056399 0.140319
v 0.052939 0.055649 0.140319
v 0.028874 0.038221 0.147678
v -0.027533 0.038221 0.147678
v -0.051598 0.055649 0.140319
v -0.127145 -0.056393 0.159822
v -0.137670 -0.038971 0.173937
v -0.160382 -0.056393 0.126586
v -0.174387 -0.038971 0.137220
v -0.160382 0.055643 0.126586
v -0.174387 0.038221 0.137220
v -0.137670 0.038221 0.173937
v -0.160382 -0.056393 -0.128827
v -0.174387 -0.038971 -0.139461
v -0.127145 -0.056393 -0.162063
v -0.137670 -0.038971 -0.176178
v -0.127145 0.055643 -0.162063
v -0.137670 0.038221 -0.176178
v -0.160382 0.055643 -0.128827
v -0.174387 0.038221 -0.139461
v 0.161723 -0.056393 0.126586
v 0.175728 -0.038971 0.137220
v 0.128486 -0.056393 0.159822
v 0.139011 -0.038971 0.173937
v 0.128486 0.055643 0.159822
v 0.139011 0.038221 0.173937
v 0.161723 0.055643 0.126586
v 0.175728 0.038221 0.137220
v 0.128486 -0.056393 -0.162063
v 0.139011 -0.038971 -0.176178
v 0.161723 -0.056393 -0.128827
v 0.175728 -0.038971 -0.139461
v 0.161723 0.055643 -0.128827
v 0.175728 0.038221 -0.139461
v 0.128486 0.055643 -0.162063
v 0.139011 0.038221 -0.176178
v -0.098465 0.075931 0.098015
v -0.104248 0.070148 0.103798
v 0.105589 0.070148 0.103798
v 0.099805 0.075931 0.098015
v -0.104248 -0.070898 -0.106039
v -0.098465 -0.076681 -0.100255
v -0.098465 -0.076681 0.098015
v -0.104248 -0.070898 0.103798
v 0.099805 -0.076681 0.098015
v 0.105588 -0.070898 0.103798
v 0.105589 0.070148 -0.106039
v 0.099805 0.075931 -0.100255
v -0.098465 0.075931 -0.100255
v -0.104248 0.070148 -0.106039
v 0.105588 -0.070898 -0.106039
v 0.099805 -0.076681 -0.100255
v -0.081011 0.055651 0.154154
v -0.069898 0.051133 0.163578
v -0.069807 0.055649 0.156159
v -0.129858 0.051153 0.163460
v -0.132943 0.055643 0.154025
vn 0.6823 -0.0000 -0.7311
vn 0.0002 1.0000 -0.0002
vn -0.0002 -1.0000 -0.0002
vn -0.0002 1.0000 0.0002
vn 0.0002 -1.0000 -0.0002
vn -0.0002 -1.0000 0.0002
vn 0.0002 1.0000 0.0002
vn -0.6568 -0.0000 -0.7541
vn 0.0002 -1.0000 0.0002
vn 1.0000 -0.0000 -0.0000
vn 0.0004 -1.0000 0.0004
vn 0.6568 -0.0000 0.7541
vn -0.0004 -1.0000 -0.0004
vn -0.0004 -1.0000 0.0004
vn -0.0000 -1.0000 -0.0000
vn -0.6823 -0.0000 0.7311
vn -0.0000 -0.0000 -1.0000
vn 0.0004 1.0000 0.0004
vn -0.0000 1.0000 -0.0000
vn 0.4151 0.7748 0.4768
vn -0.0002 1.0000 -0.0002
vn -1.0000 -0.0000 -0.0000
vn -0.6568 -0.0000 0.7541
vn -0.6823 -0.0000 -0.7311
vn 0.0004 1.0000 -0.0004
vn -0.0000 -1.0000 -0.0008
vn -0.0008 1.0000 -0.0000
vn -0.0008 -1.0000 -0.0000
vn 0.0004 -1.0000 -0.0004
vn 0.0008 1.0000 -0.0000
vn 0.6823 -0.0000 0.7311
vn -0.0004 1.0000 -0.0004
vn 0.0008 -1.0000 -0.0000
vn -0.0000 1.0000 -0.0008
vn -0.0000 -0.0000 1.0000
vn -0.0000 1.0000 0.0008
vn -0.5000 0.7071 0.5000
vn -0.7071 -0.0000 0.7071
vn -0.0000 -1.0000 0.0008
vn 0.6568 -0.0000 -0.7541
vn -0.7071 -0.0000 -0.7071
vn 0.7071 -0.0000 0.7071
vn 0.7071 -0.0000 -0.7071
vn -0.4310 -0.7755 -0.4614
vn -0.4310 0.7755 0.4614
vn 0.4310 -0.7755 0.4614
vn 0.4310 0.7755 -0.4614
vn 0.4151 -0.7748 -0.4768
vn -0.4151 0.7748 -0.4768
vn -0.4151 -0.7748 0.4768
vn -0.0006 0.6276 0.7786
vn -0.4310 -0.7755 0.4614
vn -0.9219 -0.3874 -0.0000
vn -0.4310 0.7755 -0.4614
vn -0.9219 0.3874 -0.0000
vn 0.4310 -0.7755 -0.4614
vn 0.9219 -0.3874 -0.0000
vn 0.4310 0.7755 0.4614
vn 0.9219 0.3874 -0.0000
vn -0.4151 -0.7748 -0.4768
vn -0.0000 -0.3890 -0.9212
vn 0.4151 0.7748 -0.4768
vn -0.0000 0.3890 -0.9212
vn 0.4151 -0.7748 0.4768
vn -0.0000 -0.3890 0.9212
vn -0.4151 0.7748 0.4768
vn -0.0000 0.3890 0.9212
vn -0.5000 -0.7071 0.5000
vn -0.5000 0.7071 -0.5000
vn -0.5000 -0.7071 -0.5000
vn 0.5000 0.7071 -0.5000
vn 0.5000 -0.7071 -0.5000
vn 0.5000 0.7071 0.5000
vn 0.5000 -0.7071 0.5000
vn -0.7810 -0.6245 0.0008
vn -0.0008 -0.6276 0.7786
vn -0.7810 0.6245 0.0008
vn -0.0004 1.0000 0.0004
vn -0.0008 -0.6276 -0.7786
vn -0.0008 0.6276 -0.7786
vn -0.7810 -0.6245 -0.0008
vn -0.7810 0.6245 -0.0008
vn 0.0008 -0.6276 0.7786
vn 0.0008 0.6276 0.7786
vn 0.7810 -0.6245 0.0008
vn 0.7810 0.6245 0.0008
vn 0.7810 -0.6245 -0.0008
vn 0.7810 0.6245 -0.0008
vn 0.0008 -0.6276 -0.7786
vn 0.0008 0.6276 -0.7786
vn -0.0923 0.8510 0.5169
vn -0.0000 0.7071 0.7071
vn -0.7071 -0.7071 -0.0000
vn -0.0000 -0.7071 0.7071
vn 0.7071 0.7071 -0.0000
vn -0.7071 0.7071 -0.0000
vn -0.0000 0.7071 -0.7071
vn -0.0000 -0.7071 -0.7071
vn 0.7071 -0.7071 -0.0000
vn -0.0009 0.9021 0.4316
vt 0.413877 0.638889
vt 0.586123 0.638889
vt 0.586123 0.666667
vt 0.413877 0.666667
vt 0.647360 0.638889
vt 0.708333 0.638889
vt 0.708333 0.666667
vt 0.646580 0.666667
vt 0.263889 0.522469
vt 0.291667 0.521758
vt 0.291667 0.583333
vt 0.263889 0.583333
vt 0.791667 0.583333
vt 0.853420 0.583333
vt 0.852640 0.611111
vt 0.791667 0.611111
vt 0.291667 0.638889
vt 0.352640 0.638889
vt 0.353420 0.666667
vt 0.291667 0.666667
vt 0.763889 0.522469
vt 0.791667 0.521758
vt 0.763889 0.583333
vt 0.263889 0.666667
vt 0.291667 0.728242
vt 0.263889 0.727531
vt 0.763889 0.666667
vt 0.791667 0.666667
vt 0.791667 0.719216
vt 0.786297 0.728105
vt 0.763889 0.727531
vt 0.413877 0.388889
vt 0.586123 0.388889
vt 0.586123 0.416667
vt 0.413877 0.416667
vt 0.353420 0.583333
vt 0.352640 0.611111
vt 0.291667 0.611111
vt 0.413877 0.526218
vt 0.586123 0.526218
vt 0.586123 0.583333
vt 0.413877 0.583333
vt 0.353420 0.666667
vt 0.358576 0.709765
vt 0.334808 0.733462
vt 0.413877 0.888889
vt 0.586123 0.888889
vt 0.586123 0.916667
vt 0.413877 0.916667
vt 0.141424 0.540235
vt 0.165192 0.516538
vt 0.208333 0.521758
vt 0.208333 0.583333
vt 0.146580 0.583333
vt 0.146580 0.666667
vt 0.208333 0.666667
vt 0.208333 0.728242
vt 0.165192 0.733462
vt 0.141424 0.709765
vt 0.263889 0.638889
vt 0.413877 0.138889
vt 0.586123 0.138889
vt 0.586123 0.166667
vt 0.413877 0.166667
vt 0.586123 0.416667
vt 0.586123 0.473782
vt 0.413877 0.473782
vt 0.708333 0.728242
vt 0.665192 0.733462
vt 0.641424 0.709765
vt 0.763889 0.638889
vt 0.791667 0.638889
vt 0.625000 0.898139
vt 0.625000 0.913085
vt 0.614927 0.916667
vt 0.708333 0.521758
vt 0.736111 0.522469
vt 0.736111 0.583333
vt 0.708333 0.583333
vt 0.646580 0.583333
vt 0.708333 0.611111
vt 0.647360 0.611111
vt 0.413877 0.111111
vt 0.586123 0.111111
vt 0.147360 0.638889
vt 0.208333 0.638889
vt 0.736111 0.666667
vt 0.736111 0.727531
vt 0.708333 0.728242
vt 0.586123 0.666667
vt 0.586123 0.723782
vt 0.413877 0.723782
vt 0.413877 0.833333
vt 0.586123 0.833333
vt 0.586123 0.861111
vt 0.413877 0.861111
vt 0.413877 0.083333
vt 0.586123 0.083333
vt 0.586123 0.111111
vt 0.208333 0.521758
vt 0.236111 0.522469
vt 0.236111 0.583333
vt 0.763889 0.611111
vt 0.641424 0.540235
vt 0.665192 0.516538
vt 0.708333 0.521758
vt 0.263889 0.611111
vt 0.586123 0.166667
vt 0.586123 0.223782
vt 0.413877 0.223782
vt 0.852640 0.638889
vt 0.413877 0.026218
vt 0.586123 0.026218
vt 0.413877 0.083333
vt 0.147360 0.611111
vt 0.208333 0.611111
vt 0.334808 0.516538
vt 0.358576 0.540235
vt 0.353420 0.583333
vt 0.413877 0.583333
vt 0.586123 0.611111
vt 0.413877 0.611111
vt 0.834808 0.516538
vt 0.858576 0.540235
vt 0.853420 0.583333
vt 0.236111 0.611111
vt 0.236111 0.638889
vt 0.736111 0.638889
vt 0.736111 0.611111
vt 0.413877 0.276218
vt 0.586123 0.276218
vt 0.586123 0.333333
vt 0.413877 0.333333
vt 0.413877 0.776218
vt 0.586123 0.776218
vt 0.413877 0.833333
vt 0.586123 0.973782
vt 0.413877 0.973782
vt 0.586123 0.861111
vt 0.614980 0.000951
vt 0.625000 0.005422
vt 0.625000 0.025014
vt 0.586123 0.026218
vt 0.586123 0.000000
vt 0.413877 0.000000
vt 0.413877 0.026218
vt 0.236111 0.666667
vt 0.236111 0.727531
vt 0.208333 0.728242
vt 0.413877 0.333333
vt 0.586123 0.361111
vt 0.413877 0.361111
vt 0.586123 0.361111
vt 0.586123 0.276218
vt 0.586123 0.223782
vt 0.586123 0.776218
vt 0.413877 0.776218
vt 0.586123 0.723782
vt 0.586123 0.526218
vt 0.586123 0.473782
vt 0.853420 0.666667
vt 0.760422 0.614578
vt 0.739578 0.614578
vt 0.738277 0.613277
vt 0.761723 0.613277
vt 0.737593 0.637406
vt 0.762406 0.637406
vt 0.237593 0.612593
vt 0.237593 0.637406
vt 0.262406 0.637406
vt 0.737593 0.612593
vt 0.762406 0.612593
vt 0.262406 0.612593
vt 0.760422 0.635422
vt 0.239578 0.614578
vt 0.260422 0.614578
vt 0.239578 0.635422
vt 0.238277 0.636723
vt 0.238277 0.613277
vt 0.261723 0.613277
vt 0.260422 0.635422
vt 0.261723 0.636723
vt 0.761723 0.636723
vt 0.739578 0.635422
vt 0.738277 0.636723
vt 0.125000 0.666667
vt 0.125000 0.638889
vt 0.625000 0.146586
vt 0.625000 0.166667
vt 0.208333 0.500000
vt 0.236111 0.500000
vt 0.625000 0.398139
vt 0.625000 0.416667
vt 0.291667 0.750000
vt 0.263889 0.750000
vt 0.614927 0.925390
vt 0.614980 0.968204
vt 0.125000 0.611111
vt 0.125000 0.583333
vt 0.625000 0.083333
vt 0.625000 0.103414
vt 0.625000 0.111111
vt 0.625000 0.138889
vt 0.263889 0.500000
vt 0.291667 0.500000
vt 0.625000 0.333333
vt 0.625000 0.351861
vt 0.625000 0.361111
vt 0.625000 0.388889
vt 0.236111 0.750000
vt 0.208333 0.750000
vt 0.625000 0.833333
vt 0.625000 0.851861
vt 0.625000 0.861111
vt 0.625000 0.888889
vt 0.151218 0.750000
vt 0.125000 0.723782
vt 0.625000 0.226189
vt 0.625000 0.273654
vt 0.125000 0.526218
vt 0.151218 0.500000
vt 0.625000 0.476346
vt 0.625000 0.523811
vt 0.348782 0.500000
vt 0.375000 0.526218
vt 0.625000 0.726189
vt 0.625000 0.773654
vt 0.375000 0.723782
vt 0.348782 0.750000
vt 0.625000 0.033811
vt 0.625000 0.071656
vt 0.853420 0.666667
vt 0.858576 0.709765
vt 0.838954 0.729329
vt 0.625000 0.283733
vt 0.625000 0.321560
vt 0.625000 0.178344
vt 0.625000 0.216189
vt 0.625000 0.783733
vt 0.625000 0.821560
vt 0.625000 0.428440
vt 0.625000 0.466267
vt 0.625000 0.933335
vt 0.624048 0.928152
vt 0.625000 0.966267
s 0
usemtl M_Noir_Bleuté
f 105/1/1 110/2/1 80/3/1 73/4/1
f 111/5/2 22/6/2 12/7/2 79/8/2
f 112/9/3 82/10/3 13/11/3 29/12/3
f 9/13/4 71/14/4 103/15/4 23/16/4
f 20/17/5 104/18/5 74/19/5 15/20/5
f 116/21/2 86/22/2 9/13/2 25/23/2
f 31/24/6 15/20/6 91/25/6 123/26/6
f 27/27/7 11/28/7 175/29/7 177/30/7 127/31/7
f 113/32/8 118/33/8 88/34/8 81/35/8
f 13/11/9 75/36/9 107/37/9 19/38/9
f 154/39/10 156/40/10 77/41/10 76/42/10
f 15/20/11 74/43/11 143/44/11 145/45/11 91/25/11
f 121/46/12 126/47/12 95/48/12 89/49/12
f 135/50/13 137/51/13 83/52/13 14/53/13 66/54/13
f 67/55/14 16/56/14 90/57/14 128/58/14 130/59/14
f 39/60/15 20/17/15 15/20/15 31/24/15
f 97/61/16 102/62/16 72/63/16 65/64/16
f 81/35/17 88/65/17 158/66/17 152/67/17
f 79/8/18 12/7/18 94/68/18 147/69/18 149/70/18
f 35/71/19 24/72/19 11/28/19 27/27/19
f 127/73/20 177/74/20 176/75/20 95/48/20 126/47/20
f 87/76/21 119/77/21 26/78/21 10/79/21
f 78/80/7 10/79/7 21/81/7 108/82/7
f 98/83/22 101/84/22 102/62/22 97/61/22
f 99/85/3 18/86/3 16/56/3 67/55/3
f 12/7/4 28/87/4 124/88/4 94/89/4
f 73/4/10 80/90/10 150/91/10 144/92/10
f 92/93/23 93/94/23 125/95/23 122/96/23
f 68/97/24 69/98/24 101/99/24 98/83/24
f 83/100/5 115/101/5 30/102/5 14/53/5
f 25/23/19 9/13/19 23/16/19 33/103/19
f 33/103/19 23/16/19 24/72/19 35/71/19
f 155/104/25 157/105/25 87/106/25 10/79/25 78/80/25
f 115/101/26 112/9/26 29/12/26 30/102/26
f 29/12/15 13/11/15 19/38/15 37/107/15
f 37/107/15 19/38/15 20/17/15 39/60/15
f 65/64/22 72/108/22 142/109/22 136/110/22
f 23/16/27 103/15/27 100/111/27 24/72/27
f 131/112/22 133/113/22 69/98/22 68/114/22
f 96/115/28 17/116/28 18/86/28 99/85/28
f 82/10/29 151/117/29 153/118/29 75/119/29 13/11/29
f 108/82/30 21/81/30 22/6/30 111/5/30
f 76/120/31 77/41/31 109/121/31 106/122/31
f 106/122/10 109/121/10 110/2/10 105/1/10
f 86/22/32 139/123/32 141/124/32 71/125/32 9/13/32
f 19/38/33 107/37/33 104/18/33 20/17/33
f 17/116/15 38/126/15 40/127/15 18/86/15
f 36/128/22 34/129/22 46/129/22 42/128/22
f 14/53/15 30/102/15 38/126/15 17/116/15
f 30/102/15 29/12/15 37/107/15 38/126/15
f 21/81/19 34/129/19 36/128/19 22/6/19
f 35/71/17 36/128/17 42/128/17 41/71/17
f 10/79/19 26/78/19 34/129/19 21/81/19
f 26/78/19 25/23/19 33/103/19 34/129/19
f 138/130/17 140/131/17 85/132/17 84/133/17
f 119/77/34 116/21/34 25/23/34 26/78/34
f 146/134/35 148/135/35 93/94/35 92/136/35
f 28/87/36 27/27/36 127/31/36 124/88/36
f 89/49/35 95/48/35 134/137/35 129/138/35
f 122/96/35 125/139/35 126/47/35 121/46/35
f 178/140/37 179/141/37 132/142/37 133/143/37 134/144/37
f 129/145/38 134/144/38 133/143/38 131/146/38
f 16/56/9 32/147/9 120/148/9 90/149/9
f 32/147/39 31/24/39 123/26/39 120/148/39
f 22/6/19 36/128/19 28/87/19 12/7/19
f 36/128/19 35/71/19 27/27/19 28/87/19
f 84/150/40 85/132/40 117/151/40 114/152/40
f 114/152/17 117/153/17 118/33/17 113/32/17
f 18/86/15 40/127/15 32/147/15 16/56/15
f 40/127/15 39/60/15 31/24/15 32/147/15
f 140/154/41 138/130/41 136/110/41 142/155/41
f 148/156/42 146/157/42 144/92/42 150/158/42
f 156/159/43 154/39/43 152/67/43 158/160/43
f 24/72/21 100/111/21 70/161/21 11/28/21
f 55/162/19 54/163/19 170/164/19 171/165/19
f 34/129/35 33/103/35 47/103/35 46/129/35
f 40/127/10 38/126/10 43/126/10 44/127/10
f 33/103/10 35/71/10 41/71/10 47/103/10
f 37/107/22 39/60/22 45/60/22 48/107/22
f 39/60/17 40/127/17 44/127/17 45/60/17
f 38/126/35 37/107/35 48/107/35 43/126/35
f 55/162/10 49/174/10 57/174/10 63/162/10
f 51/175/35 56/176/35 64/176/35 59/175/35
f 51/175/15 52/177/15 165/178/15 164/179/15
f 56/176/15 51/175/15 164/179/15 174/180/15
f 52/177/15 53/181/15 167/182/15 165/178/15
f 53/181/15 56/176/15 174/180/15 167/182/15
f 49/174/19 55/162/19 171/165/19 159/183/19
f 54/163/19 50/184/19 162/185/19 170/164/19
f 53/181/17 52/177/17 60/177/17 61/181/17
f 49/174/17 50/184/17 58/184/17 57/174/17
f 56/176/22 53/181/22 61/181/22 64/176/22
f 54/163/35 55/162/35 63/162/35 62/163/35
f 50/184/22 54/163/22 62/163/22 58/184/22
f 52/177/10 51/175/10 59/175/10 60/177/10
f 99/85/44 67/55/44 68/186/44 98/187/44
f 103/188/45 71/189/45 72/63/45 102/62/45
f 107/37/46 75/36/46 76/120/46 106/122/46
f 111/5/47 79/8/47 80/3/47 110/2/47
f 115/101/48 83/100/48 84/190/48 114/191/48
f 119/192/49 87/193/49 88/34/49 118/33/49
f 123/26/50 91/25/50 92/194/50 122/195/50
f 176/196/51 178/197/51 134/137/51 95/48/51
f 66/54/52 96/115/52 97/198/52 65/199/52
f 96/115/53 99/85/53 98/187/53 97/198/53
f 70/200/54 100/201/54 101/99/54 69/98/54
f 100/202/55 103/203/55 102/62/55 101/84/55
f 74/19/56 104/18/56 105/1/56 73/4/56
f 104/18/57 107/37/57 106/122/57 105/1/57
f 78/80/58 108/82/58 109/121/58 77/41/58
f 108/82/59 111/5/59 110/2/59 109/121/59
f 82/10/60 112/9/60 113/204/60 81/205/60
f 112/9/61 115/101/61 114/191/61 113/204/61
f 86/206/62 116/207/62 117/151/62 85/132/62
f 116/208/63 119/209/63 118/33/63 117/153/63
f 90/149/64 120/148/64 121/210/64 89/211/64
f 120/148/65 123/26/65 122/195/65 121/210/65
f 94/212/66 124/213/66 125/95/66 93/94/66
f 124/214/67 127/215/67 126/47/67 125/139/67
f 130/59/68 128/58/68 129/216/68 131/217/68
f 141/218/69 139/219/69 140/154/69 142/155/69
f 137/51/70 135/50/70 136/220/70 138/221/70
f 157/222/71 155/223/71 156/159/71 158/160/71
f 153/118/72 151/117/72 152/224/72 154/225/72
f 149/226/73 147/227/73 148/156/73 150/158/73
f 145/45/74 143/44/74 144/228/74 146/229/74
f 131/217/75 68/186/75 67/55/75 130/59/75
f 89/211/76 129/216/76 128/58/76 90/57/76
f 132/230/77 70/231/77 69/98/77 133/113/77
f 11/28/78 70/232/78 132/233/78 179/234/78 175/29/78
f 83/52/79 137/51/79 138/221/79 84/190/79
f 139/235/80 86/236/80 85/132/80 140/131/80
f 65/199/81 136/220/81 135/50/81 66/54/81
f 71/237/82 141/238/82 142/109/82 72/108/82
f 91/25/83 145/45/83 146/229/83 92/194/83
f 147/239/84 94/240/84 93/94/84 148/135/84
f 73/4/85 144/92/85 143/44/85 74/43/85
f 79/8/86 149/70/86 150/91/86 80/90/86
f 75/119/87 153/118/87 154/39/87 76/42/87
f 155/104/88 78/80/88 77/41/88 156/40/88
f 81/205/89 152/224/89 151/117/89 82/10/89
f 87/241/90 157/242/90 158/66/90 88/65/90
f 66/54/6 14/53/6 17/116/6 96/115/6
f 175/243/91 176/196/91 177/244/91
f 164/179/93 165/178/93 166/169/93 163/168/93
f 170/164/95 162/185/95 161/166/95 169/171/95
f 171/165/97 170/164/97 169/171/97 172/172/97
f 174/180/98 164/179/98 163/168/98 173/173/98
f 175/243/100 179/245/100 178/197/100 176/196/100
f 50/184/19 49/174/19 159/183/19 162/185/19
usemtl M_Noir_Profond
f 5/166/19 6/167/19 41/71/19 42/128/19
f 3/168/15 1/169/15 44/127/15 43/126/15
f 1/169/15 2/170/15 45/60/15 44/127/15
f 7/171/19 5/166/19 42/128/19 46/129/19
f 6/167/19 8/172/19 47/103/19 41/71/19
f 8/172/19 7/171/19 46/129/19 47/103/19
f 4/173/15 3/168/15 43/126/15 48/107/15
f 2/170/15 4/173/15 48/107/15 45/60/15
f 6/167/35 5/166/35 161/166/35 160/167/35
f 8/172/22 6/167/22 160/167/22 172/172/22
f 1/169/22 3/168/22 163/168/22 166/169/22
f 2/170/35 1/169/35 166/169/35 168/170/35
f 5/166/10 7/171/10 169/171/10 161/166/10
f 7/171/17 8/172/17 172/172/17 169/171/17
f 3/168/17 4/173/17 173/173/17 163/168/17
f 4/173/10 2/170/10 168/170/10 173/173/10
f 160/167/92 161/166/92 162/185/92 159/183/92
f 168/170/94 166/169/94 165/178/94 167/182/94
f 172/172/96 160/167/96 159/183/96 171/165/96
f 173/173/99 168/170/99 167/182/99 174/180/99
usemtl M_Cyan
f 59/175/15 64/176/15 61/181/15 60/177/15
f 62/163/19 63/162/19 57/174/19 58/184/19
