# 3ds Max Wavefront OBJ Exporter v0.99 - (c)2007 guruware
# File Created: 13.04.2023 14:51:17

mtllib Drug_Brick_Simple.mtl

#
# object Drug_Package
#

v  -6.3741 0.2374 3.4883
v  -6.4817 0.2022 3.1385
v  -5.7671 0.1117 3.1513
v  -5.7450 0.2022 3.5495
v  -6.5291 0.1852 2.4064
v  -5.7822 0.0777 2.4091
v  -4.4251 0.0355 2.4116
v  -4.4212 0.0777 3.1604
v  -4.4167 0.1852 3.5774
v  -6.5447 0.1790 1.3164
v  -5.7881 0.0665 1.3169
v  -6.5480 0.1776 -0.0000
v  -5.7895 0.0641 -0.0000
v  -4.4273 0.0186 0.0000
v  -4.4269 0.0216 1.3174
v  -2.4283 0.0665 3.1641
v  -2.4275 0.1790 3.5870
v  -2.4292 0.0216 2.4127
v  -0.0193 0.0186 2.4130
v  -0.0193 0.0641 3.1650
v  -0.0193 0.1776 3.5891
v  -2.4296 0.0066 1.3177
v  -2.4297 0.0033 -0.0000
v  -0.0193 0.0000 -0.0000
v  -0.0193 0.0033 1.3178
v  -6.5291 0.1852 -2.4064
v  -6.4817 0.2022 -3.1385
v  -5.7671 0.1117 -3.1513
v  -5.7822 0.0777 -2.4091
v  -6.3741 0.2374 -3.4883
v  -5.7450 0.2022 -3.5495
v  -4.4167 0.1852 -3.5774
v  -4.4212 0.0777 -3.1604
v  -4.4251 0.0355 -2.4116
v  -2.4283 0.0665 -3.1641
v  -2.4292 0.0216 -2.4127
v  -2.4275 0.1790 -3.5870
v  -0.0193 0.1776 -3.5891
v  -0.0193 0.0641 -3.1650
v  -0.0193 0.0186 -2.4130
v  -6.5447 0.1790 -1.3164
v  -5.7881 0.0665 -1.3169
v  -4.4269 0.0216 -1.3174
v  -2.4296 0.0066 -1.3177
v  -0.0193 0.0033 -1.3178
v  6.3482 0.2374 -3.4883
v  6.4584 0.2022 -3.1385
v  5.7361 0.1117 -3.1513
v  5.7132 0.2022 -3.5495
v  6.5082 0.1852 -2.4064
v  5.7523 0.0777 -2.4091
v  4.3889 0.0355 -2.4116
v  4.3845 0.0777 -3.1604
v  4.3798 0.1852 -3.5774
v  6.5251 0.1790 -1.3164
v  5.7588 0.0665 -1.3169
v  6.5288 0.1776 -0.0000
v  5.7603 0.0641 -0.0000
v  4.3914 0.0186 -0.0000
v  4.3909 0.0216 -1.3174
v  2.3898 0.0665 -3.1641
v  2.3889 0.1790 -3.5870
v  2.3908 0.0216 -2.4127
v  2.3913 0.0066 -1.3177
v  2.3914 0.0033 -0.0000
v  6.5082 0.1852 2.4064
v  6.4584 0.2022 3.1385
v  5.7361 0.1117 3.1513
v  5.7523 0.0777 2.4091
v  6.3482 0.2374 3.4883
v  5.7132 0.2022 3.5495
v  4.3798 0.1852 3.5774
v  4.3845 0.0777 3.1604
v  4.3889 0.0355 2.4116
v  2.3898 0.0665 3.1641
v  2.3908 0.0216 2.4127
v  2.3889 0.1790 3.5870
v  6.5251 0.1790 1.3164
v  5.7588 0.0665 1.3169
v  4.3909 0.0216 1.3174
v  2.3913 0.0066 1.3177
v  -6.3741 3.9887 3.4883
v  -5.7450 4.0240 3.5495
v  -5.7671 4.1144 3.1513
v  -6.4817 4.0240 3.1385
v  -4.4167 4.0409 3.5774
v  -4.4212 4.1485 3.1604
v  -4.4251 4.1907 2.4116
v  -5.7822 4.1485 2.4091
v  -6.5291 4.0409 2.4064
v  -2.4275 4.0471 3.5870
v  -2.4283 4.1596 3.1641
v  -0.0193 4.0486 3.5891
v  -0.0193 4.1621 3.1650
v  -0.0193 4.2076 2.4130
v  -2.4292 4.2046 2.4127
v  -5.7881 4.1596 1.3169
v  -6.5447 4.0471 1.3164
v  -4.4269 4.2046 1.3174
v  -4.4273 4.2076 -0.0000
v  -5.7895 4.1621 -0.0000
v  -6.5480 4.0486 0.0000
v  -2.4296 4.2195 1.3177
v  -0.0193 4.2228 1.3178
v  -0.0193 4.2262 -0.0000
v  -2.4297 4.2228 -0.0000
v  4.3798 4.0409 3.5774
v  5.7132 4.0240 3.5495
v  5.7361 4.1144 3.1513
v  4.3845 4.1485 3.1604
v  6.3482 3.9887 3.4883
v  6.4584 4.0240 3.1385
v  6.5082 4.0409 2.4064
v  5.7523 4.1485 2.4091
v  4.3889 4.1907 2.4116
v  5.7588 4.1596 1.3169
v  4.3909 4.2046 1.3174
v  6.5251 4.0471 1.3164
v  6.5288 4.0486 -0.0000
v  5.7603 4.1621 -0.0000
v  4.3914 4.2076 0.0000
v  2.3889 4.0471 3.5870
v  2.3898 4.1596 3.1641
v  2.3908 4.2046 2.4127
v  2.3913 4.2195 1.3177
v  2.3914 4.2228 0.0000
v  6.3482 3.9887 -3.4883
v  5.7132 4.0240 -3.5495
v  5.7361 4.1144 -3.1513
v  6.4584 4.0240 -3.1385
v  4.3798 4.0409 -3.5774
v  4.3845 4.1485 -3.1604
v  4.3889 4.1907 -2.4116
v  5.7523 4.1485 -2.4091
v  6.5082 4.0409 -2.4064
v  2.3889 4.0471 -3.5870
v  2.3898 4.1596 -3.1641
v  -0.0193 4.0486 -3.5891
v  -0.0193 4.1621 -3.1650
v  -0.0193 4.2076 -2.4130
v  2.3908 4.2046 -2.4127
v  5.7588 4.1596 -1.3169
v  6.5251 4.0471 -1.3164
v  4.3909 4.2046 -1.3174
v  2.3913 4.2195 -1.3177
v  -0.0193 4.2228 -1.3178
v  -4.4167 4.0409 -3.5774
v  -5.7450 4.0240 -3.5495
v  -5.7671 4.1144 -3.1513
v  -4.4212 4.1485 -3.1604
v  -6.3741 3.9887 -3.4883
v  -6.4817 4.0240 -3.1385
v  -6.5291 4.0409 -2.4064
v  -5.7822 4.1485 -2.4091
v  -4.4251 4.1907 -2.4116
v  -5.7881 4.1596 -1.3169
v  -4.4269 4.2046 -1.3174
v  -6.5447 4.0471 -1.3164
v  -2.4275 4.0471 -3.5870
v  -2.4283 4.1596 -3.1641
v  -2.4292 4.2046 -2.4127
v  -2.4296 4.2195 -1.3177
v  -5.7671 0.4230 3.7075
v  -6.4817 0.4306 3.5495
v  -4.4212 0.4173 3.7643
v  -4.4251 0.8245 3.8341
v  -5.7822 0.8261 3.7643
v  -6.5291 0.8278 3.5774
v  -2.4283 0.4148 3.7817
v  -0.0193 0.4141 3.7854
v  -0.0193 0.8235 3.8605
v  -2.4292 0.8237 3.8559
v  -5.7881 1.4116 3.7817
v  -6.5447 1.4119 3.5870
v  -4.4269 1.4112 3.8559
v  -4.4273 2.1131 3.8605
v  -5.7895 2.1131 3.7854
v  -6.5480 2.1131 3.5891
v  -2.4296 1.4110 3.8793
v  -0.0193 1.4109 3.8842
v  -0.0193 2.1131 3.8892
v  -2.4297 2.1131 3.8842
v  5.7361 0.4230 3.7075
v  4.3845 0.4173 3.7643
v  6.4584 0.4306 3.5495
v  6.5082 0.8278 3.5774
v  5.7523 0.8261 3.7643
v  4.3889 0.8245 3.8341
v  5.7588 1.4116 3.7817
v  4.3909 1.4112 3.8559
v  6.5251 1.4119 3.5870
v  6.5288 2.1131 3.5891
v  5.7603 2.1131 3.7854
v  4.3914 2.1131 3.8605
v  2.3898 0.4148 3.7817
v  2.3908 0.8237 3.8559
v  2.3913 1.4110 3.8793
v  2.3914 2.1131 3.8842
v  5.7361 3.8031 3.7075
v  6.4584 3.7956 3.5495
v  4.3845 3.8089 3.7643
v  4.3889 3.4017 3.8341
v  5.7523 3.4000 3.7643
v  6.5082 3.3984 3.5774
v  2.3898 3.8114 3.7817
v  -0.0193 3.8120 3.7854
v  -0.0193 3.4027 3.8605
v  2.3908 3.4025 3.8559
v  5.7588 2.8146 3.7817
v  6.5251 2.8143 3.5870
v  4.3909 2.8150 3.8559
v  2.3913 2.8152 3.8793
v  -0.0193 2.8153 3.8842
v  -5.7671 3.8031 3.7075
v  -4.4212 3.8089 3.7643
v  -6.4817 3.7956 3.5495
v  -6.5291 3.3984 3.5774
v  -5.7822 3.4000 3.7643
v  -4.4251 3.4017 3.8341
v  -5.7881 2.8146 3.7817
v  -4.4269 2.8150 3.8559
v  -6.5447 2.8143 3.5870
v  -2.4283 3.8114 3.7817
v  -2.4292 3.4025 3.8559
v  -2.4296 2.8152 3.8793
v  6.7434 0.4230 3.1513
v  6.8448 0.4173 2.4091
v  6.9696 0.8245 2.4116
v  6.8448 0.8261 3.1604
v  6.8758 0.4148 1.3169
v  6.8821 0.4141 -0.0000
v  7.0161 0.8235 0.0000
v  7.0082 0.8237 1.3174
v  6.8758 1.4116 3.1641
v  7.0082 1.4112 2.4127
v  7.0161 2.1131 2.4130
v  6.8821 2.1131 3.1650
v  7.0494 1.4110 1.3177
v  7.0580 1.4109 -0.0000
v  7.0668 2.1131 -0.0000
v  7.0580 2.1131 1.3178
v  6.7434 0.4230 -3.1513
v  6.8448 0.4173 -2.4091
v  6.4584 0.4306 -3.5495
v  6.5082 0.8278 -3.5774
v  6.8448 0.8261 -3.1604
v  6.9696 0.8245 -2.4116
v  6.8758 1.4116 -3.1641
v  7.0082 1.4112 -2.4127
v  6.5251 1.4119 -3.5870
v  6.5288 2.1131 -3.5891
v  6.8821 2.1131 -3.1650
v  7.0161 2.1131 -2.4130
v  6.8758 0.4148 -1.3169
v  7.0082 0.8237 -1.3174
v  7.0494 1.4110 -1.3177
v  7.0580 2.1131 -1.3178
v  6.7434 3.8031 -3.1513
v  6.4584 3.7956 -3.5495
v  6.8448 3.8089 -2.4091
v  6.9696 3.4017 -2.4116
v  6.8448 3.4000 -3.1604
v  6.5082 3.3984 -3.5774
v  6.8758 3.8114 -1.3169
v  6.8821 3.8120 -0.0000
v  7.0161 3.4027 -0.0000
v  7.0082 3.4025 -1.3174
v  6.8758 2.8146 -3.1641
v  6.5251 2.8143 -3.5870
v  7.0082 2.8150 -2.4127
v  7.0494 2.8152 -1.3177
v  7.0580 2.8153 -0.0000
v  6.7434 3.8031 3.1513
v  6.8448 3.8089 2.4091
v  6.8448 3.4000 3.1604
v  6.9696 3.4017 2.4116
v  6.8758 2.8146 3.1641
v  7.0082 2.8150 2.4127
v  6.8758 3.8114 1.3169
v  7.0082 3.4025 1.3174
v  7.0494 2.8152 1.3177
v  5.7361 0.4230 -3.7075
v  4.3845 0.4173 -3.7643
v  4.3889 0.8245 -3.8341
v  5.7523 0.8261 -3.7643
v  2.3898 0.4148 -3.7817
v  -0.0193 0.4141 -3.7854
v  -0.0193 0.8235 -3.8605
v  2.3908 0.8237 -3.8559
v  5.7588 1.4116 -3.7817
v  4.3909 1.4112 -3.8559
v  4.3914 2.1131 -3.8605
v  5.7603 2.1131 -3.7854
v  2.3913 1.4110 -3.8793
v  -0.0193 1.4109 -3.8842
v  -0.0193 2.1131 -3.8892
v  2.3914 2.1131 -3.8842
v  -5.7671 0.4230 -3.7075
v  -4.4212 0.4173 -3.7643
v  -6.4817 0.4306 -3.5495
v  -6.5291 0.8278 -3.5774
v  -5.7822 0.8261 -3.7643
v  -4.4251 0.8245 -3.8341
v  -5.7881 1.4116 -3.7817
v  -4.4269 1.4112 -3.8559
v  -6.5447 1.4119 -3.5870
v  -6.5480 2.1131 -3.5891
v  -5.7895 2.1131 -3.7854
v  -4.4273 2.1131 -3.8605
v  -2.4283 0.4148 -3.7817
v  -2.4292 0.8237 -3.8559
v  -2.4296 1.4110 -3.8793
v  -2.4297 2.1131 -3.8842
v  -5.7671 3.8031 -3.7075
v  -6.4817 3.7956 -3.5495
v  -4.4212 3.8089 -3.7643
v  -4.4251 3.4017 -3.8341
v  -5.7822 3.4000 -3.7643
v  -6.5291 3.3984 -3.5774
v  -2.4283 3.8114 -3.7817
v  -0.0193 3.8120 -3.7854
v  -0.0193 3.4027 -3.8605
v  -2.4292 3.4025 -3.8559
v  -5.7881 2.8146 -3.7817
v  -6.5447 2.8143 -3.5870
v  -4.4269 2.8150 -3.8559
v  -2.4296 2.8152 -3.8793
v  -0.0193 2.8153 -3.8842
v  5.7361 3.8031 -3.7075
v  4.3845 3.8089 -3.7643
v  5.7523 3.4000 -3.7643
v  4.3889 3.4017 -3.8341
v  5.7588 2.8146 -3.7817
v  4.3909 2.8150 -3.8559
v  2.3898 3.8114 -3.7817
v  2.3908 3.4025 -3.8559
v  2.3913 2.8152 -3.8793
v  -6.7602 0.4230 -3.1513
v  -6.8574 0.4173 -2.4091
v  -6.9768 0.8245 -2.4116
v  -6.8574 0.8261 -3.1604
v  -6.8863 0.4148 -1.3169
v  -6.8921 0.4141 -0.0000
v  -7.0199 0.8235 -0.0000
v  -7.0127 0.8237 -1.3174
v  -6.8863 1.4116 -3.1641
v  -7.0127 1.4112 -2.4127
v  -7.0199 2.1131 -2.4130
v  -6.8921 2.1131 -3.1650
v  -7.0511 1.4110 -1.3177
v  -7.0588 1.4109 -0.0000
v  -7.0668 2.1131 0.0000
v  -7.0588 2.1131 -1.3178
v  -6.7602 0.4230 3.1513
v  -6.8574 0.4173 2.4091
v  -6.8574 0.8261 3.1604
v  -6.9768 0.8245 2.4116
v  -6.8863 1.4116 3.1641
v  -7.0127 1.4112 2.4127
v  -6.8921 2.1131 3.1650
v  -7.0199 2.1131 2.4130
v  -6.8863 0.4148 1.3169
v  -7.0127 0.8237 1.3174
v  -7.0511 1.4110 1.3177
v  -7.0588 2.1131 1.3178
v  -6.7602 3.8031 3.1513
v  -6.8574 3.8089 2.4091
v  -6.9768 3.4017 2.4116
v  -6.8574 3.4000 3.1604
v  -6.8863 3.8114 1.3169
v  -6.8921 3.8120 -0.0000
v  -7.0199 3.4027 0.0000
v  -7.0127 3.4025 1.3174
v  -6.8863 2.8146 3.1641
v  -7.0127 2.8150 2.4127
v  -7.0511 2.8152 1.3177
v  -7.0588 2.8153 -0.0000
v  -6.7602 3.8031 -3.1513
v  -6.8574 3.8089 -2.4091
v  -6.8574 3.4000 -3.1604
v  -6.9768 3.4017 -2.4116
v  -6.8863 2.8146 -3.1641
v  -7.0127 2.8150 -2.4127
v  -6.8863 3.8114 -1.3169
v  -7.0127 3.4025 -1.3174
v  -7.0511 2.8152 -1.3177
# 386 vertices

vn -0.3633 -0.7480 0.5555
vn -0.3951 -0.9097 0.1277
vn -0.0768 -0.9876 0.1366
vn -0.0591 -0.8299 0.5547
vn -0.3726 -0.9276 0.0281
vn -0.0872 -0.9958 0.0290
vn -0.0190 -0.9992 0.0345
vn -0.0159 -0.9880 0.1539
vn -0.0136 -0.8400 0.5425
vn -0.3677 -0.9299 0.0062
vn -0.0903 -0.9959 0.0063
vn -0.3669 -0.9303 -0.0000
vn -0.0909 -0.9959 -0.0000
vn -0.0205 -0.9998 -0.0000
vn -0.0202 -0.9998 0.0075
vn -0.0034 -0.9872 0.1592
vn -0.0031 -0.8417 0.5399
vn -0.0041 -0.9993 0.0367
vn -0.0000 -0.9993 0.0372
vn -0.0000 -0.9871 0.1603
vn -0.0000 -0.8420 0.5395
vn -0.0044 -1.0000 0.0081
vn -0.0045 -1.0000 -0.0000
vn -0.0000 -1.0000 0.0000
vn -0.0000 -1.0000 0.0082
vn -0.3726 -0.9276 -0.0281
vn -0.3951 -0.9097 -0.1277
vn -0.0768 -0.9876 -0.1366
vn -0.0872 -0.9958 -0.0290
vn -0.3633 -0.7480 -0.5555
vn -0.0591 -0.8299 -0.5547
vn -0.0136 -0.8400 -0.5425
vn -0.0159 -0.9880 -0.1539
vn -0.0190 -0.9992 -0.0345
vn -0.0034 -0.9872 -0.1592
vn -0.0041 -0.9993 -0.0367
vn -0.0031 -0.8417 -0.5399
vn -0.0000 -0.8420 -0.5395
vn -0.0000 -0.9871 -0.1603
vn -0.0000 -0.9993 -0.0372
vn -0.3677 -0.9299 -0.0062
vn -0.0903 -0.9959 -0.0063
vn -0.0202 -0.9998 -0.0075
vn -0.0044 -1.0000 -0.0081
vn -0.0000 -1.0000 -0.0082
vn 0.3576 -0.7498 -0.5568
vn 0.3894 -0.9120 -0.1290
vn 0.0761 -0.9877 -0.1367
vn 0.0586 -0.8300 -0.5547
vn 0.3665 -0.9300 -0.0287
vn 0.0863 -0.9958 -0.0291
vn 0.0190 -0.9992 -0.0345
vn 0.0159 -0.9880 -0.1539
vn 0.0135 -0.8400 -0.5425
vn 0.3612 -0.9325 -0.0065
vn 0.0893 -0.9960 -0.0063
vn 0.3603 -0.9328 0.0000
vn 0.0899 -0.9960 0.0000
vn 0.0204 -0.9998 0.0000
vn 0.0202 -0.9998 -0.0075
vn 0.0034 -0.9872 -0.1592
vn 0.0031 -0.8417 -0.5399
vn 0.0041 -0.9993 -0.0367
vn 0.0044 -1.0000 -0.0081
vn 0.0045 -1.0000 0.0000
vn 0.3665 -0.9300 0.0287
vn 0.3894 -0.9120 0.1290
vn 0.0761 -0.9877 0.1367
vn 0.0863 -0.9958 0.0291
vn 0.3576 -0.7498 0.5568
vn 0.0586 -0.8300 0.5547
vn 0.0135 -0.8400 0.5425
vn 0.0159 -0.9880 0.1539
vn 0.0190 -0.9992 0.0345
vn 0.0034 -0.9872 0.1592
vn 0.0041 -0.9993 0.0367
vn 0.0031 -0.8417 0.5399
vn 0.3612 -0.9325 0.0065
vn 0.0893 -0.9960 0.0063
vn 0.0202 -0.9998 0.0075
vn 0.0044 -1.0000 0.0081
vn -0.3633 0.7480 0.5555
vn -0.0591 0.8299 0.5547
vn -0.0768 0.9876 0.1366
vn -0.3951 0.9097 0.1277
vn -0.0136 0.8400 0.5425
vn -0.0159 0.9880 0.1539
vn -0.0190 0.9992 0.0345
vn -0.0872 0.9958 0.0290
vn -0.3726 0.9276 0.0281
vn -0.0031 0.8417 0.5399
vn -0.0034 0.9872 0.1592
vn -0.0000 0.8420 0.5395
vn 0.0000 0.9871 0.1603
vn -0.0000 0.9993 0.0372
vn -0.0041 0.9993 0.0367
vn -0.0903 0.9959 0.0063
vn -0.3677 0.9299 0.0062
vn -0.0202 0.9998 0.0075
vn -0.0205 0.9998 -0.0000
vn -0.0909 0.9959 -0.0000
vn -0.3669 0.9303 -0.0000
vn -0.0044 1.0000 0.0081
vn -0.0000 1.0000 0.0082
vn -0.0000 1.0000 -0.0000
vn -0.0045 1.0000 -0.0000
vn 0.0135 0.8400 0.5425
vn 0.0586 0.8300 0.5547
vn 0.0761 0.9877 0.1367
vn 0.0159 0.9880 0.1539
vn 0.3576 0.7498 0.5568
vn 0.3894 0.9120 0.1290
vn 0.3665 0.9300 0.0287
vn 0.0863 0.9958 0.0291
vn 0.0190 0.9992 0.0345
vn 0.0893 0.9960 0.0063
vn 0.0202 0.9998 0.0075
vn 0.3612 0.9325 0.0065
vn 0.3603 0.9328 0.0000
vn 0.0899 0.9960 -0.0000
vn 0.0204 0.9998 0.0000
vn 0.0031 0.8417 0.5399
vn 0.0034 0.9872 0.1592
vn 0.0041 0.9993 0.0367
vn 0.0044 1.0000 0.0081
vn 0.0045 1.0000 -0.0000
vn 0.3576 0.7498 -0.5568
vn 0.0586 0.8300 -0.5547
vn 0.0761 0.9877 -0.1367
vn 0.3894 0.9120 -0.1290
vn 0.0135 0.8400 -0.5425
vn 0.0159 0.9880 -0.1539
vn 0.0190 0.9992 -0.0345
vn 0.0863 0.9958 -0.0291
vn 0.3665 0.9300 -0.0287
vn 0.0031 0.8417 -0.5399
vn 0.0034 0.9872 -0.1592
vn 0.0000 0.8420 -0.5395
vn -0.0000 0.9871 -0.1603
vn -0.0000 0.9993 -0.0372
vn 0.0041 0.9993 -0.0367
vn 0.0893 0.9960 -0.0063
vn 0.3612 0.9325 -0.0065
vn 0.0202 0.9998 -0.0075
vn 0.0044 1.0000 -0.0081
vn -0.0000 1.0000 -0.0082
vn -0.0136 0.8400 -0.5425
vn -0.0591 0.8299 -0.5547
vn -0.0768 0.9876 -0.1366
vn -0.0159 0.9880 -0.1539
vn -0.3633 0.7480 -0.5555
vn -0.3951 0.9097 -0.1277
vn -0.3726 0.9276 -0.0281
vn -0.0872 0.9958 -0.0290
vn -0.0190 0.9992 -0.0345
vn -0.0903 0.9959 -0.0063
vn -0.0202 0.9998 -0.0075
vn -0.3677 0.9299 -0.0062
vn -0.0031 0.8417 -0.5399
vn -0.0034 0.9872 -0.1592
vn -0.0041 0.9993 -0.0367
vn -0.0044 1.0000 -0.0081
vn -0.1225 -0.3710 0.9205
vn -0.5376 -0.3059 0.7857
vn -0.0243 -0.4107 0.9114
vn -0.0311 -0.1034 0.9942
vn -0.1477 -0.0870 0.9852
vn -0.5456 -0.0752 0.8347
vn -0.0050 -0.4212 0.9069
vn 0.0000 -0.4232 0.9060
vn -0.0000 -0.1107 0.9939
vn -0.0064 -0.1094 0.9940
vn -0.1527 -0.0182 0.9881
vn -0.5419 -0.0166 0.8403
vn -0.0331 -0.0219 0.9992
vn -0.0335 0.0000 0.9994
vn -0.1536 -0.0000 0.9881
vn -0.5410 -0.0000 0.8410
vn -0.0069 -0.0234 0.9997
vn -0.0000 -0.0237 0.9997
vn -0.0000 -0.0000 1.0000
vn -0.0070 0.0000 1.0000
vn 0.1213 -0.3713 0.9205
vn 0.0242 -0.4107 0.9114
vn 0.5318 -0.3096 0.7882
vn 0.5395 -0.0771 0.8385
vn 0.1462 -0.0872 0.9854
vn 0.0310 -0.1034 0.9942
vn 0.1511 -0.0183 0.9884
vn 0.0329 -0.0219 0.9992
vn 0.5353 -0.0173 0.8445
vn 0.5343 -0.0000 0.8453
vn 0.1519 -0.0000 0.9884
vn 0.0333 -0.0000 0.9994
vn 0.0050 -0.4212 0.9069
vn 0.0064 -0.1094 0.9940
vn 0.0069 -0.0234 0.9997
vn 0.0070 0.0000 1.0000
vn 0.1213 0.3713 0.9205
vn 0.5318 0.3096 0.7882
vn 0.0242 0.4107 0.9114
vn 0.0310 0.1034 0.9942
vn 0.1462 0.0872 0.9854
vn 0.5395 0.0771 0.8385
vn 0.0050 0.4212 0.9069
vn -0.0000 0.4232 0.9060
vn -0.0000 0.1107 0.9939
vn 0.0064 0.1094 0.9940
vn 0.1511 0.0183 0.9884
vn 0.5353 0.0173 0.8445
vn 0.0329 0.0219 0.9992
vn 0.0069 0.0234 0.9997
vn -0.0000 0.0237 0.9997
vn -0.1225 0.3710 0.9205
vn -0.0243 0.4107 0.9114
vn -0.5376 0.3059 0.7857
vn -0.5456 0.0752 0.8347
vn -0.1477 0.0870 0.9852
vn -0.0311 0.1034 0.9942
vn -0.1527 0.0182 0.9881
vn -0.0331 0.0219 0.9992
vn -0.5419 0.0166 0.8403
vn -0.0050 0.4212 0.9069
vn -0.0064 0.1094 0.9940
vn -0.0069 0.0234 0.9997
vn 0.7976 -0.5126 0.3179
vn 0.8079 -0.5853 0.0690
vn 0.9789 -0.1792 0.0983
vn 0.9049 -0.1405 0.4018
vn 0.7991 -0.6010 0.0141
vn 0.7972 -0.6037 0.0000
vn 0.9813 -0.1925 -0.0000
vn 0.9815 -0.1903 0.0203
vn 0.9076 -0.0296 0.4188
vn 0.9937 -0.0383 0.1057
vn 0.9943 -0.0000 0.1070
vn 0.9068 -0.0000 0.4215
vn 0.9989 -0.0412 0.0221
vn 0.9991 -0.0418 0.0000
vn 1.0000 -0.0000 0.0000
vn 0.9997 0.0000 0.0224
vn 0.7976 -0.5126 -0.3179
vn 0.8079 -0.5853 -0.0690
vn 0.5319 -0.3096 -0.7882
vn 0.5395 -0.0771 -0.8385
vn 0.9049 -0.1405 -0.4018
vn 0.9789 -0.1792 -0.0983
vn 0.9076 -0.0296 -0.4188
vn 0.9937 -0.0383 -0.1057
vn 0.5353 -0.0173 -0.8445
vn 0.5343 -0.0000 -0.8453
vn 0.9068 -0.0000 -0.4215
vn 0.9943 -0.0000 -0.1070
vn 0.7991 -0.6010 -0.0141
vn 0.9815 -0.1903 -0.0203
vn 0.9989 -0.0412 -0.0221
vn 0.9997 0.0000 -0.0224
vn 0.7976 0.5126 -0.3179
vn 0.5319 0.3096 -0.7882
vn 0.8079 0.5853 -0.0690
vn 0.9789 0.1792 -0.0983
vn 0.9049 0.1405 -0.4018
vn 0.5395 0.0771 -0.8385
vn 0.7991 0.6010 -0.0141
vn 0.7972 0.6037 0.0000
vn 0.9813 0.1925 -0.0000
vn 0.9815 0.1903 -0.0203
vn 0.9076 0.0296 -0.4188
vn 0.5353 0.0173 -0.8445
vn 0.9937 0.0383 -0.1057
vn 0.9989 0.0412 -0.0221
vn 0.9991 0.0418 0.0000
vn 0.7976 0.5126 0.3179
vn 0.8079 0.5853 0.0690
vn 0.9049 0.1405 0.4018
vn 0.9789 0.1792 0.0983
vn 0.9076 0.0296 0.4188
vn 0.9937 0.0383 0.1057
vn 0.7991 0.6010 0.0141
vn 0.9815 0.1903 0.0203
vn 0.9989 0.0412 0.0221
vn 0.1213 -0.3713 -0.9205
vn 0.0242 -0.4107 -0.9114
vn 0.0310 -0.1034 -0.9942
vn 0.1462 -0.0872 -0.9854
vn 0.0050 -0.4212 -0.9069
vn -0.0000 -0.4232 -0.9060
vn -0.0000 -0.1107 -0.9939
vn 0.0064 -0.1094 -0.9940
vn 0.1511 -0.0183 -0.9884
vn 0.0329 -0.0219 -0.9992
vn 0.0333 0.0000 -0.9994
vn 0.1519 -0.0000 -0.9884
vn 0.0069 -0.0234 -0.9997
vn -0.0000 -0.0237 -0.9997
vn -0.0000 -0.0000 -1.0000
vn 0.0070 0.0000 -1.0000
vn -0.1225 -0.3710 -0.9205
vn -0.0243 -0.4107 -0.9114
vn -0.5376 -0.3059 -0.7857
vn -0.5456 -0.0752 -0.8347
vn -0.1477 -0.0870 -0.9852
vn -0.0311 -0.1034 -0.9942
vn -0.1527 -0.0182 -0.9881
vn -0.0331 -0.0219 -0.9992
vn -0.5419 -0.0166 -0.8403
vn -0.5410 -0.0000 -0.8410
vn -0.1536 -0.0000 -0.9881
vn -0.0335 -0.0000 -0.9994
vn -0.0050 -0.4212 -0.9069
vn -0.0064 -0.1094 -0.9940
vn -0.0069 -0.0234 -0.9997
vn -0.0070 -0.0000 -1.0000
vn -0.1225 0.3710 -0.9205
vn -0.5376 0.3059 -0.7857
vn -0.0243 0.4107 -0.9114
vn -0.0311 0.1034 -0.9942
vn -0.1477 0.0870 -0.9852
vn -0.5456 0.0752 -0.8347
vn -0.0050 0.4212 -0.9069
vn 0.0000 0.4232 -0.9060
vn -0.0000 0.1107 -0.9939
vn -0.0064 0.1094 -0.9940
vn -0.1527 0.0182 -0.9881
vn -0.5419 0.0166 -0.8403
vn -0.0331 0.0219 -0.9992
vn -0.0069 0.0234 -0.9997
vn -0.0000 0.0237 -0.9997
vn 0.1213 0.3713 -0.9205
vn 0.0242 0.4107 -0.9114
vn 0.1462 0.0872 -0.9854
vn 0.0310 0.1034 -0.9942
vn 0.1511 0.0183 -0.9884
vn 0.0329 0.0219 -0.9992
vn 0.0050 0.4212 -0.9069
vn 0.0064 0.1094 -0.9940
vn 0.0069 0.0234 -0.9997
vn -0.8043 -0.5053 -0.3127
vn -0.8148 -0.5759 -0.0665
vn -0.9808 -0.1712 -0.0938
vn -0.9093 -0.1349 -0.3937
vn -0.8067 -0.5908 -0.0132
vn -0.8050 -0.5933 -0.0000
vn -0.9830 -0.1833 -0.0000
vn -0.9832 -0.1814 -0.0189
vn -0.9119 -0.0277 -0.4095
vn -0.9943 -0.0356 -0.1006
vn -0.9948 -0.0000 -0.1018
vn -0.9112 0.0000 -0.4120
vn -0.9991 -0.0382 -0.0205
vn -0.9993 -0.0387 -0.0000
vn -1.0000 -0.0000 -0.0000
vn -0.9998 0.0000 -0.0208
vn -0.8043 -0.5053 0.3127
vn -0.8148 -0.5759 0.0665
vn -0.9093 -0.1349 0.3937
vn -0.9808 -0.1712 0.0938
vn -0.9119 -0.0277 0.4095
vn -0.9943 -0.0356 0.1006
vn -0.9112 0.0000 0.4120
vn -0.9948 -0.0000 0.1018
vn -0.8067 -0.5908 0.0132
vn -0.9832 -0.1814 0.0189
vn -0.9991 -0.0382 0.0205
vn -0.9998 0.0000 0.0208
vn -0.8043 0.5053 0.3127
vn -0.8148 0.5759 0.0665
vn -0.9808 0.1712 0.0938
vn -0.9093 0.1349 0.3937
vn -0.8067 0.5908 0.0132
vn -0.8050 0.5933 -0.0000
vn -0.9831 0.1833 0.0000
vn -0.9832 0.1814 0.0189
vn -0.9119 0.0277 0.4095
vn -0.9943 0.0356 0.1006
vn -0.9991 0.0382 0.0205
vn -0.9993 0.0387 -0.0000
vn -0.8043 0.5053 -0.3127
vn -0.8148 0.5759 -0.0665
vn -0.9093 0.1349 -0.3937
vn -0.9808 0.1712 -0.0938
vn -0.9119 0.0277 -0.4095
vn -0.9943 0.0356 -0.1006
vn -0.8067 0.5908 -0.0132
vn -0.9832 0.1814 -0.0189
vn -0.9991 0.0382 -0.0205
# 386 vertex normals

vt 0.2070 0.3278 0.0000
vt 0.2018 0.3114 0.0000
vt 0.2329 0.3110 0.0000
vt 0.2341 0.3286 0.0000
vt 0.1999 0.2790 0.0000
vt 0.2324 0.2790 0.0000
vt 0.2908 0.2789 0.0000
vt 0.2910 0.3110 0.0000
vt 0.2912 0.3293 0.0000
vt 0.1993 0.2319 0.0000
vt 0.2322 0.2319 0.0000
vt 0.1991 0.1752 0.0000
vt 0.2321 0.1752 0.0000
vt 0.2907 0.1751 0.0000
vt 0.2907 0.2318 0.0000
vt 0.3767 0.3110 0.0000
vt 0.3768 0.3295 0.0000
vt 0.3767 0.2788 0.0000
vt 0.4804 0.2787 0.0000
vt 0.4804 0.3109 0.0000
vt 0.4804 0.3295 0.0000
vt 0.3767 0.2318 0.0000
vt 0.3767 0.1751 0.0000
vt 0.4804 0.1751 0.0000
vt 0.4804 0.2317 0.0000
vt 0.2000 0.0716 0.0000
vt 0.2020 0.0400 0.0000
vt 0.2330 0.0395 0.0000
vt 0.2324 0.0715 0.0000
vt 0.2065 0.0248 0.0000
vt 0.2337 0.0219 0.0000
vt 0.2910 0.0206 0.0000
vt 0.2909 0.0391 0.0000
vt 0.2908 0.0714 0.0000
vt 0.3767 0.0389 0.0000
vt 0.3767 0.0713 0.0000
vt 0.3767 0.0201 0.0000
vt 0.4804 0.0200 0.0000
vt 0.4804 0.0389 0.0000
vt 0.4804 0.0713 0.0000
vt 0.1993 0.1185 0.0000
vt 0.2322 0.1185 0.0000
vt 0.2907 0.1184 0.0000
vt 0.3767 0.1184 0.0000
vt 0.4804 0.1184 0.0000
vt 0.7548 0.0248 0.0000
vt 0.7594 0.0400 0.0000
vt 0.7281 0.0395 0.0000
vt 0.7273 0.0219 0.0000
vt 0.7615 0.0716 0.0000
vt 0.7287 0.0715 0.0000
vt 0.6700 0.0714 0.0000
vt 0.6699 0.0391 0.0000
vt 0.6698 0.0206 0.0000
vt 0.7623 0.1185 0.0000
vt 0.7290 0.1185 0.0000
vt 0.7624 0.1752 0.0000
vt 0.7290 0.1752 0.0000
vt 0.6701 0.1751 0.0000
vt 0.6701 0.1184 0.0000
vt 0.5840 0.0389 0.0000
vt 0.5840 0.0201 0.0000
vt 0.5841 0.0713 0.0000
vt 0.5841 0.1184 0.0000
vt 0.5841 0.1751 0.0000
vt 0.7616 0.2790 0.0000
vt 0.7595 0.3114 0.0000
vt 0.7281 0.3110 0.0000
vt 0.7287 0.2790 0.0000
vt 0.7543 0.3278 0.0000
vt 0.7269 0.3286 0.0000
vt 0.6696 0.3293 0.0000
vt 0.6698 0.3110 0.0000
vt 0.6700 0.2789 0.0000
vt 0.5840 0.3110 0.0000
vt 0.5840 0.2788 0.0000
vt 0.5840 0.3295 0.0000
vt 0.7623 0.2319 0.0000
vt 0.7290 0.2319 0.0000
vt 0.6701 0.2318 0.0000
vt 0.5841 0.2318 0.0000
vt 0.2052 0.5012 0.0000
vt 0.2335 0.4997 0.0000
vt 0.2331 0.5173 0.0000
vt 0.2021 0.5176 0.0000
vt 0.2910 0.4991 0.0000
vt 0.2910 0.5173 0.0000
vt 0.2911 0.5495 0.0000
vt 0.2330 0.5495 0.0000
vt 0.2012 0.5496 0.0000
vt 0.3767 0.4989 0.0000
vt 0.3767 0.5174 0.0000
vt 0.4803 0.4989 0.0000
vt 0.4803 0.5174 0.0000
vt 0.4803 0.5496 0.0000
vt 0.3768 0.5496 0.0000
vt 0.2331 0.5965 0.0000
vt 0.2008 0.5965 0.0000
vt 0.2913 0.5965 0.0000
vt 0.2913 0.6531 0.0000
vt 0.2331 0.6531 0.0000
vt 0.2007 0.6531 0.0000
vt 0.3769 0.5965 0.0000
vt 0.4803 0.5965 0.0000
vt 0.4803 0.6531 0.0000
vt 0.3769 0.6531 0.0000
vt 0.6697 0.4991 0.0000
vt 0.7275 0.4997 0.0000
vt 0.7279 0.5173 0.0000
vt 0.6697 0.5173 0.0000
vt 0.7560 0.5012 0.0000
vt 0.7592 0.5176 0.0000
vt 0.7602 0.5496 0.0000
vt 0.7280 0.5495 0.0000
vt 0.6696 0.5495 0.0000
vt 0.7279 0.5965 0.0000
vt 0.6695 0.5965 0.0000
vt 0.7606 0.5966 0.0000
vt 0.7607 0.6531 0.0000
vt 0.7279 0.6531 0.0000
vt 0.6694 0.6531 0.0000
vt 0.5840 0.4989 0.0000
vt 0.5839 0.5174 0.0000
vt 0.5838 0.5495 0.0000
vt 0.5838 0.5965 0.0000
vt 0.5837 0.6531 0.0000
vt 0.7559 0.8049 0.0000
vt 0.7273 0.8064 0.0000
vt 0.7278 0.7888 0.0000
vt 0.7591 0.7885 0.0000
vt 0.6696 0.8071 0.0000
vt 0.6696 0.7889 0.0000
vt 0.6696 0.7568 0.0000
vt 0.7279 0.7567 0.0000
vt 0.7602 0.7566 0.0000
vt 0.5839 0.8075 0.0000
vt 0.5839 0.7889 0.0000
vt 0.4803 0.8076 0.0000
vt 0.4803 0.7890 0.0000
vt 0.4803 0.7567 0.0000
vt 0.5838 0.7567 0.0000
vt 0.7279 0.7097 0.0000
vt 0.7606 0.7096 0.0000
vt 0.6695 0.7097 0.0000
vt 0.5838 0.7097 0.0000
vt 0.4803 0.7097 0.0000
vt 0.2911 0.8071 0.0000
vt 0.2337 0.8063 0.0000
vt 0.2332 0.7888 0.0000
vt 0.2911 0.7889 0.0000
vt 0.2053 0.8048 0.0000
vt 0.2022 0.7885 0.0000
vt 0.2012 0.7566 0.0000
vt 0.2331 0.7567 0.0000
vt 0.2912 0.7567 0.0000
vt 0.2331 0.7097 0.0000
vt 0.2913 0.7097 0.0000
vt 0.2008 0.7096 0.0000
vt 0.3768 0.8075 0.0000
vt 0.3768 0.7889 0.0000
vt 0.3768 0.7567 0.0000
vt 0.3769 0.7097 0.0000
vt 0.2332 0.3404 0.0000
vt 0.2020 0.3379 0.0000
vt 0.2910 0.3418 0.0000
vt 0.2907 0.3593 0.0000
vt 0.2323 0.3581 0.0000
vt 0.1992 0.3564 0.0000
vt 0.3767 0.3422 0.0000
vt 0.4803 0.3422 0.0000
vt 0.4803 0.3597 0.0000
vt 0.3766 0.3596 0.0000
vt 0.2316 0.3836 0.0000
vt 0.1979 0.3829 0.0000
vt 0.2904 0.3843 0.0000
vt 0.2902 0.4143 0.0000
vt 0.2313 0.4142 0.0000
vt 0.1976 0.4141 0.0000
vt 0.3765 0.3845 0.0000
vt 0.4803 0.3845 0.0000
vt 0.4803 0.4142 0.0000
vt 0.3764 0.4142 0.0000
vt 0.7278 0.3404 0.0000
vt 0.6697 0.3418 0.0000
vt 0.7594 0.3379 0.0000
vt 0.7623 0.3564 0.0000
vt 0.7288 0.3581 0.0000
vt 0.6701 0.3593 0.0000
vt 0.7295 0.3836 0.0000
vt 0.6704 0.3843 0.0000
vt 0.7636 0.3829 0.0000
vt 0.7640 0.4141 0.0000
vt 0.7298 0.4142 0.0000
vt 0.6706 0.4142 0.0000
vt 0.5840 0.3422 0.0000
vt 0.5841 0.3596 0.0000
vt 0.5842 0.3845 0.0000
vt 0.5843 0.4142 0.0000
vt 0.7283 0.4880 0.0000
vt 0.7601 0.4906 0.0000
vt 0.6700 0.4866 0.0000
vt 0.6703 0.4692 0.0000
vt 0.7292 0.4703 0.0000
vt 0.7627 0.4718 0.0000
vt 0.5841 0.4862 0.0000
vt 0.4803 0.4862 0.0000
vt 0.4803 0.4688 0.0000
vt 0.5842 0.4688 0.0000
vt 0.7297 0.4448 0.0000
vt 0.7638 0.4454 0.0000
vt 0.6705 0.4442 0.0000
vt 0.5843 0.4440 0.0000
vt 0.4803 0.4440 0.0000
vt 0.2327 0.4880 0.0000
vt 0.2908 0.4866 0.0000
vt 0.2012 0.4906 0.0000
vt 0.1987 0.4718 0.0000
vt 0.2319 0.4703 0.0000
vt 0.2905 0.4692 0.0000
vt 0.2314 0.4448 0.0000
vt 0.2903 0.4442 0.0000
vt 0.1977 0.4454 0.0000
vt 0.3766 0.4862 0.0000
vt 0.3765 0.4688 0.0000
vt 0.3764 0.4440 0.0000
vt 0.9347 0.4980 0.0000
vt 0.9363 0.5145 0.0000
vt 0.9214 0.5170 0.0000
vt 0.9244 0.4965 0.0000
vt 0.9398 0.5474 0.0000
vt 0.9224 0.5489 0.0000
vt 0.9042 0.5494 0.0000
vt 0.9039 0.5169 0.0000
vt 0.9061 0.4941 0.0000
vt 0.9421 0.5955 0.0000
vt 0.9239 0.5961 0.0000
vt 0.9421 0.6531 0.0000
vt 0.9239 0.6531 0.0000
vt 0.9056 0.6531 0.0000
vt 0.9053 0.5963 0.0000
vt 0.8789 0.5163 0.0000
vt 0.8797 0.4927 0.0000
vt 0.8791 0.5492 0.0000
vt 0.8493 0.5491 0.0000
vt 0.8485 0.5161 0.0000
vt 0.8483 0.4922 0.0000
vt 0.8801 0.5964 0.0000
vt 0.8805 0.6531 0.0000
vt 0.8506 0.6531 0.0000
vt 0.8502 0.5964 0.0000
vt 0.9398 0.7589 0.0000
vt 0.9362 0.7918 0.0000
vt 0.9213 0.7892 0.0000
vt 0.9223 0.7573 0.0000
vt 0.9346 0.8082 0.0000
vt 0.9243 0.8097 0.0000
vt 0.9060 0.8121 0.0000
vt 0.9038 0.7893 0.0000
vt 0.9041 0.7569 0.0000
vt 0.8788 0.7899 0.0000
vt 0.8791 0.7570 0.0000
vt 0.8796 0.8135 0.0000
vt 0.8482 0.8140 0.0000
vt 0.8484 0.7901 0.0000
vt 0.8492 0.7571 0.0000
vt 0.9421 0.7107 0.0000
vt 0.9239 0.7102 0.0000
vt 0.9053 0.7099 0.0000
vt 0.8801 0.7098 0.0000
vt 0.8502 0.7098 0.0000
vt 0.7746 0.7880 0.0000
vt 0.7688 0.8079 0.0000
vt 0.7770 0.7562 0.0000
vt 0.7946 0.7564 0.0000
vt 0.7925 0.7888 0.0000
vt 0.7890 0.8114 0.0000
vt 0.7780 0.7095 0.0000
vt 0.7783 0.6531 0.0000
vt 0.7962 0.6531 0.0000
vt 0.7958 0.7095 0.0000
vt 0.8179 0.7898 0.0000
vt 0.8164 0.8134 0.0000
vt 0.8194 0.7569 0.0000
vt 0.8205 0.7097 0.0000
vt 0.8209 0.6531 0.0000
vt 0.7747 0.5182 0.0000
vt 0.7770 0.5500 0.0000
vt 0.7690 0.4982 0.0000
vt 0.7891 0.4947 0.0000
vt 0.7926 0.5174 0.0000
vt 0.7947 0.5498 0.0000
vt 0.8180 0.5164 0.0000
vt 0.8195 0.5493 0.0000
vt 0.8165 0.4928 0.0000
vt 0.7781 0.5967 0.0000
vt 0.7959 0.5966 0.0000
vt 0.8205 0.5965 0.0000
vt 0.7558 0.9732 0.0000
vt 0.7282 0.9755 0.0000
vt 0.7285 0.9639 0.0000
vt 0.7602 0.9642 0.0000
vt 0.6704 0.9778 0.0000
vt 0.6703 0.9650 0.0000
vt 0.6703 0.9472 0.0000
vt 0.7290 0.9464 0.0000
vt 0.7625 0.9468 0.0000
vt 0.5844 0.9794 0.0000
vt 0.5843 0.9663 0.0000
vt 0.4803 0.9800 0.0000
vt 0.4803 0.9668 0.0000
vt 0.4803 0.9489 0.0000
vt 0.5842 0.9484 0.0000
vt 0.7293 0.9213 0.0000
vt 0.7634 0.9214 0.0000
vt 0.6703 0.9220 0.0000
vt 0.6703 0.8919 0.0000
vt 0.7294 0.8910 0.0000
vt 0.7636 0.8908 0.0000
vt 0.5842 0.9231 0.0000
vt 0.4803 0.9236 0.0000
vt 0.4803 0.8935 0.0000
vt 0.5842 0.8930 0.0000
vt 0.2903 0.9778 0.0000
vt 0.2327 0.9755 0.0000
vt 0.2325 0.9638 0.0000
vt 0.2905 0.9650 0.0000
vt 0.2053 0.9732 0.0000
vt 0.2011 0.9642 0.0000
vt 0.1989 0.9468 0.0000
vt 0.2320 0.9464 0.0000
vt 0.2905 0.9472 0.0000
vt 0.2317 0.9212 0.0000
vt 0.2904 0.9220 0.0000
vt 0.1981 0.9214 0.0000
vt 0.1979 0.8908 0.0000
vt 0.2316 0.8910 0.0000
vt 0.2904 0.8919 0.0000
vt 0.3763 0.9794 0.0000
vt 0.3764 0.9662 0.0000
vt 0.3764 0.9484 0.0000
vt 0.3765 0.9231 0.0000
vt 0.3765 0.8930 0.0000
vt 0.2329 0.8178 0.0000
vt 0.2014 0.8152 0.0000
vt 0.2910 0.8195 0.0000
vt 0.2907 0.8369 0.0000
vt 0.2322 0.8353 0.0000
vt 0.1990 0.8338 0.0000
vt 0.3767 0.8204 0.0000
vt 0.4803 0.8206 0.0000
vt 0.4803 0.8383 0.0000
vt 0.3766 0.8380 0.0000
vt 0.2317 0.8607 0.0000
vt 0.1981 0.8600 0.0000
vt 0.2905 0.8619 0.0000
vt 0.3766 0.8630 0.0000
vt 0.4803 0.8634 0.0000
vt 0.7281 0.8179 0.0000
vt 0.6698 0.8195 0.0000
vt 0.7599 0.8153 0.0000
vt 0.7624 0.8338 0.0000
vt 0.7289 0.8354 0.0000
vt 0.6700 0.8369 0.0000
vt 0.7293 0.8607 0.0000
vt 0.6702 0.8619 0.0000
vt 0.7634 0.8600 0.0000
vt 0.5839 0.8204 0.0000
vt 0.5840 0.8380 0.0000
vt 0.5841 0.8630 0.0000
vt 0.0273 0.8080 0.0000
vt 0.0257 0.7916 0.0000
vt 0.0404 0.7891 0.0000
vt 0.0375 0.8095 0.0000
vt 0.0222 0.7588 0.0000
vt 0.0394 0.7573 0.0000
vt 0.0575 0.7569 0.0000
vt 0.0578 0.7893 0.0000
vt 0.0558 0.8119 0.0000
vt 0.0200 0.7106 0.0000
vt 0.0379 0.7102 0.0000
vt 0.0201 0.6531 0.0000
vt 0.0379 0.6531 0.0000
vt 0.0562 0.6531 0.0000
vt 0.0564 0.7099 0.0000
vt 0.0829 0.7899 0.0000
vt 0.0821 0.8133 0.0000
vt 0.0826 0.7570 0.0000
vt 0.1125 0.7571 0.0000
vt 0.1132 0.7901 0.0000
vt 0.1135 0.8137 0.0000
vt 0.0816 0.7099 0.0000
vt 0.0813 0.6531 0.0000
vt 0.1111 0.6531 0.0000
vt 0.1115 0.7098 0.0000
vt 0.0222 0.5475 0.0000
vt 0.0256 0.5147 0.0000
vt 0.0404 0.5171 0.0000
vt 0.0394 0.5490 0.0000
vt 0.0272 0.4983 0.0000
vt 0.0374 0.4967 0.0000
vt 0.0557 0.4944 0.0000
vt 0.0578 0.5170 0.0000
vt 0.0575 0.5493 0.0000
vt 0.0828 0.5164 0.0000
vt 0.0825 0.5492 0.0000
vt 0.0821 0.4929 0.0000
vt 0.1134 0.4925 0.0000
vt 0.1131 0.5161 0.0000
vt 0.1124 0.5491 0.0000
vt 0.0200 0.5956 0.0000
vt 0.0379 0.5961 0.0000
vt 0.0564 0.5963 0.0000
vt 0.0816 0.5964 0.0000
vt 0.1115 0.5964 0.0000
vt 0.1869 0.5182 0.0000
vt 0.1924 0.4983 0.0000
vt 0.1846 0.5499 0.0000
vt 0.1670 0.5497 0.0000
vt 0.1691 0.5174 0.0000
vt 0.1724 0.4949 0.0000
vt 0.1837 0.5967 0.0000
vt 0.1834 0.6531 0.0000
vt 0.1656 0.6531 0.0000
vt 0.1659 0.5966 0.0000
vt 0.1436 0.5164 0.0000
vt 0.1450 0.4930 0.0000
vt 0.1423 0.5493 0.0000
vt 0.1412 0.5965 0.0000
vt 0.1409 0.6531 0.0000
vt 0.1870 0.7880 0.0000
vt 0.1847 0.7562 0.0000
vt 0.1925 0.8078 0.0000
vt 0.1725 0.8113 0.0000
vt 0.1692 0.7888 0.0000
vt 0.1671 0.7564 0.0000
vt 0.1437 0.7898 0.0000
vt 0.1423 0.7569 0.0000
vt 0.1451 0.8132 0.0000
vt 0.1837 0.7095 0.0000
vt 0.1659 0.7096 0.0000
vt 0.1412 0.7097 0.0000
# 441 texture coords

o Drug_Package
g Drug_Package
usemtl wire_057008136
s 1
f 1/1/1 2/2/2 3/3/3 4/4/4 
f 2/2/2 5/5/5 6/6/6 3/3/3 
f 7/7/7 8/8/8 3/3/3 6/6/6 
f 8/8/8 9/9/9 4/4/4 3/3/3 
f 5/5/5 10/10/10 11/11/11 6/6/6 
f 10/10/10 12/12/12 13/13/13 11/11/11 
f 14/14/14 15/15/15 11/11/11 13/13/13 
f 15/15/15 7/7/7 6/6/6 11/11/11 
f 9/9/9 8/8/8 16/16/16 17/17/17 
f 8/8/8 7/7/7 18/18/18 16/16/16 
f 19/19/19 20/20/20 16/16/16 18/18/18 
f 20/20/20 21/21/21 17/17/17 16/16/16 
f 7/7/7 15/15/15 22/22/22 18/18/18 
f 15/15/15 14/14/14 23/23/23 22/22/22 
f 24/24/24 25/25/25 22/22/22 23/23/23 
f 25/25/25 19/19/19 18/18/18 22/22/22 
f 26/26/26 27/27/27 28/28/28 29/29/29 
f 27/27/27 30/30/30 31/31/31 28/28/28 
f 32/32/32 33/33/33 28/28/28 31/31/31 
f 33/33/33 34/34/34 29/29/29 28/28/28 
f 34/34/34 33/33/33 35/35/35 36/36/36 
f 33/33/33 32/32/32 37/37/37 35/35/35 
f 38/38/38 39/39/39 35/35/35 37/37/37 
f 39/39/39 40/40/40 36/36/36 35/35/35 
f 12/12/12 41/41/41 42/42/42 13/13/13 
f 41/41/41 26/26/26 29/29/29 42/42/42 
f 34/34/34 43/43/43 42/42/42 29/29/29 
f 43/43/43 14/14/14 13/13/13 42/42/42 
f 14/14/14 43/43/43 44/44/44 23/23/23 
f 43/43/43 34/34/34 36/36/36 44/44/44 
f 40/40/40 45/45/45 44/44/44 36/36/36 
f 45/45/45 24/24/24 23/23/23 44/44/44 
f 46/46/46 47/47/47 48/48/48 49/49/49 
f 47/47/47 50/50/50 51/51/51 48/48/48 
f 52/52/52 53/53/53 48/48/48 51/51/51 
f 53/53/53 54/54/54 49/49/49 48/48/48 
f 50/50/50 55/55/55 56/56/56 51/51/51 
f 55/55/55 57/57/57 58/58/58 56/56/56 
f 59/59/59 60/60/60 56/56/56 58/58/58 
f 60/60/60 52/52/52 51/51/51 56/56/56 
f 54/54/54 53/53/53 61/61/61 62/62/62 
f 53/53/53 52/52/52 63/63/63 61/61/61 
f 40/40/40 39/39/39 61/61/61 63/63/63 
f 39/39/39 38/38/38 62/62/62 61/61/61 
f 52/52/52 60/60/60 64/64/64 63/63/63 
f 60/60/60 59/59/59 65/65/65 64/64/64 
f 24/24/24 45/45/45 64/64/64 65/65/65 
f 45/45/45 40/40/40 63/63/63 64/64/64 
f 66/66/66 67/67/67 68/68/68 69/69/69 
f 67/67/67 70/70/70 71/71/71 68/68/68 
f 72/72/72 73/73/73 68/68/68 71/71/71 
f 73/73/73 74/74/74 69/69/69 68/68/68 
f 74/74/74 73/73/73 75/75/75 76/76/76 
f 73/73/73 72/72/72 77/77/77 75/75/75 
f 21/21/21 20/20/20 75/75/75 77/77/77 
f 20/20/20 19/19/19 76/76/76 75/75/75 
f 57/57/57 78/78/78 79/79/79 58/58/58 
f 78/78/78 66/66/66 69/69/69 79/79/79 
f 74/74/74 80/80/80 79/79/79 69/69/69 
f 80/80/80 59/59/59 58/58/58 79/79/79 
f 59/59/59 80/80/80 81/81/81 65/65/65 
f 80/80/80 74/74/74 76/76/76 81/81/81 
f 19/19/19 25/25/25 81/81/81 76/76/76 
f 25/25/25 24/24/24 65/65/65 81/81/81 
f 82/82/82 83/83/83 84/84/84 85/85/85 
f 83/83/83 86/86/86 87/87/87 84/84/84 
f 88/88/88 89/89/89 84/84/84 87/87/87 
f 89/89/89 90/90/90 85/85/85 84/84/84 
f 86/86/86 91/91/91 92/92/92 87/87/87 
f 91/91/91 93/93/93 94/94/94 92/92/92 
f 95/95/95 96/96/96 92/92/92 94/94/94 
f 96/96/96 88/88/88 87/87/87 92/92/92 
f 90/90/90 89/89/89 97/97/97 98/98/98 
f 89/89/89 88/88/88 99/99/99 97/97/97 
f 100/100/100 101/101/101 97/97/97 99/99/99 
f 101/101/101 102/102/102 98/98/98 97/97/97 
f 88/88/88 96/96/96 103/103/103 99/99/99 
f 96/96/96 95/95/95 104/104/104 103/103/103 
f 105/105/105 106/106/106 103/103/103 104/104/104 
f 106/106/106 100/100/100 99/99/99 103/103/103 
f 107/107/107 108/108/108 109/109/109 110/110/110 
f 108/108/108 111/111/111 112/112/112 109/109/109 
f 113/113/113 114/114/114 109/109/109 112/112/112 
f 114/114/114 115/115/115 110/110/110 109/109/109 
f 115/115/115 114/114/114 116/116/116 117/117/117 
f 114/114/114 113/113/113 118/118/118 116/116/116 
f 119/119/119 120/120/120 116/116/116 118/118/118 
f 120/120/120 121/121/121 117/117/117 116/116/116 
f 93/93/93 122/122/122 123/123/123 94/94/94 
f 122/122/122 107/107/107 110/110/110 123/123/123 
f 115/115/115 124/124/124 123/123/123 110/110/110 
f 124/124/124 95/95/95 94/94/94 123/123/123 
f 95/95/95 124/124/124 125/125/125 104/104/104 
f 124/124/124 115/115/115 117/117/117 125/125/125 
f 121/121/121 126/126/126 125/125/125 117/117/117 
f 126/126/126 105/105/105 104/104/104 125/125/125 
f 127/127/127 128/128/128 129/129/129 130/130/130 
f 128/128/128 131/131/131 132/132/132 129/129/129 
f 133/133/133 134/134/134 129/129/129 132/132/132 
f 134/134/134 135/135/135 130/130/130 129/129/129 
f 131/131/131 136/136/136 137/137/137 132/132/132 
f 136/136/136 138/138/138 139/139/139 137/137/137 
f 140/140/140 141/141/141 137/137/137 139/139/139 
f 141/141/141 133/133/133 132/132/132 137/137/137 
f 135/135/135 134/134/134 142/142/142 143/143/143 
f 134/134/134 133/133/133 144/144/144 142/142/142 
f 121/121/121 120/120/120 142/142/142 144/144/144 
f 120/120/120 119/119/119 143/143/143 142/142/142 
f 133/133/133 141/141/141 145/145/145 144/144/144 
f 141/141/141 140/140/140 146/146/146 145/145/145 
f 105/105/105 126/126/126 145/145/145 146/146/146 
f 126/126/126 121/121/121 144/144/144 145/145/145 
f 147/147/147 148/148/148 149/149/149 150/150/150 
f 148/148/148 151/151/151 152/152/152 149/149/149 
f 153/153/153 154/154/154 149/149/149 152/152/152 
f 154/154/154 155/155/155 150/150/150 149/149/149 
f 155/155/155 154/154/154 156/156/156 157/157/157 
f 154/154/154 153/153/153 158/158/158 156/156/156 
f 102/102/102 101/101/101 156/156/156 158/158/158 
f 101/101/101 100/100/100 157/157/157 156/156/156 
f 138/138/138 159/159/159 160/160/160 139/139/139 
f 159/159/159 147/147/147 150/150/150 160/160/160 
f 155/155/155 161/161/161 160/160/160 150/150/150 
f 161/161/161 140/140/140 139/139/139 160/160/160 
f 140/140/140 161/161/161 162/162/162 146/146/146 
f 161/161/161 155/155/155 157/157/157 162/162/162 
f 100/100/100 106/106/106 162/162/162 157/157/157 
f 106/106/106 105/105/105 146/146/146 162/162/162 
f 1/1/1 4/4/4 163/163/163 164/164/164 
f 4/4/4 9/9/9 165/165/165 163/163/163 
f 166/166/166 167/167/167 163/163/163 165/165/165 
f 167/167/167 168/168/168 164/164/164 163/163/163 
f 9/9/9 17/17/17 169/169/169 165/165/165 
f 17/17/17 21/21/21 170/170/170 169/169/169 
f 171/171/171 172/172/172 169/169/169 170/170/170 
f 172/172/172 166/166/166 165/165/165 169/169/169 
f 168/168/168 167/167/167 173/173/173 174/174/174 
f 167/167/167 166/166/166 175/175/175 173/173/173 
f 176/176/176 177/177/177 173/173/173 175/175/175 
f 177/177/177 178/178/178 174/174/174 173/173/173 
f 166/166/166 172/172/172 179/179/179 175/175/175 
f 172/172/172 171/171/171 180/180/180 179/179/179 
f 181/181/181 182/182/182 179/179/179 180/180/180 
f 182/182/182 176/176/176 175/175/175 179/179/179 
f 72/72/72 71/71/71 183/183/183 184/184/184 
f 71/71/71 70/70/70 185/185/185 183/183/183 
f 186/186/186 187/187/187 183/183/183 185/185/185 
f 187/187/187 188/188/188 184/184/184 183/183/183 
f 188/188/188 187/187/187 189/189/189 190/190/190 
f 187/187/187 186/186/186 191/191/191 189/189/189 
f 192/192/192 193/193/193 189/189/189 191/191/191 
f 193/193/193 194/194/194 190/190/190 189/189/189 
f 21/21/21 77/77/77 195/195/195 170/170/170 
f 77/77/77 72/72/72 184/184/184 195/195/195 
f 188/188/188 196/196/196 195/195/195 184/184/184 
f 196/196/196 171/171/171 170/170/170 195/195/195 
f 171/171/171 196/196/196 197/197/197 180/180/180 
f 196/196/196 188/188/188 190/190/190 197/197/197 
f 194/194/194 198/198/198 197/197/197 190/190/190 
f 198/198/198 181/181/181 180/180/180 197/197/197 
f 111/111/111 108/108/108 199/199/199 200/200/200 
f 108/108/108 107/107/107 201/201/201 199/199/199 
f 202/202/202 203/203/203 199/199/199 201/201/201 
f 203/203/203 204/204/204 200/200/200 199/199/199 
f 107/107/107 122/122/122 205/205/205 201/201/201 
f 122/122/122 93/93/93 206/206/206 205/205/205 
f 207/207/207 208/208/208 205/205/205 206/206/206 
f 208/208/208 202/202/202 201/201/201 205/205/205 
f 204/204/204 203/203/203 209/209/209 210/210/210 
f 203/203/203 202/202/202 211/211/211 209/209/209 
f 194/194/194 193/193/193 209/209/209 211/211/211 
f 193/193/193 192/192/192 210/210/210 209/209/209 
f 202/202/202 208/208/208 212/212/212 211/211/211 
f 208/208/208 207/207/207 213/213/213 212/212/212 
f 181/181/181 198/198/198 212/212/212 213/213/213 
f 198/198/198 194/194/194 211/211/211 212/212/212 
f 86/86/86 83/83/83 214/214/214 215/215/215 
f 83/83/83 82/82/82 216/216/216 214/214/214 
f 217/217/217 218/218/218 214/214/214 216/216/216 
f 218/218/218 219/219/219 215/215/215 214/214/214 
f 219/219/219 218/218/218 220/220/220 221/221/221 
f 218/218/218 217/217/217 222/222/222 220/220/220 
f 178/178/178 177/177/177 220/220/220 222/222/222 
f 177/177/177 176/176/176 221/221/221 220/220/220 
f 93/93/93 91/91/91 223/223/223 206/206/206 
f 91/91/91 86/86/86 215/215/215 223/223/223 
f 219/219/219 224/224/224 223/223/223 215/215/215 
f 224/224/224 207/207/207 206/206/206 223/223/223 
f 207/207/207 224/224/224 225/225/225 213/213/213 
f 224/224/224 219/219/219 221/221/221 225/225/225 
f 176/176/176 182/182/182 225/225/225 221/221/221 
f 182/182/182 181/181/181 213/213/213 225/225/225 
f 70/226/70 67/227/67 226/228/226 185/229/185 
f 67/227/67 66/230/66 227/231/227 226/228/226 
f 228/232/228 229/233/229 226/228/226 227/231/227 
f 229/233/229 186/234/186 185/229/185 226/228/226 
f 66/230/66 78/235/78 230/236/230 227/231/227 
f 78/235/78 57/237/57 231/238/231 230/236/230 
f 232/239/232 233/240/233 230/236/230 231/238/231 
f 233/240/233 228/232/228 227/231/227 230/236/230 
f 186/234/186 229/233/229 234/241/234 191/242/191 
f 229/233/229 228/232/228 235/243/235 234/241/234 
f 236/244/236 237/245/237 234/241/234 235/243/235 
f 237/245/237 192/246/192 191/242/191 234/241/234 
f 228/232/228 233/240/233 238/247/238 235/243/235 
f 233/240/233 232/239/232 239/248/239 238/247/238 
f 240/249/240 241/250/241 238/247/238 239/248/239 
f 241/250/241 236/244/236 235/243/235 238/247/238 
f 50/251/50 47/252/47 242/253/242 243/254/243 
f 47/252/47 46/255/46 244/256/244 242/253/242 
f 245/257/245 246/258/246 242/253/242 244/256/244 
f 246/258/246 247/259/247 243/254/243 242/253/242 
f 247/259/247 246/258/246 248/260/248 249/261/249 
f 246/258/246 245/257/245 250/262/250 248/260/248 
f 251/263/251 252/264/252 248/260/248 250/262/250 
f 252/264/252 253/265/253 249/261/249 248/260/248 
f 57/237/57 55/266/55 254/267/254 231/238/231 
f 55/266/55 50/251/50 243/254/243 254/267/254 
f 247/259/247 255/268/255 254/267/254 243/254/243 
f 255/268/255 232/239/232 231/238/231 254/267/254 
f 232/239/232 255/268/255 256/269/256 239/248/239 
f 255/268/255 247/259/247 249/261/249 256/269/256 
f 253/265/253 257/270/257 256/269/256 249/261/249 
f 257/270/257 240/249/240 239/248/239 256/269/256 
f 127/127/127 130/130/130 258/271/258 259/272/259 
f 130/130/130 135/135/135 260/273/260 258/271/258 
f 261/274/261 262/275/262 258/271/258 260/273/260 
f 262/275/262 263/276/263 259/272/259 258/271/258 
f 135/135/135 143/143/143 264/277/264 260/273/260 
f 143/143/143 119/119/119 265/278/265 264/277/264 
f 266/279/266 267/280/267 264/277/264 265/278/265 
f 267/280/267 261/274/261 260/273/260 264/277/264 
f 263/276/263 262/275/262 268/281/268 269/282/269 
f 262/275/262 261/274/261 270/283/270 268/281/268 
f 253/265/253 252/264/252 268/281/268 270/283/270 
f 252/264/252 251/263/251 269/282/269 268/281/268 
f 261/274/261 267/280/267 271/284/271 270/283/270 
f 267/280/267 266/279/266 272/285/272 271/284/271 
f 240/249/240 257/270/257 271/284/271 272/285/272 
f 257/270/257 253/265/253 270/283/270 271/284/271 
f 113/113/113 112/112/112 273/286/273 274/287/274 
f 112/112/112 111/111/111 200/288/200 273/286/273 
f 204/289/204 275/290/275 273/286/273 200/288/200 
f 275/290/275 276/291/276 274/287/274 273/286/273 
f 276/291/276 275/290/275 277/292/277 278/293/278 
f 275/290/275 204/289/204 210/294/210 277/292/277 
f 192/246/192 237/245/237 277/292/277 210/294/210 
f 237/245/237 236/244/236 278/293/278 277/292/277 
f 119/119/119 118/118/118 279/295/279 265/278/265 
f 118/118/118 113/113/113 274/287/274 279/295/279 
f 276/291/276 280/296/280 279/295/279 274/287/274 
f 280/296/280 266/279/266 265/278/265 279/295/279 
f 266/279/266 280/296/280 281/297/281 272/285/272 
f 280/296/280 276/291/276 278/293/278 281/297/281 
f 236/244/236 241/250/241 281/297/281 278/293/278 
f 241/250/241 240/249/240 272/285/272 281/297/281 
f 46/298/46 49/299/49 282/300/282 244/301/244 
f 49/299/49 54/302/54 283/303/283 282/300/282 
f 284/304/284 285/305/285 282/300/282 283/303/283 
f 285/305/285 245/306/245 244/301/244 282/300/282 
f 54/302/54 62/307/62 286/308/286 283/303/283 
f 62/307/62 38/309/38 287/310/287 286/308/286 
f 288/311/288 289/312/289 286/308/286 287/310/287 
f 289/312/289 284/304/284 283/303/283 286/308/286 
f 245/306/245 285/305/285 290/313/290 250/314/250 
f 285/305/285 284/304/284 291/315/291 290/313/290 
f 292/316/292 293/317/293 290/313/290 291/315/291 
f 293/317/293 251/318/251 250/314/250 290/313/290 
f 284/304/284 289/312/289 294/319/294 291/315/291 
f 289/312/289 288/311/288 295/320/295 294/319/294 
f 296/321/296 297/322/297 294/319/294 295/320/295 
f 297/322/297 292/316/292 291/315/291 294/319/294 
f 32/323/32 31/324/31 298/325/298 299/326/299 
f 31/324/31 30/327/30 300/328/300 298/325/298 
f 301/329/301 302/330/302 298/325/298 300/328/300 
f 302/330/302 303/331/303 299/326/299 298/325/298 
f 303/331/303 302/330/302 304/332/304 305/333/305 
f 302/330/302 301/329/301 306/334/306 304/332/304 
f 307/335/307 308/336/308 304/332/304 306/334/306 
f 308/336/308 309/337/309 305/333/305 304/332/304 
f 38/309/38 37/338/37 310/339/310 287/310/287 
f 37/338/37 32/323/32 299/326/299 310/339/310 
f 303/331/303 311/340/311 310/339/310 299/326/299 
f 311/340/311 288/311/288 287/310/287 310/339/310 
f 288/311/288 311/340/311 312/341/312 295/320/295 
f 311/340/311 303/331/303 305/333/305 312/341/312 
f 309/337/309 313/342/313 312/341/312 305/333/305 
f 313/342/313 296/321/296 295/320/295 312/341/312 
f 151/151/151 148/148/148 314/343/314 315/344/315 
f 148/148/148 147/147/147 316/345/316 314/343/314 
f 317/346/317 318/347/318 314/343/314 316/345/316 
f 318/347/318 319/348/319 315/344/315 314/343/314 
f 147/147/147 159/159/159 320/349/320 316/345/316 
f 159/159/159 138/138/138 321/350/321 320/349/320 
f 322/351/322 323/352/323 320/349/320 321/350/321 
f 323/352/323 317/346/317 316/345/316 320/349/320 
f 319/348/319 318/347/318 324/353/324 325/354/325 
f 318/347/318 317/346/317 326/355/326 324/353/324 
f 309/337/309 308/336/308 324/353/324 326/355/326 
f 308/336/308 307/335/307 325/354/325 324/353/324 
f 317/346/317 323/352/323 327/356/327 326/355/326 
f 323/352/323 322/351/322 328/357/328 327/356/327 
f 296/321/296 313/342/313 327/356/327 328/357/328 
f 313/342/313 309/337/309 326/355/326 327/356/327 
f 131/131/131 128/128/128 329/358/329 330/359/330 
f 128/128/128 127/127/127 259/360/259 329/358/329 
f 263/361/263 331/362/331 329/358/329 259/360/259 
f 331/362/331 332/363/332 330/359/330 329/358/329 
f 332/363/332 331/362/331 333/364/333 334/365/334 
f 331/362/331 263/361/263 269/366/269 333/364/333 
f 251/318/251 293/317/293 333/364/333 269/366/269 
f 293/317/293 292/316/292 334/365/334 333/364/333 
f 138/138/138 136/136/136 335/367/335 321/350/321 
f 136/136/136 131/131/131 330/359/330 335/367/335 
f 332/363/332 336/368/336 335/367/335 330/359/330 
f 336/368/336 322/351/322 321/350/321 335/367/335 
f 322/351/322 336/368/336 337/369/337 328/357/328 
f 336/368/336 332/363/332 334/365/334 337/369/337 
f 292/316/292 297/322/297 337/369/337 334/365/334 
f 297/322/297 296/321/296 328/357/328 337/369/337 
f 30/370/30 27/371/27 338/372/338 300/373/300 
f 27/371/27 26/374/26 339/375/339 338/372/338 
f 340/376/340 341/377/341 338/372/338 339/375/339 
f 341/377/341 301/378/301 300/373/300 338/372/338 
f 26/374/26 41/379/41 342/380/342 339/375/339 
f 41/379/41 12/381/12 343/382/343 342/380/342 
f 344/383/344 345/384/345 342/380/342 343/382/343 
f 345/384/345 340/376/340 339/375/339 342/380/342 
f 301/378/301 341/377/341 346/385/346 306/386/306 
f 341/377/341 340/376/340 347/387/347 346/385/346 
f 348/388/348 349/389/349 346/385/346 347/387/347 
f 349/389/349 307/390/307 306/386/306 346/385/346 
f 340/376/340 345/384/345 350/391/350 347/387/347 
f 345/384/345 344/383/344 351/392/351 350/391/350 
f 352/393/352 353/394/353 350/391/350 351/392/351 
f 353/394/353 348/388/348 347/387/347 350/391/350 
f 5/395/5 2/396/2 354/397/354 355/398/355 
f 2/396/2 1/399/1 164/400/164 354/397/354 
f 168/401/168 356/402/356 354/397/354 164/400/164 
f 356/402/356 357/403/357 355/398/355 354/397/354 
f 357/403/357 356/402/356 358/404/358 359/405/359 
f 356/402/356 168/401/168 174/406/174 358/404/358 
f 178/407/178 360/408/360 358/404/358 174/406/174 
f 360/408/360 361/409/361 359/405/359 358/404/358 
f 12/381/12 10/410/10 362/411/362 343/382/343 
f 10/410/10 5/395/5 355/398/355 362/411/362 
f 357/403/357 363/412/363 362/411/362 355/398/355 
f 363/412/363 344/383/344 343/382/343 362/411/362 
f 344/383/344 363/412/363 364/413/364 351/392/351 
f 363/412/363 357/403/357 359/405/359 364/413/364 
f 361/409/361 365/414/365 364/413/364 359/405/359 
f 365/414/365 352/393/352 351/392/351 364/413/364 
f 82/82/82 85/85/85 366/415/366 216/416/216 
f 85/85/85 90/90/90 367/417/367 366/415/366 
f 368/418/368 369/419/369 366/415/366 367/417/367 
f 369/419/369 217/420/217 216/416/216 366/415/366 
f 90/90/90 98/98/98 370/421/370 367/417/367 
f 98/98/98 102/102/102 371/422/371 370/421/370 
f 372/423/372 373/424/373 370/421/370 371/422/371 
f 373/424/373 368/418/368 367/417/367 370/421/370 
f 217/420/217 369/419/369 374/425/374 222/426/222 
f 369/419/369 368/418/368 375/427/375 374/425/374 
f 361/409/361 360/408/360 374/425/374 375/427/375 
f 360/408/360 178/407/178 222/426/222 374/425/374 
f 368/418/368 373/424/373 376/428/376 375/427/375 
f 373/424/373 372/423/372 377/429/377 376/428/376 
f 352/393/352 365/414/365 376/428/376 377/429/377 
f 365/414/365 361/409/361 375/427/375 376/428/376 
f 153/153/153 152/152/152 378/430/378 379/431/379 
f 152/152/152 151/151/151 315/432/315 378/430/378 
f 319/433/319 380/434/380 378/430/378 315/432/315 
f 380/434/380 381/435/381 379/431/379 378/430/378 
f 381/435/381 380/434/380 382/436/382 383/437/383 
f 380/434/380 319/433/319 325/438/325 382/436/382 
f 307/390/307 349/389/349 382/436/382 325/438/325 
f 349/389/349 348/388/348 383/437/383 382/436/382 
f 102/102/102 158/158/158 384/439/384 371/422/371 
f 158/158/158 153/153/153 379/431/379 384/439/384 
f 381/435/381 385/440/385 384/439/384 379/431/379 
f 385/440/385 372/423/372 371/422/371 384/439/384 
f 372/423/372 385/440/385 386/441/386 377/429/377 
f 385/440/385 381/435/381 383/437/383 386/441/386 
f 348/388/348 353/394/353 386/441/386 383/437/383 
f 353/394/353 352/393/352 377/429/377 386/441/386 
# 384 polygons

