# Blender 4.2.3 LTS
# www.blender.org
mtllib SM_Control_Pannel.mtl
o SM_Control_Pannel_Base
v -0.241688 0.093163 -0.241688
v 0.241691 0.093163 -0.241688
v -0.241688 0.093163 0.241691
v 0.241691 0.093163 0.241691
v 0.190189 -0.006843 -0.190186
v -0.190186 -0.006843 -0.190186
v 0.190189 -0.006843 0.190189
v -0.190186 -0.006843 0.190189
v 0.190189 -0.006843 -0.183848
v -0.190186 -0.006843 -0.183846
v 0.190189 -0.006843 0.183849
v -0.190186 -0.006843 0.183849
v -0.241688 0.093163 -0.233634
v 0.241691 0.093163 -0.233634
v -0.241688 0.093163 0.233634
v 0.241691 0.093163 0.233634
v -0.233633 0.093163 -0.241688
v 0.233635 0.093163 -0.241688
v -0.233633 0.093163 0.241691
v 0.233635 0.093163 0.241691
v 0.183849 -0.006843 -0.190186
v -0.183848 -0.006843 -0.190186
v 0.183849 -0.006843 0.190189
v -0.183848 -0.006843 0.190189
v 0.183849 -0.006843 -0.183848
v -0.183848 -0.006843 -0.183846
v 0.183849 -0.006843 0.183849
v -0.183848 -0.006843 0.183849
v -0.399998 0.001755 -0.213332
v -0.389683 -0.006843 -0.213332
v -0.389683 -0.006843 0.213334
v -0.399998 0.001755 0.213334
v -0.399998 0.084559 0.213334
v -0.389683 0.093157 0.213334
v -0.389683 0.093157 -0.213332
v -0.399998 0.084559 -0.213332
v 0.400001 0.001755 0.213334
v 0.389686 -0.006843 0.213334
v 0.389686 -0.006843 -0.213332
v 0.400001 0.001755 -0.213332
v 0.400001 0.084559 -0.213332
v 0.389686 0.093157 -0.213332
v 0.389686 0.093157 0.213334
v 0.400001 0.084559 0.213334
v -0.332505 -0.006843 -0.167418
v -0.340001 0.001755 -0.164977
v -0.340001 0.001755 0.164979
v -0.332505 -0.006843 0.167419
v -0.332505 0.093157 0.167419
v -0.340001 0.084559 0.164979
v -0.340001 0.084559 -0.164977
v -0.332505 0.093157 -0.167418
v 0.332508 -0.006843 0.167419
v 0.340000 0.001755 0.164979
v 0.340000 0.001755 -0.164977
v 0.332508 -0.006843 -0.167418
v 0.332508 0.093157 -0.167418
v 0.340000 0.084559 -0.164977
v 0.340000 0.084559 0.164979
v 0.332508 0.093157 0.167419
v 0.213335 0.001755 -0.400000
v 0.213335 -0.006843 -0.389682
v -0.213332 -0.006843 -0.389682
v -0.213332 0.001755 -0.400000
v -0.213332 0.084559 -0.400000
v -0.213332 0.093157 -0.389682
v 0.213335 0.093157 -0.389682
v 0.213335 0.084559 -0.400000
v -0.213332 0.001755 0.399999
v -0.213332 -0.006843 0.389684
v 0.213335 -0.006843 0.389684
v 0.213335 0.001755 0.399999
v 0.213335 0.084559 0.399999
v 0.213335 0.093157 0.389684
v -0.213332 0.093157 0.389684
v -0.213332 0.084559 0.399999
v 0.167419 -0.006843 -0.332503
v 0.164979 0.001755 -0.339999
v -0.164977 0.001755 -0.339999
v -0.167418 -0.006843 -0.332503
v -0.167418 0.093157 -0.332503
v -0.164977 0.084559 -0.339999
v 0.164979 0.084559 -0.339999
v 0.167419 0.093157 -0.332503
v -0.167418 -0.006843 0.332505
v -0.164977 0.001755 0.340001
v 0.164979 0.001755 0.340001
v 0.167419 -0.006843 0.332505
v 0.167419 0.093157 0.332505
v 0.164979 0.084559 0.340001
v -0.164977 0.084559 0.340001
v -0.167418 0.093157 0.332505
v -0.340397 -0.006843 0.389749
v -0.342308 0.001755 0.399999
v -0.389748 -0.006843 0.340398
v -0.399998 0.001755 0.342309
v -0.389748 0.093157 0.340398
v -0.399998 0.084559 0.342309
v -0.340397 0.093157 0.389749
v -0.342308 0.084559 0.399999
v -0.389748 -0.006843 -0.340400
v -0.399998 0.001755 -0.342307
v -0.340397 -0.006843 -0.389750
v -0.342308 0.001755 -0.400000
v -0.340397 0.093157 -0.389750
v -0.342308 0.084559 -0.400000
v -0.389748 0.093157 -0.340400
v -0.399998 0.084559 -0.342307
v 0.389751 -0.006843 0.340398
v 0.400001 0.001755 0.342309
v 0.340400 -0.006843 0.389749
v 0.342308 0.001755 0.399999
v 0.340400 0.093157 0.389749
v 0.342308 0.084559 0.399999
v 0.389751 0.093157 0.340398
v 0.400001 0.084559 0.342309
v 0.340400 -0.006843 -0.389750
v 0.342308 0.001755 -0.400000
v 0.389751 -0.006843 -0.340400
v 0.400001 0.001755 -0.342307
v 0.389751 0.093157 -0.340400
v 0.400001 0.084559 -0.342307
v 0.340400 0.093157 -0.389750
v 0.342308 0.084559 -0.400000
v -0.233633 0.191133 -0.197882
v -0.197882 0.191133 -0.233634
v 0.233635 0.191133 -0.197882
v 0.197883 0.191133 -0.233634
v 0.233635 0.191133 0.197883
v 0.197883 0.191133 0.233634
v -0.233633 0.191133 0.197883
v -0.197882 0.191133 0.233634
v -0.183848 0.093366 -0.183848
v -0.233633 0.093163 -0.233634
v -0.183848 0.093366 -0.190142
v -0.190142 0.093366 -0.183848
v 0.183849 0.093366 -0.183846
v 0.233635 0.093163 -0.233634
v 0.190143 0.093366 -0.183846
v 0.183849 0.093366 -0.190142
v -0.183848 0.093366 0.183849
v -0.233633 0.093163 0.233634
v -0.190142 0.093366 0.183849
v -0.183848 0.093366 0.190143
v 0.183849 0.093366 0.183849
v 0.233635 0.093163 0.233634
v 0.183849 0.093366 0.190143
v 0.190143 0.093366 0.183849
v -0.197571 0.146352 0.233634
v -0.233633 0.146352 0.197574
v -0.197571 0.146352 -0.233634
v -0.233633 0.146352 -0.197572
v 0.197574 0.146352 0.233634
v 0.233635 0.146352 0.197574
v 0.233635 0.146352 -0.197572
v 0.197574 0.146352 -0.233634
v 0.233635 0.101573 0.196868
v 0.196868 0.101573 0.233634
v -0.196867 0.101573 0.233634
v -0.233633 0.101573 0.196868
v 0.233635 0.101573 -0.196868
v 0.196868 0.101573 -0.233634
v -0.196867 0.101573 -0.233634
v -0.233633 0.101573 -0.196868
v 0.196853 0.093163 0.233634
v 0.233635 0.093163 0.196853
v -0.233633 0.093163 0.196853
v -0.196852 0.093163 0.233634
v 0.233635 0.093163 -0.196852
v 0.196853 0.093163 -0.233634
v -0.196852 0.093163 -0.233634
v -0.233633 0.093163 -0.196852
v 0.154782 0.093366 0.183849
v 0.183849 0.093366 0.154782
v -0.183848 0.093366 0.154782
v -0.154781 0.093366 0.183849
v 0.183849 0.093366 -0.154780
v 0.154782 0.093366 -0.183846
v -0.154781 0.093366 -0.183848
v -0.183848 0.093366 -0.154780
v 0.213872 0.146352 -0.250355
v 0.250356 0.146352 -0.213872
v 0.213735 0.101573 -0.250355
v 0.250356 0.101573 -0.213734
v -0.250355 0.146352 0.213872
v -0.213871 0.146352 0.250356
v 0.250356 0.146352 0.213872
v 0.213872 0.146352 0.250356
v 0.213735 0.101573 0.250356
v 0.250356 0.101573 0.213735
v -0.250355 0.101573 -0.213734
v -0.213734 0.101573 -0.250355
v -0.213871 0.146352 -0.250355
v -0.250355 0.146352 -0.213872
v -0.250355 0.101573 0.213735
v -0.213734 0.101573 0.250356
v 0.197906 0.196132 0.233634
v 0.233635 0.196132 0.197906
v 0.233635 0.196132 -0.197905
v 0.197906 0.196132 -0.233634
v -0.233633 0.196132 0.197906
v -0.197905 0.196132 0.233634
v -0.197905 0.196132 -0.233634
v -0.233633 0.196132 -0.197905
v -0.188870 0.213521 0.211635
v -0.211634 0.213521 0.188873
v 0.211635 0.213521 0.188873
v 0.188873 0.213521 0.211635
v 0.188873 0.213521 -0.211634
v 0.211635 0.213521 -0.188870
v -0.211634 0.213521 -0.188870
v -0.188870 0.213521 -0.211634
v -0.271281 1.186685 0.246845
v -0.190438 1.237031 0.206605
v -0.271281 1.186685 -0.246554
v -0.190438 1.237031 -0.206315
v 0.248111 0.848161 0.246845
v 0.261533 0.942445 0.206605
v 0.248111 0.848161 -0.246554
v 0.261533 0.942445 -0.206315
v -0.224148 1.258996 0.246845
v -0.224148 1.258996 -0.246554
v 0.295244 0.920480 -0.246554
v 0.295244 0.920480 0.246845
v -0.187342 1.196512 0.181890
v -0.187342 1.196512 -0.181599
v 0.223217 0.928926 -0.181599
v 0.223217 0.928926 0.181890
v -0.208048 1.210008 0.206605
v -0.208048 1.210008 -0.206315
v 0.243923 0.915430 -0.206315
v 0.243923 0.915430 0.206605
v -0.173893 1.217149 0.181890
v -0.173893 1.217149 -0.181599
v 0.236665 0.949556 -0.181599
v 0.236665 0.949556 0.181890
v -0.173893 1.217149 0.000145
v 0.031386 1.083353 -0.181599
v 0.236665 0.949556 0.000145
v 0.031386 1.083353 0.181890
v 0.031386 1.083353 0.000145
v -0.173893 1.217149 -0.090728
v 0.134026 1.016458 -0.181599
v 0.236665 0.949556 0.091017
v -0.071253 1.150247 0.181890
v -0.173893 1.217149 0.091017
v -0.071253 1.150247 -0.181599
v 0.236665 0.949556 -0.090728
v 0.134026 1.016458 0.181890
v 0.031386 1.083353 0.091017
v 0.031386 1.083353 -0.090728
v 0.134026 1.016458 0.000145
v -0.071253 1.150247 0.000145
v -0.071253 1.150247 -0.090728
v 0.134026 1.016458 0.091017
v -0.071253 1.150247 0.091017
v -0.173893 1.217149 -0.136163
v 0.185346 0.983011 -0.181599
v 0.236665 0.949556 0.136454
v -0.122573 1.183702 0.181890
v -0.173893 1.217149 0.045581
v -0.019934 1.116800 -0.181599
v 0.236665 0.949556 -0.045291
v 0.082706 1.049905 0.181890
v 0.031386 1.083353 0.136454
v 0.031386 1.083353 -0.045291
v 0.185346 0.983011 0.000145
v -0.019934 1.116800 0.000145
v -0.173893 1.217149 -0.045291
v 0.082706 1.049905 -0.181599
v 0.236665 0.949556 0.045581
v -0.019934 1.116800 0.181890
v -0.173893 1.217149 0.136454
v -0.122573 1.183702 -0.181599
v 0.236665 0.949556 -0.136163
v 0.185346 0.983011 0.181890
v 0.031386 1.083353 0.045581
v 0.031386 1.083353 -0.136163
v 0.082706 1.049905 0.000145
v -0.122573 1.183702 0.000145
v -0.071253 1.150247 -0.045291
v -0.071253 1.150247 -0.136163
v -0.019934 1.116800 -0.090728
v -0.122573 1.183702 -0.090728
v 0.134026 1.016458 -0.136163
v 0.185346 0.983011 -0.090728
v 0.082706 1.049905 -0.090728
v 0.134026 1.016458 0.136454
v 0.134026 1.016458 0.045581
v 0.185346 0.983011 0.091017
v 0.082706 1.049905 0.091017
v -0.071253 1.150247 0.136454
v -0.071253 1.150247 0.045581
v -0.019934 1.116800 0.091017
v -0.122573 1.183702 0.091017
v -0.122573 1.183702 0.045581
v -0.019934 1.116800 0.045581
v -0.019934 1.116800 0.136454
v 0.082706 1.049905 0.045581
v 0.185346 0.983011 0.045581
v 0.185346 0.983011 0.136454
v 0.082706 1.049905 -0.136163
v 0.185346 0.983011 -0.136163
v 0.185346 0.983011 -0.045291
v -0.122573 1.183702 -0.136163
v -0.019934 1.116800 -0.136163
v -0.019934 1.116800 -0.045291
v -0.122573 1.183702 -0.045291
v 0.082706 1.049905 -0.045291
v 0.082706 1.049905 0.136454
v -0.122573 1.183702 0.136454
v 0.029488 1.080438 -0.045291
v 0.029488 1.080438 0.000145
v -0.021832 1.113885 0.000145
v 0.029488 1.080438 0.045581
v 0.029488 1.080438 0.091017
v 0.029488 1.080438 -0.136163
v 0.029488 1.080438 -0.090728
v 0.080807 1.046991 0.000145
v 0.132127 1.013544 0.000145
v -0.124472 1.180788 0.000145
v -0.073152 1.147340 0.000145
v -0.073152 1.147340 -0.045291
v -0.073152 1.147340 -0.136163
v -0.073152 1.147340 -0.090728
v -0.021832 1.113885 -0.090728
v -0.124472 1.180788 -0.090728
v 0.132127 1.013544 -0.045291
v 0.132127 1.013544 -0.136163
v 0.132127 1.013544 -0.090728
v 0.080807 1.046991 -0.090728
v 0.132127 1.013544 0.045581
v 0.132127 1.013544 0.091017
v 0.080807 1.046991 0.091017
v -0.073152 1.147340 0.045581
v -0.073152 1.147340 0.091017
v -0.021832 1.113885 0.091017
v -0.124472 1.180788 0.091017
v 0.029488 1.080438 0.136454
v 0.183446 0.980096 0.000145
v 0.183446 0.980096 -0.090728
v 0.132127 1.013544 0.136454
v -0.073152 1.147340 0.136454
v -0.124472 1.180788 0.045581
v -0.021832 1.113885 0.045581
v -0.021832 1.113885 0.136454
v 0.080807 1.046991 0.045581
v 0.080807 1.046991 -0.136163
v 0.183446 0.980096 -0.136163
v 0.183446 0.980096 -0.045291
v -0.124472 1.180788 -0.136163
v -0.021832 1.113885 -0.136163
v -0.021832 1.113885 -0.045291
v -0.124472 1.180788 -0.045291
v 0.080807 1.046991 -0.045291
v 0.080807 1.046991 0.136454
v -0.124472 1.180788 0.136454
v -0.041668 0.249774 0.077958
v -0.041668 0.993852 0.077958
v -0.041668 0.249774 -0.077957
v -0.041668 0.993852 -0.077957
v 0.041670 0.249774 0.077958
v 0.041670 0.939600 0.077958
v 0.041670 0.249774 -0.077957
v 0.041670 0.939600 -0.077957
v -0.077957 0.213485 0.077958
v -0.077957 1.060785 0.077958
v -0.077957 1.060785 -0.077957
v -0.077957 0.213485 -0.077957
v 0.077958 0.213485 -0.077957
v 0.077958 0.959276 -0.077957
v 0.077958 0.959276 0.077958
v 0.077958 0.213485 0.077958
v -0.009387 0.282054 0.071455
v -0.009387 0.934320 0.071455
v -0.009387 0.934320 -0.071453
v -0.009387 0.282054 -0.071453
v 0.009389 0.282054 -0.071453
v 0.009389 0.922098 -0.071453
v 0.009389 0.922098 0.071455
v 0.009389 0.282054 0.071455
v -0.041668 0.249774 0.071455
v -0.041668 0.993852 0.071455
v -0.041668 0.993852 -0.071453
v -0.041668 0.249774 -0.071453
v 0.041670 0.249774 -0.071453
v 0.041670 0.939600 -0.071453
v 0.041670 0.939600 0.071455
v 0.041670 0.249774 0.071455
v -0.009387 0.282054 0.066015
v -0.009387 0.934320 0.066015
v -0.009387 0.934320 -0.066014
v -0.009387 0.282054 -0.066014
v 0.009389 0.282054 -0.066014
v 0.009389 0.922098 -0.066014
v 0.009389 0.922098 0.066015
v 0.009389 0.282054 0.066015
v -0.332505 -0.006843 0.000000
v -0.241688 0.093163 0.000000
v 0.332508 0.093157 0.000000
v 0.340000 0.001755 0.000001
v 0.190189 -0.006843 0.000000
v -0.340001 0.001755 0.000001
v 0.183849 -0.006843 0.000000
v -0.190186 -0.006843 0.000001
v -0.183848 -0.006843 0.000001
v -0.332505 0.093157 0.000000
v 0.332508 -0.006843 0.000000
v 0.340000 0.084559 0.000001
v -0.340001 0.084559 0.000001
v 0.000001 -0.006843 -0.332503
v 0.000001 0.093163 -0.241688
v 0.000001 0.001755 0.340001
v 0.000001 -0.006843 0.190189
v 0.000001 0.001755 -0.339999
v 0.000001 -0.006843 0.183849
v 0.000001 -0.006843 -0.190186
v 0.000001 -0.006843 -0.183847
v 0.000001 -0.006843 0.000001
v 0.000001 0.093157 -0.332503
v 0.000001 -0.006843 0.332505
v 0.000001 0.093157 0.332505
v 0.000001 0.084559 0.340001
v 0.000001 0.084559 -0.339999
vn 1.0000 -0.0000 -0.0000
vn -0.0001 1.0000 -0.0000
vn -0.0000 1.0000 -0.0000
vn -0.0000 -1.0000 -0.0000
vn -0.0025 1.0000 0.0003
vn -0.0000 1.0000 -0.0001
vn -0.0005 1.0000 -0.0029
vn 0.6275 -0.0000 -0.7786
vn -0.7786 -0.0000 0.6275
vn -0.5460 -0.8378 -0.0000
vn -0.0011 1.0000 -0.0006
vn 0.0024 1.0000 -0.0013
vn 0.0001 1.0000 -0.0000
vn -0.0006 1.0000 -0.0002
vn -1.0000 -0.0000 -0.0000
vn 0.0020 -1.0000 0.0024
vn 0.0030 -1.0000 0.0012
vn -0.0000 -1.0000 0.0047
vn -0.0019 1.0000 0.0003
vn -0.0013 1.0000 -0.0000
vn -0.0021 1.0000 0.0002
vn 0.5460 0.8378 -0.0000
vn 0.5461 0.8377 -0.0000
vn 0.0003 1.0000 0.0019
vn -0.0000 1.0000 0.0013
vn 0.0002 1.0000 0.0021
vn -0.0027 1.0000 -0.0004
vn -0.6275 -0.0000 0.7786
vn 0.0014 1.0000 0.0007
vn 0.0028 1.0000 -0.0000
vn -0.0000 -0.0000 1.0000
vn -0.7071 -0.0000 0.7071
vn -0.0000 1.0000 0.0001
vn -0.0013 1.0000 0.0024
vn -0.7538 0.6571 -0.0000
vn -0.0003 0.7677 0.6408
vn -0.0003 0.7681 0.6404
vn -0.0001 0.7666 0.6422
vn -0.0000 0.7661 0.6427
vn 0.7786 -0.0000 0.6275
vn -0.5455 -0.8381 -0.0000
vn -0.8379 0.5458 -0.0000
vn -0.0024 -1.0000 0.0020
vn -0.0012 -1.0000 0.0030
vn -0.0047 -1.0000 -0.0000
vn 0.0019 1.0000 -0.0003
vn 0.0013 1.0000 -0.0000
vn 0.0021 1.0000 -0.0002
vn 0.0047 -1.0000 -0.0000
vn 0.0024 -1.0000 -0.0020
vn 0.0012 -1.0000 -0.0030
vn 0.7071 -0.0000 0.7071
vn 0.7071 -0.0000 -0.7071
vn 0.0038 -1.0000 0.0003
vn 0.0024 -1.0000 0.0020
vn 0.6196 -0.6067 0.4980
vn 0.6186 -0.6087 0.4967
vn 0.6211 -0.6035 0.5000
vn 0.6220 -0.6014 0.5013
vn 0.6196 0.6066 0.4981
vn 0.6220 0.6015 0.5013
vn 0.6211 0.6035 0.5000
vn 0.6186 0.6087 0.4968
vn -0.6195 0.6068 -0.4980
vn -0.6220 0.6015 -0.5013
vn -0.6211 0.6034 -0.5001
vn -0.6186 0.6087 -0.4968
vn 0.4981 0.6066 0.6196
vn 0.4968 0.6086 0.6187
vn 0.5001 0.6033 0.6212
vn 0.5013 0.6014 0.6221
vn -0.0004 1.0000 0.0019
vn 0.0007 1.0000 0.0029
vn -0.0000 0.6571 -0.7538
vn -0.4981 0.6067 0.6196
vn -0.5013 0.6014 0.6221
vn -0.5001 0.6035 0.6211
vn -0.4967 0.6087 0.6186
vn -0.7538 -0.6571 -0.0000
vn 0.4980 -0.6066 0.6196
vn 0.5013 -0.6014 0.6221
vn 0.5001 -0.6034 0.6212
vn 0.4968 -0.6086 0.6187
vn -0.0000 -0.0000 -1.0000
vn 0.4980 -0.6066 -0.6196
vn 0.4969 -0.6085 -0.6187
vn 0.5002 -0.6033 -0.6212
vn 0.5013 -0.6014 -0.6221
vn -0.0000 -0.6571 0.7538
vn -0.6196 0.6066 0.4981
vn -0.6186 0.6087 0.4968
vn -0.6211 0.6035 0.5001
vn -0.6220 0.6014 0.5013
vn 0.6195 0.6069 -0.4979
vn 0.6186 0.6087 -0.4968
vn 0.6211 0.6034 -0.5001
vn 0.6220 0.6016 -0.5013
vn -0.4980 -0.6067 -0.6196
vn -0.5013 -0.6015 -0.6220
vn -0.5001 -0.6034 -0.6211
vn -0.4968 -0.6087 -0.6187
vn -0.6196 -0.6067 0.4980
vn -0.6220 -0.6015 0.5013
vn -0.6211 -0.6034 0.5001
vn -0.6186 -0.6087 0.4968
vn 0.6195 -0.6068 -0.4980
vn 0.6220 -0.6016 -0.5013
vn 0.6211 -0.6035 -0.5001
vn 0.6186 -0.6088 -0.4967
vn 0.7539 -0.6570 -0.0000
vn -0.6195 -0.6068 -0.4980
vn -0.6186 -0.6087 -0.4968
vn -0.6211 -0.6035 -0.5001
vn -0.6220 -0.6016 -0.5012
vn -0.0000 0.6571 0.7538
vn -0.4980 -0.6067 0.6196
vn -0.4968 -0.6087 0.6186
vn -0.5001 -0.6035 0.6211
vn -0.5013 -0.6015 0.6220
vn -0.0000 -0.6571 -0.7538
vn -0.4981 0.6067 -0.6196
vn -0.4968 0.6086 -0.6187
vn -0.5001 0.6034 -0.6211
vn -0.5013 0.6014 -0.6221
vn 0.7539 0.6569 -0.0000
vn -0.5000 0.7071 -0.5000
vn -0.5000 -0.7072 0.5000
vn 0.5000 0.7071 0.5000
vn 0.5000 -0.7071 0.5000
vn 0.5000 -0.7071 -0.5000
vn 0.4980 0.6067 -0.6196
vn 0.5013 0.6014 -0.6221
vn 0.5002 0.6033 -0.6212
vn 0.4969 0.6085 -0.6188
vn -0.5000 -0.7071 -0.5000
vn 0.5000 0.7070 -0.5000
vn 0.0001 -0.7667 0.6421
vn -0.0000 -0.7661 0.6427
vn 0.0002 -0.7676 0.6409
vn 0.0003 -0.7681 0.6403
vn 0.0002 0.7676 -0.6409
vn 0.0003 0.7682 -0.6403
vn 0.0001 0.7669 -0.6418
vn -0.0000 0.7662 -0.6426
vn 0.6411 0.7674 -0.0002
vn 0.6426 0.7662 -0.0000
vn 0.6419 0.7668 -0.0001
vn 0.6402 0.7682 -0.0003
vn 0.6418 -0.7668 -0.0001
vn 0.6426 -0.7662 -0.0000
vn 0.6409 -0.7676 -0.0002
vn 0.6403 -0.7681 -0.0003
vn 0.0003 -1.0000 0.0038
vn 0.0002 -0.7676 -0.6409
vn -0.0000 -0.7661 -0.6427
vn 0.0001 -0.7667 -0.6420
vn 0.0003 -0.7683 -0.6401
vn -0.0002 0.7676 -0.6409
vn -0.0000 0.7661 -0.6427
vn -0.0001 0.7668 -0.6419
vn -0.0003 0.7683 -0.6401
vn -0.0002 -0.7676 0.6410
vn -0.0000 -0.7662 0.6426
vn -0.0001 -0.7668 0.6419
vn -0.0003 -0.7681 0.6403
vn 0.6410 -0.7676 0.0002
vn 0.6421 -0.7667 0.0001
vn 0.6402 -0.7682 0.0003
vn 0.6409 0.7676 0.0002
vn 0.6403 0.7682 0.0003
vn 0.6422 0.7666 0.0001
vn 0.6428 0.7661 -0.0000
vn -0.6418 -0.7668 -0.0001
vn -0.6403 -0.7681 -0.0003
vn -0.6410 -0.7676 -0.0002
vn -0.6426 -0.7662 -0.0000
vn 0.0002 0.7676 0.6410
vn 0.0001 0.7666 0.6421
vn 0.0003 0.7681 0.6403
vn -0.6420 -0.7667 0.0001
vn -0.6410 -0.7676 0.0002
vn -0.6402 -0.7682 0.0003
vn -0.6409 0.7676 0.0002
vn -0.6428 0.7661 -0.0000
vn -0.6422 0.7666 0.0001
vn -0.6403 0.7682 0.0003
vn -0.6411 0.7674 -0.0002
vn -0.6402 0.7682 -0.0003
vn -0.6419 0.7668 -0.0001
vn -0.6426 0.7662 -0.0000
vn -0.0001 -0.7670 -0.6417
vn -0.0000 -0.7662 -0.6426
vn -0.0002 -0.7676 -0.6409
vn -0.0003 -0.7683 -0.6401
vn -0.0010 1.0000 0.0015
vn -0.0003 1.0000 -0.0019
vn -0.0000 1.0000 -0.0012
vn -0.0002 1.0000 -0.0021
vn -0.0020 -1.0000 -0.0024
vn -0.0030 -1.0000 -0.0012
vn -0.0000 -1.0000 -0.0047
vn 0.7071 -0.0022 0.7071
vn -0.0038 -1.0000 -0.0003
vn -0.0024 -1.0000 -0.0020
vn -0.0003 -1.0000 0.0038
vn -0.0020 -1.0000 0.0024
vn -0.0021 -1.0000 -0.0023
vn 0.0003 -1.0000 -0.0039
vn 0.0021 -1.0000 -0.0023
vn -0.0009 1.0000 -0.0000
vn 0.0021 1.0000 -0.0023
vn -0.7071 -0.0032 -0.7071
vn -0.7071 -0.0034 -0.7071
vn -0.7071 -0.0047 -0.7071
vn 0.7071 -0.0032 0.7071
vn 0.7071 -0.0047 0.7071
vn 0.7071 -0.0036 0.7071
vn 0.7071 -0.0032 -0.7071
vn 0.7071 -0.0035 -0.7071
vn 0.7071 -0.0048 -0.7071
vn -0.7071 -0.0032 0.7071
vn -0.7071 -0.0033 0.7071
vn -0.7071 -0.0044 0.7071
vn -0.0007 1.0000 -0.0008
vn -0.0023 1.0000 -0.0022
vn 0.0007 1.0000 0.0009
vn 0.0006 1.0000 0.0017
vn 0.7071 -0.0049 0.7071
vn -0.7071 -0.0049 -0.7071
vn -0.7071 -0.0049 0.7071
vn -0.7071 -0.0013 0.7071
vn 0.7071 -0.0013 -0.7071
vn -0.7071 -0.0013 -0.7071
vn -0.0003 -1.0000 -0.0038
vn -0.0038 -1.0000 0.0003
vn 0.0038 -1.0000 -0.0003
vn -0.0000 1.0000 -0.0013
vn 0.7071 -0.0049 -0.7071
vn -0.7071 -0.0022 -0.7071
vn 0.7071 -0.0022 -0.7071
vn -0.7071 -0.0022 0.7071
vn 0.4392 0.7837 0.4392
vn -0.4392 0.7838 0.4392
vn 0.4392 0.7838 -0.4392
vn -0.4392 0.7838 -0.4392
vn -0.0000 0.7845 0.6201
vn 0.6201 0.7845 -0.0000
vn -0.6201 0.7845 -0.0000
vn -0.5000 0.7071 0.5000
vn -0.0033 1.0000 0.0013
vn 0.0041 -1.0000 -0.0000
vn -0.0000 -1.0000 0.0041
vn -0.0000 -1.0000 -0.0041
vn -0.0041 -1.0000 -0.0000
vn 0.8378 -0.5460 -0.0000
vn 0.6275 -0.0000 0.7786
vn 0.5460 0.8378 -0.0001
vn 0.5460 0.8378 0.0001
vn 0.8377 -0.5461 -0.0000
vn -0.8378 0.5460 -0.0000
vn -0.8372 0.5469 -0.0000
vn -0.5456 -0.8381 -0.0000
vn -0.8379 0.5459 -0.0000
vn 0.8379 -0.5459 -0.0000
vn 0.8379 -0.5458 -0.0000
vn 0.7071 -0.0013 0.7071
vn -0.8377 0.5461 -0.0000
vn -0.7071 -0.0000 -0.7071
vn 0.5456 0.8380 -0.0000
vn -0.7786 -0.0000 -0.6275
vn -0.0000 0.7845 -0.6201
vn 0.7786 -0.0000 -0.6275
vn -0.6275 -0.0000 -0.7786
vt 0.599906 0.359947
vt 0.396485 0.359947
vt 0.870069 0.638889
vt 0.870395 0.666667
vt 0.870424 0.723392
vt 0.791667 0.666667
vt 0.291667 0.625000
vt 0.370069 0.625000
vt 0.370069 0.638889
vt 0.291667 0.638889
vt 0.791667 0.583333
vt 0.870069 0.611111
vt 0.791667 0.611111
vt 0.291667 0.583333
vt 0.370069 0.611111
vt 0.291667 0.611111
vt 0.763889 0.504931
vt 0.763889 0.583333
vt 0.291667 0.666667
vt 0.263889 0.745069
vt 0.263889 0.666667
vt 0.848392 0.745424
vt 0.603505 0.638889
vt 0.603505 0.666667
vt 0.396495 0.666667
vt 0.396495 0.638889
vt 0.348392 0.745424
vt 0.370424 0.723392
vt 0.603505 0.833333
vt 0.603505 0.861111
vt 0.396495 0.861111
vt 0.396495 0.833333
vt 0.611965 0.308187
vt 0.386205 0.308187
vt 0.129931 0.638889
vt 0.208333 0.666667
vt 0.129605 0.666667
vt 0.375000 0.500000
vt 0.375000 0.750000
vt 0.125000 0.750000
vt 0.125000 0.500000
vt 0.750000 0.504931
vt 0.763889 0.504931
vt 0.750000 0.583333
vt 0.370424 0.526608
vt 0.370395 0.583333
vt 0.708333 0.611111
vt 0.629931 0.638889
vt 0.629931 0.625000
vt 0.629931 0.611111
vt 0.603505 0.166667
vt 0.603505 0.224245
vt 0.396495 0.224245
vt 0.396495 0.166667
vt 0.386205 0.941813
vt 0.611965 0.941813
vt 0.629605 0.583333
vt 0.629576 0.526608
vt 0.708333 0.583333
vt 0.629931 0.611111
vt 0.250000 0.504931
vt 0.250000 0.583333
vt 0.236111 0.583333
vt 0.236111 0.504931
vt 0.263889 0.504931
vt 0.263889 0.583333
vt 0.763889 0.583529
vt 0.763889 0.611111
vt 0.736111 0.583529
vt 0.791667 0.504605
vt 0.848392 0.504576
vt 0.763889 0.638889
vt 0.763889 0.613307
vt 0.263889 0.638889
vt 0.263889 0.625000
vt 0.750000 0.555934
vt 0.750000 0.578956
vt 0.725298 0.578956
vt 0.725298 0.555934
vt 0.603505 0.666667
vt 0.603505 0.724245
vt 0.396495 0.724245
vt 0.151608 0.745424
vt 0.129576 0.723392
vt 0.700596 0.694066
vt 0.700596 0.717088
vt 0.675894 0.717088
vt 0.675894 0.694066
vt 0.603505 0.525755
vt 0.603505 0.583333
vt 0.396495 0.583333
vt 0.396495 0.525755
vt 0.386661 0.808187
vt 0.708333 0.666667
vt 0.651608 0.745424
vt 0.629576 0.723392
vt 0.736111 0.638889
vt 0.761693 0.638889
vt 0.736111 0.504931
vt 0.651608 0.504576
vt 0.708333 0.504605
vt 0.250000 0.666667
vt 0.250000 0.745069
vt 0.236111 0.745069
vt 0.236111 0.666667
vt 0.791667 0.638889
vt 0.629605 0.666667
vt 0.603505 0.138889
vt 0.603505 0.166667
vt 0.396495 0.138889
vt 0.386661 0.441813
vt 0.611490 0.441813
vt 0.208333 0.583333
vt 0.129931 0.611111
vt 0.129605 0.583333
vt 0.208333 0.504605
vt 0.396696 0.390053
vt 0.250000 0.611111
vt 0.250000 0.625000
vt 0.236111 0.625000
vt 0.236111 0.611111
vt 0.396485 0.890053
vt 0.599906 0.890053
vt 0.708529 0.611111
vt 0.708333 0.638889
vt 0.603505 0.875000
vt 0.603505 0.888889
vt 0.396495 0.888889
vt 0.396495 0.875000
vt 0.603505 0.000000
vt 0.603505 0.025755
vt 0.396495 0.025755
vt 0.396495 0.000000
vt 0.763889 0.745069
vt 0.763889 0.666667
vt 0.799404 0.648022
vt 0.799404 0.671044
vt 0.774702 0.671044
vt 0.774702 0.648022
vt 0.208333 0.745395
vt 0.625000 0.125000
vt 0.603505 0.125000
vt 0.603505 0.111111
vt 0.625000 0.111111
vt 0.738255 0.638889
vt 0.761865 0.638889
vt 0.738135 0.638889
vt 0.625000 0.776608
vt 0.625000 0.833333
vt 0.603505 0.833333
vt 0.603505 0.775755
vt 0.603505 0.888889
vt 0.603505 0.916667
vt 0.396495 0.916667
vt 0.208333 0.638889
vt 0.236111 0.638889
vt 0.250000 0.638889
vt 0.208333 0.611111
vt 0.611490 0.808187
vt 0.599682 0.859947
vt 0.750000 0.648022
vt 0.750000 0.671044
vt 0.625000 0.750000
vt 0.625000 1.000000
vt 0.375000 1.000000
vt 0.736111 0.611111
vt 0.708529 0.638889
vt 0.736111 0.636693
vt 0.791471 0.611111
vt 0.791471 0.638889
vt 0.396495 0.775755
vt 0.603505 0.724245
vt 0.603505 0.775755
vt 0.396495 0.474245
vt 0.603505 0.474245
vt 0.603505 0.525755
vt 0.763889 0.636693
vt 0.763889 0.613298
vt 0.774702 0.625000
vt 0.750000 0.625000
vt 0.599682 0.390053
vt 0.236111 0.750000
vt 0.208333 0.750000
vt 0.625000 0.913771
vt 0.625000 0.888889
vt 0.625000 0.413771
vt 0.603505 0.416667
vt 0.603505 0.388889
vt 0.625000 0.388889
vt 0.603505 0.611111
vt 0.603505 0.583333
vt 0.763889 0.666471
vt 0.736111 0.745069
vt 0.736111 0.666667
vt 0.625000 0.375000
vt 0.603505 0.375000
vt 0.603505 0.361111
vt 0.625000 0.361111
vt 0.625000 0.163771
vt 0.625000 0.138889
vt 0.129931 0.625000
vt 0.125000 0.625000
vt 0.125000 0.611111
vt 0.396495 0.583333
vt 0.396495 0.611111
vt 0.370395 0.666667
vt 0.250000 0.750000
vt 0.625000 0.836229
vt 0.625000 0.861111
vt 0.625000 0.336229
vt 0.603505 0.361111
vt 0.603505 0.333333
vt 0.125000 0.666667
vt 0.125000 0.638889
vt 0.291667 0.745395
vt 0.291667 0.750000
vt 0.263889 0.750000
vt 0.208333 0.500000
vt 0.236111 0.500000
vt 0.396495 0.625000
vt 0.291667 0.504605
vt 0.263889 0.500000
vt 0.291667 0.500000
vt 0.625000 0.875000
vt 0.603505 0.861111
vt 0.125000 0.583333
vt 0.250000 0.500000
vt 0.625000 0.086229
vt 0.603505 0.111111
vt 0.603505 0.083333
vt 0.603505 0.625000
vt 0.603505 0.611111
vt 0.625000 0.272032
vt 0.603505 0.275755
vt 0.603505 0.224245
vt 0.625000 0.227968
vt 0.150755 0.750000
vt 0.125000 0.724245
vt 0.625000 0.772032
vt 0.625000 0.727968
vt 0.375000 0.724245
vt 0.349245 0.750000
vt 0.348392 0.504576
vt 0.349245 0.500000
vt 0.375000 0.525755
vt 0.129576 0.526608
vt 0.125000 0.525755
vt 0.150755 0.500000
vt 0.151608 0.504576
vt 0.625000 0.522032
vt 0.625000 0.477968
vt 0.625000 0.276608
vt 0.625000 0.333333
vt 0.603505 0.333333
vt 0.603505 0.275755
vt 0.761693 0.611111
vt 0.761702 0.611111
vt 0.625000 0.473392
vt 0.603505 0.474245
vt 0.603505 0.416667
vt 0.625000 0.416667
vt 0.625000 0.973392
vt 0.603505 0.974245
vt 0.603505 0.916667
vt 0.625000 0.916667
vt 0.625000 0.223392
vt 0.625000 0.166667
vt 0.625000 0.026608
vt 0.625000 0.083333
vt 0.603505 0.083333
vt 0.603505 0.025755
vt 0.763889 0.666471
vt 0.738307 0.611111
vt 0.736111 0.666471
vt 0.736111 0.636865
vt 0.738143 0.638889
vt 0.736111 0.636857
vt 0.736111 0.613307
vt 0.736111 0.636702
vt 0.738298 0.611111
vt 0.761857 0.638889
vt 0.761703 0.611111
vt 0.738143 0.611111
vt 0.738297 0.611111
vt 0.738307 0.638889
vt 0.761702 0.638889
vt 0.763889 0.636703
vt 0.763889 0.613143
vt 0.763889 0.613297
vt 0.761703 0.638889
vt 0.763889 0.636745
vt 0.763889 0.636764
vt 0.763889 0.613236
vt 0.763889 0.613255
vt 0.763889 0.636702
vt 0.763889 0.613297
vt 0.738298 0.638889
vt 0.738297 0.638889
vt 0.738255 0.611111
vt 0.761865 0.611111
vt 0.761745 0.611111
vt 0.763889 0.636764
vt 0.763889 0.636765
vt 0.763889 0.613235
vt 0.763889 0.613236
vt 0.736111 0.613255
vt 0.736111 0.613236
vt 0.736111 0.636763
vt 0.736111 0.636745
vt 0.736111 0.583333
vt 0.736111 0.583529
vt 0.708529 0.611111
vt 0.738255 0.638889
vt 0.738236 0.638889
vt 0.761764 0.638889
vt 0.761745 0.638889
vt 0.761765 0.611111
vt 0.761764 0.611111
vt 0.738235 0.638889
vt 0.738236 0.638889
vt 0.736111 0.636764
vt 0.736111 0.636765
vt 0.763889 0.613135
vt 0.738235 0.611111
vt 0.736111 0.613235
vt 0.736111 0.613236
vt 0.738236 0.611111
vt 0.736111 0.613143
vt 0.736111 0.613135
vt 0.761857 0.611111
vt 0.761865 0.611111
vt 0.738135 0.611111
vt 0.761765 0.638889
vt 0.761764 0.638889
vt 0.736111 0.636745
vt 0.736111 0.613255
vt 0.763889 0.636865
vt 0.736111 0.636703
vt 0.738298 0.611111
vt 0.761703 0.611111
vt 0.708529 0.638889
vt 0.761745 0.611111
vt 0.761764 0.611111
vt 0.763889 0.636857
vt 0.736111 0.613298
vt 0.736111 0.613297
vt 0.738236 0.611111
vt 0.738255 0.611111
vt 0.208333 0.625000
vt 0.736111 0.613297
vt 0.736111 0.636865
vt 0.763889 0.583529
vt 0.738297 0.638889
vt 0.738772 0.637581
vt 0.737419 0.636228
vt 0.708333 0.745395
vt 0.762581 0.636228
vt 0.761228 0.637581
vt 0.738772 0.612419
vt 0.737419 0.613772
vt 0.762581 0.613772
vt 0.761228 0.612419
vt 0.625000 0.023894
vt 0.625000 0.001862
vt 0.870395 0.583333
vt 0.870424 0.526608
vt 0.791667 0.745395
vt 0.396495 0.125000
vt 0.396495 0.111111
vt 0.870069 0.625000
vt 0.791667 0.625000
vt 0.763889 0.745069
vt 0.750000 0.745069
vt 0.736111 0.666471
vt 0.396495 0.611111
vt 0.370069 0.611111
vt 0.263889 0.611111
vt 0.263889 0.745069
vt 0.396495 0.861111
vt 0.603505 0.388889
vt 0.396495 0.375000
vt 0.396495 0.361111
vt 0.603505 0.138889
vt 0.603505 0.638889
vt 0.870069 0.611111
vt 0.625000 0.500000
vt 0.858774 0.729611
vt 0.641226 0.729611
vt 0.675894 0.648022
vt 0.675894 0.671044
vt 0.651192 0.671044
vt 0.651192 0.648022
vt 0.375000 0.250000
vt 0.625000 0.250000
vt 0.700596 0.555934
vt 0.675894 0.555934
vt 0.858774 0.520389
vt 0.875000 0.750000
vt 0.641226 0.520389
vt 0.875000 0.500000
vt 0.651192 0.532912
vt 0.651192 0.601978
vt 0.651192 0.625000
vt 0.848807 0.694066
vt 0.848807 0.717088
vt 0.824106 0.717088
vt 0.824106 0.694066
vt 0.396696 0.859947
vt 0.848807 0.532912
vt 0.651192 0.717088
vt 0.750000 0.694066
vt 0.750000 0.717088
vt 0.725298 0.717088
vt 0.725298 0.694066
vt 0.848807 0.648022
vt 0.848807 0.625000
vt 0.700596 0.532912
vt 0.675894 0.532912
vt 0.750000 0.601978
vt 0.725298 0.625000
vt 0.725298 0.601978
vt 0.848807 0.601978
vt 0.824106 0.625000
vt 0.824106 0.601978
vt 0.799404 0.601978
vt 0.799404 0.625000
vt 0.774702 0.601978
vt 0.848807 0.555934
vt 0.848807 0.578956
vt 0.824106 0.578956
vt 0.824106 0.555934
vt 0.396495 0.416667
vt 0.799404 0.694066
vt 0.799404 0.717088
vt 0.774702 0.717088
vt 0.774702 0.694066
vt 0.396495 0.333333
vt 0.396495 0.275755
vt 0.824106 0.648022
vt 0.700596 0.648022
vt 0.725298 0.648022
vt 0.396495 0.388889
vt 0.799404 0.578956
vt 0.700596 0.671044
vt 0.625000 0.000000
vt 0.375000 0.000000
vt 0.700596 0.625000
vt 0.675894 0.625000
vt 0.700596 0.601978
vt 0.651192 0.694066
vt 0.725298 0.532912
vt 0.750000 0.532912
vt 0.675894 0.578956
vt 0.651192 0.578956
vt 0.651192 0.555934
vt 0.675894 0.601978
vt 0.700596 0.578956
vt 0.824106 0.532912
vt 0.774702 0.578956
vt 0.774702 0.532912
vt 0.774702 0.555934
vt 0.725298 0.671044
vt 0.824106 0.671044
vt 0.848807 0.671044
vt 0.799404 0.555934
vt 0.799404 0.532912
vt 0.396495 0.083333
vt 0.396495 0.974245
vt 0.396495 0.833333
vt 0.396495 0.388889
vt 0.396495 0.361111
vt 0.396495 0.333333
vt 0.396495 0.111111
vt 0.396495 0.083333
s 1
usemtl M_Noir_Bleuté.024
f 376/1/1 392/1/1 393/2/1 377/2/1
f 49/3/2 34/4/3 97/5/3 3/6/3
f 402/7/4 408/8/4 53/9/4 11/10/4
f 1/11/3 52/12/2 13/13/5
f 5/14/4 56/15/4 9/16/4
f 81/17/6 1/11/3 17/18/7
f 7/19/4 88/20/4 23/21/4
f 99/22/3 3/6/3 97/5/3
f 59/23/8 44/24/8 37/25/8 54/26/8
f 111/27/4 7/19/4 109/28/4
f 73/29/9 90/30/9 87/31/9 72/32/9
f 53/9/4 7/19/4 11/10/4
f 48/35/4 8/36/4 31/37/4
f 219/38/10 217/39/10 213/40/10 215/41/10
f 420/42/6 81/43/6 17/18/7 412/44/11
f 119/45/4 39/46/4 5/14/4
f 14/47/12 60/48/13 400/49/14 57/50/13
f 36/51/15 108/52/15 102/53/15 29/54/15
f 42/57/3 121/58/3 2/59/3 57/60/13
f 411/61/4 417/62/4 22/63/4 80/64/4
f 77/65/4 5/14/4 21/66/4
f 135/67/16 134/68/17 140/69/18
f 66/70/3 105/71/3 1/11/3 81/17/6
f 142/72/19 180/73/20 133/68/21
f 402/7/4 11/10/4 27/74/4 404/75/4
f 278/76/22 251/77/22 287/78/22 302/79/22
f 44/80/1 116/81/1 110/82/1 37/25/1
f 11/10/4 7/19/4 23/21/4 27/74/4
f 8/36/4 93/83/4 95/84/4
f 288/85/22 249/86/22 276/87/23 301/88/23
f 122/89/1 41/90/1 40/91/1 120/92/1
f 4/94/3 113/95/3 115/96/3
f 146/97/24 176/98/25 141/72/26
f 84/99/6 2/59/3 123/100/3 67/101/3
f 414/102/4 421/103/4 85/104/4 24/105/4
f 49/3/2 3/6/3 15/106/27
f 115/96/3 43/107/3 60/48/13 4/94/3
f 51/108/28 36/109/28 29/54/28 46/110/28
f 6/113/4 45/114/4 30/115/4
f 80/64/4 6/113/4 63/116/4
f 377/2/3 393/2/3 394/117/3 378/117/3
f 418/118/4 419/119/4 406/120/4 26/121/4
f 374/122/1 390/122/1 391/123/1 375/123/1
f 14/47/12 139/124/29 16/125/30 60/48/13
f 423/126/31 91/127/31 86/128/31 413/129/31
f 100/130/32 98/131/32 96/132/32 94/133/32
f 3/6/3 92/134/33 19/135/34
f 293/136/22 256/137/22 294/138/22 297/139/22
f 8/36/4 85/104/4 70/140/4
f 407/141/35 410/142/35 50/143/35 49/144/35
f 113/148/36 74/149/37 73/150/38 114/151/39
f 91/152/40 76/153/40 69/154/40 86/128/40
f 12/155/4 28/156/4 24/105/4 8/36/4
f 416/157/4 414/102/4 24/105/4 28/156/4
f 22/63/4 26/121/4 10/158/4 6/113/4
f 375/123/41 391/123/41 396/160/41 380/160/41
f 224/163/31 221/164/31 213/165/31 217/39/31
f 15/106/27 3/6/3 19/135/34
f 139/124/43 138/166/44 148/167/45
f 138/166/46 174/168/47 145/97/48
f 136/169/49 143/170/50 142/72/51
f 112/171/52 110/82/52 116/172/52 114/173/52
f 120/92/53 118/174/53 124/175/53 122/176/53
f 175/177/50 172/178/54 180/73/55
f 268/179/22 297/139/22 277/161/22 241/180/22
f 378/117/15 394/117/15 395/181/15 379/181/15
f 70/140/56 85/104/57 86/182/58 69/183/59
f 75/184/60 76/153/61 91/152/62 92/185/63
f 67/186/64 68/187/65 83/188/66 84/189/67
f 42/57/68 57/60/69 58/190/70 41/191/71
f 144/192/72 19/135/34 89/193/33 20/194/73
f 420/195/74 424/196/74 82/197/74 81/198/74
f 35/199/75 36/109/76 51/108/77 52/200/78
f 398/201/79 403/202/79 46/203/79 45/114/79
f 39/46/80 40/204/81 55/205/82 56/15/83
f 38/206/85 53/9/86 54/26/87 37/25/88
f 421/103/89 413/207/89 86/182/89 85/104/89
f 74/208/90 89/209/91 90/30/92 73/29/93
f 66/210/94 81/198/95 82/211/96 65/212/97
f 31/37/98 32/213/99 47/214/100 48/35/101
f 71/215/102 72/216/103 87/217/104 88/20/105
f 63/116/106 64/218/107 79/219/108 80/64/109
f 408/8/110 401/220/110 54/26/110 53/9/110
f 62/221/111 77/65/112 78/222/113 61/223/114
f 422/224/115 423/126/115 90/225/115 89/209/115
f 30/115/116 45/114/117 46/203/118 29/226/119
f 411/61/120 415/227/120 78/222/120 77/65/120
f 34/228/121 49/144/122 50/229/123 33/230/124
f 400/49/125 409/231/125 58/232/125 57/50/125
f 105/233/126 106/234/126 108/235/126 107/236/126
f 93/83/127 94/237/127 96/238/127 95/84/127
f 113/239/128 114/173/128 116/172/128 115/240/128
f 109/28/129 110/241/129 112/242/129 111/27/129
f 117/243/130 118/244/130 120/245/130 119/45/130
f 43/107/131 44/24/132 59/23/133 60/48/134
f 101/246/135 102/247/135 104/248/135 103/249/135
f 121/250/136 122/176/136 124/175/136 123/251/136
f 69/183/137 94/237/138 93/83/139 70/140/140
f 105/252/141 66/253/142 65/254/143 106/255/144
f 115/96/145 116/81/146 44/80/147 43/107/148
f 37/25/149 110/82/150 109/28/151 38/206/152
f 179/256/16 180/73/55 172/178/54 171/257/153
f 103/249/154 104/248/155 64/218/156 63/116/157
f 123/258/158 124/259/159 68/260/160 67/261/161
f 111/27/162 112/242/163 72/216/164 71/215/165
f 119/45/166 120/92/150 40/91/167 39/46/168
f 121/58/169 42/57/170 41/90/171 122/89/172
f 32/213/173 31/37/174 95/84/175 96/238/176
f 99/262/177 100/263/39 76/264/178 75/265/179
f 29/226/180 102/247/176 101/246/181 30/115/182
f 107/266/183 108/52/184 36/51/185 35/267/186
f 97/268/187 34/269/188 33/270/189 98/271/190
f 61/223/191 118/244/192 117/243/193 62/221/194
f 103/249/4 63/116/4 6/113/4
f 143/170/195 15/106/27 19/135/34 144/272/72
f 134/68/196 178/273/197 137/166/198
f 147/274/199 146/97/200 144/192/201
f 177/278/43 166/279/203 174/168/204
f 179/256/16 170/280/205 178/273/206
f 173/285/207 168/286/208 176/98/209
f 150/291/15 131/292/15 125/293/15 152/294/15
f 131/302/15 201/303/15 204/304/15 125/305/15
f 155/306/1 127/307/1 129/308/1 154/309/1
f 18/310/210 140/311/211 139/312/29 14/47/12
f 153/313/31 130/314/31 132/315/31 149/316/31
f 204/304/212 203/317/212 126/318/213 125/305/214
f 197/319/215 130/320/216 129/321/217 198/322/215
f 200/324/218 199/325/218 127/326/219 128/327/220
f 202/333/221 201/303/221 131/302/222 132/334/223
f 133/68/21 135/67/224 136/169/225
f 137/166/198 139/124/29 140/311/211
f 141/72/26 143/170/195 144/272/72
f 145/97/48 147/274/226 148/341/227
f 130/314/216 153/313/228 154/309/228 129/308/217
f 151/342/229 152/294/229 125/293/214 126/343/213
f 127/326/1 199/325/1 198/322/1 129/321/1
f 132/315/223 131/292/222 150/291/230 149/316/230
f 130/320/31 197/319/31 202/333/31 132/334/31
f 151/342/84 126/343/84 128/347/84 156/348/84
f 126/318/84 203/317/84 200/324/84 128/327/84
f 173/285/207 174/168/204 166/279/203 165/297/234
f 170/280/205 169/345/235 177/278/43 178/273/206
f 398/201/4 405/349/4 12/155/4 48/35/4
f 175/177/50 176/98/209 168/286/208 167/295/236
f 133/68/21 179/256/237 134/68/196
f 177/278/47 137/166/198 178/273/197
f 141/72/26 175/177/20 142/72/19
f 173/285/25 145/97/48 174/168/47
f 128/347/220 127/307/219 155/306/238 156/348/238
f 135/352/224 17/18/7 13/13/5 136/169/225
f 208/354/242 197/319/242 198/322/242 207/355/242
f 74/356/3 113/95/3 4/94/3 89/193/33
f 206/357/243 201/303/243 202/333/243 205/358/243
f 209/359/244 210/360/244 199/325/244 200/324/244
f 211/361/245 212/362/245 203/317/245 204/304/245
f 197/319/246 208/354/246 205/358/246 202/333/246
f 198/322/247 199/325/247 210/360/247 207/355/247
f 201/303/248 206/357/248 211/361/248 204/304/248
f 417/62/4 418/118/4 26/121/4 22/63/4
f 60/48/13 16/125/30 4/94/3
f 5/14/4 39/46/4 56/15/4
f 97/363/249 98/131/249 100/130/249 99/364/249
f 7/19/4 71/215/4 88/20/4
f 35/365/3 52/12/2 1/11/3 107/366/3
f 75/367/3 92/134/33 3/6/3 99/22/3
f 71/215/4 7/19/4 111/27/4
f 7/19/4 38/206/4 109/28/4
f 53/9/4 38/206/4 7/19/4
f 48/35/4 12/155/4 8/36/4
f 50/143/15 410/142/15 403/368/15 47/369/15
f 5/14/4 62/221/4 117/243/4
f 117/243/4 119/45/4 5/14/4
f 407/370/2 49/3/2 15/106/27 399/371/250
f 105/71/3 107/366/3 1/11/3
f 77/65/4 62/221/4 5/14/4
f 140/69/211 18/310/210 412/44/11 17/18/7
f 140/69/211 17/18/7 135/67/224
f 134/68/196 137/166/198 140/69/211
f 121/58/3 123/100/3 2/59/3
f 142/72/19 175/177/20 180/73/20
f 95/84/4 31/37/4 8/36/4
f 8/36/4 70/140/4 93/83/4
f 146/97/24 173/285/25 176/98/25
f 84/99/6 18/310/210 2/59/3
f 2/59/3 14/47/12 57/60/13
f 4/94/3 20/194/73 89/193/33
f 6/113/4 10/158/4 45/114/4
f 80/64/4 22/63/4 6/113/4
f 26/121/4 406/120/4 405/349/4 10/158/4
f 19/135/34 92/372/33 422/373/33 89/193/33
f 8/36/4 24/105/4 85/104/4
f 4/94/3 16/125/30 20/194/73
f 16/125/30 148/341/227 147/374/226 20/194/73
f 58/232/1 409/231/1 401/220/1 55/375/1
f 138/166/46 145/97/48 148/167/227
f 148/167/227 16/125/30 139/124/29
f 138/166/46 177/278/47 174/168/47
f 142/72/19 133/68/21 136/169/225
f 136/169/225 13/13/5 399/371/250 15/106/27
f 136/169/225 15/106/27 143/170/195
f 175/177/50 167/295/236 172/178/54
f 56/376/110 55/375/110 401/220/110 408/8/110
f 9/16/4 402/7/4 404/75/4 25/377/4
f 88/378/89 87/217/89 413/207/89 421/103/89
f 90/225/31 423/126/31 413/129/31 87/379/31
f 45/114/4 10/158/4 405/349/4 398/201/4
f 9/16/4 56/376/4 408/8/4 402/7/4
f 84/189/74 83/380/74 424/196/74 420/195/74
f 27/74/4 23/21/4 414/102/4 416/157/4
f 82/197/84 424/196/84 415/381/84 79/382/84
f 92/185/115 91/127/115 423/126/115 422/224/115
f 48/35/79 47/214/79 403/202/79 398/201/79
f 52/200/35 51/383/35 410/142/35 407/141/35
f 21/66/4 25/377/4 418/118/4 417/62/4
f 80/64/120 79/219/120 415/227/120 411/61/120
f 60/48/125 59/384/125 409/231/125 400/49/125
f 404/75/4 27/74/4 416/157/4 419/119/4
f 84/99/6 420/42/6 412/44/11 18/310/210
f 23/21/4 88/378/4 421/103/4 414/102/4
f 25/377/4 404/75/4 419/119/4 418/118/4
f 77/65/4 21/66/4 417/62/4 411/61/4
f 30/115/4 101/246/4 6/113/4
f 101/246/4 103/249/4 6/113/4
f 14/47/12 2/59/3 18/310/210
f 134/68/196 179/256/237 178/273/197
f 146/97/24 141/72/26 144/192/72
f 52/385/2 407/370/2 399/371/250 13/13/5
f 144/192/72 20/194/73 147/274/226
f 177/278/43 169/345/235 166/279/203
f 179/256/16 171/257/153 170/280/205
f 173/285/207 165/297/234 168/286/208
f 17/18/7 1/11/3 13/13/5
f 133/68/251 134/68/17 135/67/16
f 137/166/252 138/166/44 139/124/43
f 141/72/253 142/72/51 143/170/50
f 145/97/254 146/97/200 147/274/199
f 133/68/21 180/73/20 179/256/237
f 177/278/47 138/166/46 137/166/198
f 141/72/26 176/98/25 175/177/20
f 173/285/25 146/97/24 145/97/48
f 206/357/3 205/358/3 208/354/3
f 208/354/3 207/355/3 210/360/3
f 210/360/3 209/359/3 212/362/3
f 212/362/3 211/361/3 206/357/3
f 223/386/255 224/163/255 217/39/255 219/38/255
f 214/387/84 218/388/84 232/388/84 229/387/84
f 300/389/23 290/390/23 244/391/23 271/392/23
f 215/393/84 222/394/84 223/386/84 219/38/84
f 41/191/256 58/190/256 55/205/256 40/204/256
f 216/397/257 221/398/258 214/387/258
f 220/399/258 222/400/257 216/397/257
f 218/388/257 223/386/258 220/399/258
f 214/387/258 224/163/257 218/388/257
f 227/401/259 263/402/259 239/403/259
f 273/404/22 233/405/22 260/406/23 311/407/22
f 381/408/3 397/408/3 390/122/3 374/122/3
f 220/399/31 216/397/31 230/397/31 231/399/31
f 265/411/22 240/412/22 264/413/22 310/414/22
f 225/405/260 261/415/260 237/416/260
f 228/410/31 249/86/31 264/413/31
f 243/417/84 258/418/84 227/401/84
f 266/419/22 241/180/22 279/420/22 309/421/22
f 269/422/22 237/416/22 280/423/22 308/424/22
f 281/425/22 253/426/22 268/179/22 307/427/22
f 257/428/22 242/429/22 284/430/22 305/431/22
f 206/357/3 208/354/3 210/360/3 212/362/3
f 409/231/1 59/384/1 54/26/1 401/220/1
f 410/142/15 51/383/15 46/110/15 403/368/15
f 5/14/4 9/16/4 25/377/4 21/66/4
f 68/260/84 124/259/84 118/174/84 61/432/84
f 292/433/22 245/434/23 272/435/22 298/436/22
f 106/255/84 65/254/84 64/437/84 104/438/84
f 280/423/22 296/439/22 293/136/22 253/426/22
f 424/196/84 83/380/84 78/442/84 415/381/84
f 406/120/4 28/156/4 12/155/4 405/349/4
f 253/426/22 293/136/22 297/139/22 268/179/22
f 298/436/22 272/435/22 240/412/22 265/411/22
f 256/137/22 292/433/22 298/436/22 294/138/22
f 279/420/22 299/441/22 289/440/22 252/447/22
f 267/448/23 300/389/23 271/392/23 239/403/23
f 241/180/22 277/161/22 299/441/22 279/420/22
f 252/447/22 289/440/22 300/389/23 267/448/23
f 301/88/23 276/87/23 236/410/23 259/450/23
f 290/390/23 301/88/23 259/450/23 244/391/23
f 255/444/22 288/85/22 301/88/23 290/390/23
f 270/451/22 302/79/22 285/395/22 243/417/22
f 238/452/22 278/76/22 302/79/22 270/451/22
f 303/396/23 286/453/23 248/454/23 275/455/23
f 258/418/23 303/396/23 275/455/23 235/401/23
f 243/417/22 285/395/22 303/396/23 258/418/23
f 304/456/23 267/448/23 239/403/23 263/402/23
f 286/453/23 304/456/23 263/402/23 248/454/23
f 234/409/22 257/428/22 305/431/22 274/458/23
f 283/459/22 307/427/22 266/419/22 251/77/22
f 262/460/22 306/461/22 278/76/22 238/452/22
f 254/443/22 281/425/22 307/427/22 283/459/22
f 284/430/22 308/424/22 281/425/22 254/443/22
f 242/429/22 269/422/22 308/424/22 284/430/22
f 251/77/22 266/419/22 309/421/22 287/78/22
f 310/414/22 264/413/22 249/86/22 288/85/22
f 250/162/22 265/411/22 310/414/22 291/462/22
f 311/407/22 260/406/23 245/434/23 292/433/22
f 246/464/22 273/404/22 311/407/22 295/463/22
f 282/465/22 254/443/22 283/459/22 306/461/22
f 274/458/23 305/431/22 282/465/22 247/466/23
f 247/466/23 282/465/22 306/461/22 262/460/22
f 104/438/268 102/53/268 108/235/268 106/234/268
f 216/397/257 222/400/257 221/398/258
f 220/399/258 223/386/258 222/400/257
f 218/388/257 224/163/257 223/386/258
f 214/387/258 221/398/258 224/163/257
f 236/410/259 228/410/259 259/450/259
f 228/410/259 227/401/259 239/403/259
f 259/450/259 228/410/259 244/391/259
f 227/401/259 235/401/259 275/455/259
f 227/401/259 275/455/259 248/454/259
f 244/391/259 228/410/259 271/392/259
f 271/392/259 228/410/259 239/403/259
f 227/401/259 248/454/259 263/402/259
f 234/409/260 226/409/260 257/428/260
f 226/409/260 225/405/260 237/416/260
f 257/428/260 226/409/260 242/429/260
f 225/405/260 233/405/260 273/404/260
f 225/405/260 273/404/260 246/464/260
f 242/429/260 226/409/260 269/422/260
f 269/422/260 226/409/260 237/416/260
f 225/405/260 246/464/260 261/415/260
f 233/405/31 225/405/31 260/406/31
f 225/405/31 228/410/31 240/412/31
f 260/406/31 225/405/31 245/434/31
f 228/410/31 236/410/31 276/87/31
f 228/410/31 276/87/31 249/86/31
f 272/435/31 225/405/31 240/412/31
f 272/435/31 245/434/31 225/405/31
f 264/413/31 240/412/31 228/410/31
f 235/401/84 227/401/84 258/418/84
f 227/401/84 226/409/84 238/452/84
f 243/417/84 227/401/84 270/451/84
f 226/409/84 234/409/84 274/458/84
f 274/458/84 247/466/84 226/409/84
f 247/466/84 262/460/84 226/409/84
f 262/460/84 238/452/84 226/409/84
f 238/452/84 270/451/84 227/401/84
f 237/416/22 261/415/22 296/439/22 280/423/22
f 98/271/15 33/270/15 32/467/15 96/132/15
f 261/415/22 246/464/22 295/463/22 296/439/22
f 380/160/15 396/160/15 397/408/15 381/408/15
f 76/264/31 100/263/31 94/468/31 69/154/31
f 114/151/31 73/150/31 72/469/31 112/171/31
f 277/161/22 250/162/22 291/462/22 299/441/22
f 83/188/270 68/187/270 61/432/270 78/470/270
f 289/440/22 255/444/22 290/390/23 300/389/23
f 375/123/31 382/55/31 374/122/31
f 376/1/84 385/34/84 384/33/84
f 378/117/84 385/34/84 377/2/84
f 376/1/84 387/112/84 379/181/84
f 378/117/84 387/112/84 386/111/84
f 381/408/31 388/159/31 380/160/31
f 374/122/31 389/93/31 381/408/31
f 375/123/31 388/159/31 383/56/31
f 200/324/271 203/317/271 212/362/271 209/359/271
f 419/119/4 416/157/4 28/156/4 406/120/4
f 379/181/41 395/181/41 392/1/41 376/1/41
f 65/212/272 82/211/272 79/471/272 64/472/272
f 33/230/273 50/229/273 47/473/273 32/474/273
f 220/399/267 231/399/267 232/388/267 218/388/267
f 221/445/260 222/394/260 215/393/260 213/446/260
f 375/123/31 383/56/31 382/55/31
f 376/1/84 377/2/84 385/34/84
f 378/117/84 386/111/84 385/34/84
f 376/1/84 384/33/84 387/112/84
f 378/117/84 379/181/84 387/112/84
f 381/408/31 389/93/31 388/159/31
f 374/122/31 382/55/31 389/93/31
f 375/123/31 380/160/31 388/159/31
f 214/387/255 229/387/255 230/397/255 216/397/255
usemtl M_Orange.030
f 153/145/3 186/146/3 188/147/3
f 187/275/202 188/147/202 189/276/202 190/277/202
f 189/276/31 188/147/31 186/146/31 196/281/31
f 163/282/4 183/283/4 162/284/4
f 160/287/4 191/288/4 164/289/4
f 159/290/4 189/276/4 196/281/4
f 156/299/3 193/300/3 151/301/3
f 151/301/3 193/300/3 194/323/3 152/294/3
f 184/328/1 182/329/1 187/275/1 190/277/1
f 192/330/84 193/331/84 181/332/84 183/283/84
f 154/335/3 182/329/3 155/336/3
f 152/294/3 185/337/3 150/291/3
f 157/338/4 184/328/4 190/277/4
f 159/290/4 196/281/4 195/344/4 160/287/4
f 155/336/3 182/329/3 181/332/3 156/299/3
f 149/316/3 150/291/3 185/337/3 186/146/3
f 194/323/239 193/331/239 192/330/239 191/288/239
f 184/328/240 183/283/240 181/332/240 182/329/240
f 185/337/241 195/344/241 196/281/241 186/146/241
f 195/344/15 185/337/15 194/323/15 191/288/15
f 184/328/4 161/350/4 162/284/4 183/283/4
f 164/289/4 191/288/4 192/330/4 163/282/4
f 154/335/3 153/145/3 188/147/3 187/351/3
f 158/353/4 157/338/4 190/277/4 189/276/4
f 153/145/3 149/316/3 186/146/3
f 163/282/4 192/330/4 183/283/4
f 160/287/4 195/344/4 191/288/4
f 159/290/4 158/353/4 189/276/4
f 156/299/3 181/332/3 193/300/3
f 154/335/3 187/351/3 182/329/3
f 152/294/3 194/323/3 185/337/3
f 157/338/4 161/350/4 184/328/4
usemtl M_Noir_Profond.024
f 277/161/42 315/161/42 316/162/42 250/162/42
f 172/178/15 167/295/15 160/287/15 164/296/15
f 168/286/31 165/297/31 158/298/31 159/290/31
f 170/339/84 171/257/84 163/340/84 162/284/84
f 166/279/1 169/345/1 161/346/1 157/338/1
f 159/290/231 160/287/231 167/295/231 168/286/231
f 162/284/232 161/346/232 169/345/232 170/339/232
f 164/296/233 163/340/233 171/257/233 172/178/233
f 285/395/31 329/395/31 349/396/31 303/396/31
f 226/409/22 229/387/22 225/405/22
f 227/401/22 230/397/22 226/409/22
f 228/410/22 231/399/22 227/401/22
f 228/410/22 229/387/22 232/388/22
f 293/136/261 335/136/261 336/137/261 256/137/261
f 289/440/31 299/441/31 347/441/31 332/440/31
f 289/440/263 332/440/263 333/444/263 255/444/263
f 296/439/31 344/439/31 335/136/31 293/136/31
f 266/419/42 312/419/42 313/180/42 241/180/42
f 256/137/261 336/137/261 343/433/261 292/433/261
f 284/430/264 327/430/264 351/431/264 305/431/264
f 288/85/84 342/85/84 356/414/84 310/414/84
f 298/436/265 346/436/265 337/138/265 294/138/265
f 308/424/31 354/424/31 323/425/31 281/425/31
f 250/162/42 316/162/42 339/411/42 265/411/42
f 278/76/42 317/76/42 318/77/42 251/77/42
f 280/423/264 321/423/264 354/424/264 308/424/264
f 311/407/264 357/407/264 338/463/264 295/463/264
f 165/297/266 166/279/266 157/338/266 158/298/266
f 265/411/84 339/411/84 346/436/84 298/436/84
f 281/425/261 323/425/261 322/426/261 253/426/261
f 279/420/264 319/420/264 355/421/264 309/421/264
f 291/462/264 334/462/264 347/441/264 299/441/264
f 282/465/261 324/465/261 325/443/261 254/443/261
f 309/421/264 355/421/264 331/78/264 287/78/264
f 283/459/265 326/459/265 352/461/265 306/461/265
f 285/395/31 302/79/31 348/79/31 329/395/31
f 311/407/84 292/433/84 343/433/84 357/407/84
f 295/463/264 338/463/264 344/439/264 296/439/264
f 277/161/31 297/139/31 345/139/31 315/161/31
f 305/431/31 351/431/31 324/465/31 282/465/31
f 303/396/267 349/396/267 341/453/267 286/453/267
f 310/414/264 356/414/264 334/462/264 291/462/264
f 268/179/265 314/179/265 353/427/265 307/427/265
f 278/76/31 306/461/31 352/461/31 317/76/31
f 294/138/265 337/138/265 345/139/265 297/139/265
f 304/456/267 350/456/267 340/448/267 267/448/267
f 266/419/31 307/427/31 353/427/31 312/419/31
f 255/444/263 333/444/263 342/85/263 288/85/263
f 286/453/267 341/453/267 350/456/267 304/456/267
f 226/409/22 230/397/22 229/387/22
f 227/401/22 231/399/22 230/397/22
f 228/410/22 232/388/22 231/399/22
f 228/410/22 225/405/22 229/387/22
f 287/78/264 331/78/264 348/79/264 302/79/264
usemtl M_Gris_Metal.023
f 361/33/1 384/33/1 385/34/1 360/34/1
f 358/55/1 382/55/1 383/56/1 359/56/1
f 362/93/3 389/93/3 382/55/3 358/55/3
f 364/111/15 386/111/15 387/112/15 365/112/15
f 363/159/15 388/159/15 389/93/15 362/93/15
f 365/112/262 387/112/262 384/33/262 361/33/262
f 359/56/262 383/56/262 388/159/262 363/159/262
f 284/430/84 254/443/84 325/443/84 327/430/84
f 367/445/15 368/394/15 369/393/15 366/446/15
f 280/423/84 253/426/84 322/426/84 321/423/84
f 252/447/84 320/447/84 319/420/84 279/420/84
f 241/180/84 313/180/84 314/179/84 268/179/84
f 267/448/84 340/448/84 320/447/84 252/447/84
f 251/77/84 318/77/84 326/459/84 283/459/84
f 371/386/1 372/163/1 373/39/1 370/38/1
f 359/56/31 366/165/31 358/55/31
f 361/33/84 369/393/84 368/394/84
f 364/111/84 369/393/84 360/34/84
f 361/33/84 371/386/84 365/112/84
f 364/111/84 371/386/84 370/38/84
f 362/93/31 372/163/31 363/159/31
f 358/55/31 373/39/31 362/93/31
f 359/56/31 372/163/31 367/164/31
f 368/400/269 367/398/269 372/163/269 371/386/269
f 370/38/4 373/39/4 366/40/4 369/41/4
f 360/34/3 385/34/3 386/111/3 364/111/3
f 359/56/31 367/164/31 366/165/31
f 361/33/84 360/34/84 369/393/84
f 364/111/84 370/38/84 369/393/84
f 361/33/84 368/394/84 371/386/84
f 364/111/84 365/112/84 371/386/84
f 362/93/31 373/39/31 372/163/31
f 358/55/31 366/165/31 373/39/31
f 359/56/31 363/159/31 372/163/31
usemtl M_Cyan.025
f 393/2/84 392/1/84 395/181/84 394/117/84
f 355/421/22 319/420/22 320/447/22 328/449/22
f 331/78/22 355/421/22 328/449/22 330/457/22
f 352/461/22 326/459/22 318/77/22 317/76/22
f 328/449/22 320/447/22 340/448/22 350/456/22
f 329/395/22 330/457/22 341/453/22 349/396/22
f 344/439/22 338/463/22 336/137/22 335/136/22
f 345/139/22 337/138/22 316/162/22 315/161/22
f 337/138/22 346/436/22 339/411/22 316/162/22
f 347/441/22 334/462/22 333/444/22 332/440/22
f 348/79/22 331/78/22 330/457/22 329/395/22
f 330/457/22 328/449/22 350/456/22 341/453/22
f 351/431/22 327/430/22 325/443/22 324/465/22
f 353/427/22 314/179/22 313/180/22 312/419/22
f 354/424/22 321/423/22 322/426/22 323/425/22
f 334/462/22 356/414/22 342/85/22 333/444/22
f 338/463/22 357/407/22 343/433/22 336/137/22
f 396/160/31 391/123/31 390/122/31 397/408/31
