# Blender 4.2.3 LTS
# www.blender.org
mtllib SM_Cell.mtl
o SM_Cell
v 0.000000 -0.126987 -0.122768
v 0.000000 0.126987 -0.122768
v 0.023951 0.126987 -0.120409
v 0.023951 -0.126987 -0.120409
v 0.046981 0.126987 -0.113423
v 0.046981 -0.126987 -0.113423
v 0.068206 0.126987 -0.102078
v 0.068206 -0.126987 -0.102078
v 0.086810 0.126987 -0.086810
v 0.086810 -0.126987 -0.086810
v 0.102078 0.126987 -0.068206
v 0.102078 -0.126987 -0.068206
v 0.113423 0.126987 -0.046981
v 0.113423 -0.126987 -0.046981
v 0.120409 0.126987 -0.023951
v 0.120409 -0.126987 -0.023951
v 0.122768 0.126987 -0.000000
v 0.122768 -0.126987 -0.000000
v 0.120409 0.126987 0.023951
v 0.120409 -0.126987 0.023951
v 0.113423 0.126987 0.046981
v 0.113423 -0.126987 0.046981
v 0.102078 0.126987 0.068206
v 0.102078 -0.126987 0.068206
v 0.086810 0.126987 0.086810
v 0.086810 -0.126987 0.086810
v 0.068206 0.126987 0.102078
v 0.068206 -0.126987 0.102078
v 0.046981 0.126987 0.113423
v 0.046981 -0.126987 0.113423
v 0.023951 0.126987 0.120409
v 0.023951 -0.126987 0.120409
v 0.000000 0.126987 0.122768
v 0.000000 -0.126987 0.122768
v -0.023951 0.126987 0.120409
v -0.023951 -0.126987 0.120409
v -0.046981 0.126987 0.113423
v -0.046981 -0.126987 0.113423
v -0.068206 0.126987 0.102078
v -0.068206 -0.126987 0.102078
v -0.086810 0.126987 0.086810
v -0.086810 -0.126987 0.086810
v -0.102078 0.126987 0.068206
v -0.102078 -0.126987 0.068206
v -0.113423 0.126987 0.046981
v -0.113423 -0.126987 0.046981
v -0.120409 0.126987 0.023951
v -0.120409 -0.126987 0.023951
v -0.122768 0.126987 -0.000000
v -0.122768 -0.126987 -0.000000
v -0.120409 0.126987 -0.023951
v -0.120409 -0.126987 -0.023951
v -0.113423 0.126987 -0.046981
v -0.113423 -0.126987 -0.046981
v -0.102078 0.126987 -0.068206
v -0.102078 -0.126987 -0.068206
v -0.086810 0.126987 -0.086810
v -0.086810 -0.126987 -0.086810
v -0.068206 0.126987 -0.102078
v -0.068206 -0.126987 -0.102078
v -0.046981 0.126987 -0.113423
v -0.046981 -0.126987 -0.113423
v -0.023951 0.126987 -0.120409
v -0.023951 -0.126987 -0.120409
v 0.000000 -0.126987 -0.110721
v 0.000000 0.126987 -0.110721
v 0.021601 0.126987 -0.108593
v 0.021601 -0.126987 -0.108593
v 0.042371 0.126987 -0.102293
v 0.042371 -0.126987 -0.102293
v 0.061513 0.126987 -0.092061
v 0.061513 -0.126987 -0.092061
v 0.078292 0.126987 -0.078292
v 0.078292 -0.126987 -0.078292
v 0.092061 0.126987 -0.061513
v 0.092061 -0.126987 -0.061513
v 0.102293 0.126987 -0.042371
v 0.102293 -0.126987 -0.042371
v 0.108593 0.126987 -0.021601
v 0.108593 -0.126987 -0.021601
v 0.110721 0.126987 -0.000000
v 0.110721 -0.126987 -0.000000
v 0.108593 0.126987 0.021601
v 0.108593 -0.126987 0.021601
v 0.102293 0.126987 0.042371
v 0.102293 -0.126987 0.042371
v 0.092061 0.126987 0.061513
v 0.092061 -0.126987 0.061513
v 0.078292 0.126987 0.078292
v 0.078292 -0.126987 0.078292
v 0.061513 0.126987 0.092061
v 0.061513 -0.126987 0.092061
v 0.042371 0.126987 0.102293
v 0.042371 -0.126987 0.102293
v 0.021601 0.126987 0.108593
v 0.021601 -0.126987 0.108593
v 0.000000 0.126987 0.110721
v 0.000000 -0.126987 0.110721
v -0.021601 0.126987 0.108593
v -0.021601 -0.126987 0.108593
v -0.042371 0.126987 0.102293
v -0.042371 -0.126987 0.102293
v -0.061513 0.126987 0.092061
v -0.061513 -0.126987 0.092061
v -0.078292 0.126987 0.078292
v -0.078292 -0.126987 0.078292
v -0.092061 0.126987 0.061513
v -0.092061 -0.126987 0.061513
v -0.102293 0.126987 0.042371
v -0.102293 -0.126987 0.042371
v -0.108593 0.126987 0.021601
v -0.108593 -0.126987 0.021601
v -0.110721 0.126987 -0.000000
v -0.110721 -0.126987 -0.000000
v -0.108593 0.126987 -0.021601
v -0.108593 -0.126987 -0.021601
v -0.102293 0.126987 -0.042371
v -0.102293 -0.126987 -0.042371
v -0.092061 0.126987 -0.061513
v -0.092061 -0.126987 -0.061513
v -0.078292 0.126987 -0.078292
v -0.078292 -0.126987 -0.078292
v -0.061513 0.126987 -0.092061
v -0.061513 -0.126987 -0.092061
v -0.042371 0.126987 -0.102293
v -0.042371 -0.126987 -0.102293
v -0.021601 0.126987 -0.108593
v -0.021601 -0.126987 -0.108593
v 0.000000 -0.145207 -0.107709
v 0.000000 0.145207 -0.107709
v 0.021013 0.145207 -0.105639
v 0.021013 -0.145207 -0.105639
v 0.041219 0.145207 -0.099510
v 0.041219 -0.145207 -0.099510
v 0.059840 0.145207 -0.089557
v 0.059840 -0.145207 -0.089557
v 0.076162 0.145207 -0.076162
v 0.076162 -0.145207 -0.076162
v 0.089557 0.145207 -0.059840
v 0.089557 -0.145207 -0.059840
v 0.099510 0.145207 -0.041218
v 0.099510 -0.145207 -0.041218
v 0.105639 0.145207 -0.021013
v 0.105639 -0.145207 -0.021013
v 0.107709 0.145207 -0.000000
v 0.107709 -0.145207 -0.000000
v 0.105639 0.145207 0.021013
v 0.105639 -0.145207 0.021013
v 0.099510 0.145207 0.041218
v 0.099510 -0.145207 0.041218
v 0.089557 0.145207 0.059840
v 0.089557 -0.145207 0.059840
v 0.076162 0.145207 0.076162
v 0.076162 -0.145207 0.076162
v 0.059840 0.145207 0.089557
v 0.059840 -0.145207 0.089557
v 0.041219 0.145207 0.099510
v 0.041219 -0.145207 0.099510
v 0.021013 0.145207 0.105639
v 0.021013 -0.145207 0.105639
v 0.000000 0.145207 0.107709
v 0.000000 -0.145207 0.107709
v -0.021013 0.145207 0.105639
v -0.021013 -0.145207 0.105639
v -0.041218 0.145207 0.099510
v -0.041218 -0.145207 0.099510
v -0.059840 0.145207 0.089557
v -0.059840 -0.145207 0.089557
v -0.076162 0.145207 0.076162
v -0.076162 -0.145207 0.076162
v -0.089557 0.145207 0.059840
v -0.089557 -0.145207 0.059840
v -0.099510 0.145207 0.041218
v -0.099510 -0.145207 0.041218
v -0.105639 0.145207 0.021013
v -0.105639 -0.145207 0.021013
v -0.107709 0.145207 -0.000000
v -0.107709 -0.145207 -0.000000
v -0.105639 0.145207 -0.021013
v -0.105639 -0.145207 -0.021013
v -0.099510 0.145207 -0.041218
v -0.099510 -0.145207 -0.041218
v -0.089557 0.145207 -0.059840
v -0.089557 -0.145207 -0.059840
v -0.076162 0.145207 -0.076162
v -0.076162 -0.145207 -0.076162
v -0.059840 0.145207 -0.089557
v -0.059840 -0.145207 -0.089557
v -0.041218 0.145207 -0.099510
v -0.041218 -0.145207 -0.099510
v -0.021013 0.145207 -0.105639
v -0.021013 -0.145207 -0.105639
v 0.000000 -0.145207 -0.102829
v 0.000000 0.145207 -0.102829
v 0.020061 0.145207 -0.100853
v 0.020061 -0.145207 -0.100853
v 0.039351 0.145207 -0.095001
v 0.039351 -0.145207 -0.095001
v 0.057129 0.145207 -0.085499
v 0.057129 -0.145207 -0.085499
v 0.072711 0.145207 -0.072711
v 0.072711 -0.145207 -0.072711
v 0.085499 0.145207 -0.057129
v 0.085499 -0.145207 -0.057129
v 0.095001 0.145207 -0.039351
v 0.095001 -0.145207 -0.039351
v 0.100853 0.145207 -0.020061
v 0.100853 -0.145207 -0.020061
v 0.102829 0.145207 -0.000000
v 0.102829 -0.145207 -0.000000
v 0.100853 0.145207 0.020061
v 0.100853 -0.145207 0.020061
v 0.095001 0.145207 0.039351
v 0.095001 -0.145207 0.039351
v 0.085499 0.145207 0.057129
v 0.085499 -0.145207 0.057129
v 0.072711 0.145207 0.072711
v 0.072711 -0.145207 0.072711
v 0.057129 0.145207 0.085499
v 0.057129 -0.145207 0.085499
v 0.039351 0.145207 0.095001
v 0.039351 -0.145207 0.095001
v 0.020061 0.145207 0.100853
v 0.020061 -0.145207 0.100853
v 0.000000 0.145207 0.102829
v 0.000000 -0.145207 0.102829
v -0.020061 0.145207 0.100853
v -0.020061 -0.145207 0.100853
v -0.039351 0.145207 0.095001
v -0.039351 -0.145207 0.095001
v -0.057129 0.145207 0.085499
v -0.057129 -0.145207 0.085499
v -0.072711 0.145207 0.072711
v -0.072711 -0.145207 0.072711
v -0.085499 0.145207 0.057129
v -0.085499 -0.145207 0.057129
v -0.095001 0.145207 0.039351
v -0.095001 -0.145207 0.039351
v -0.100853 0.145207 0.020061
v -0.100853 -0.145207 0.020061
v -0.102829 0.145207 -0.000000
v -0.102829 -0.145207 -0.000000
v -0.100853 0.145207 -0.020061
v -0.100853 -0.145207 -0.020061
v -0.095001 0.145207 -0.039351
v -0.095001 -0.145207 -0.039351
v -0.085499 0.145207 -0.057129
v -0.085499 -0.145207 -0.057129
v -0.072711 0.145207 -0.072711
v -0.072711 -0.145207 -0.072711
v -0.057129 0.145207 -0.085499
v -0.057129 -0.145207 -0.085499
v -0.039351 0.145207 -0.095001
v -0.039351 -0.145207 -0.095001
v -0.020061 0.145207 -0.100853
v -0.020061 -0.145207 -0.100853
v 0.000000 -0.048402 -0.102829
v 0.000000 0.048402 -0.102829
v 0.020061 0.048402 -0.100853
v 0.020061 -0.048402 -0.100853
v 0.039351 0.048402 -0.095001
v 0.039351 -0.048402 -0.095001
v 0.057129 0.048402 -0.085499
v 0.057129 -0.048402 -0.085499
v 0.072711 0.048402 -0.072711
v 0.072711 -0.048402 -0.072711
v 0.085499 0.048402 -0.057129
v 0.085499 -0.048402 -0.057129
v 0.095001 0.048402 -0.039351
v 0.095001 -0.048402 -0.039351
v 0.100853 0.048402 -0.020061
v 0.100853 -0.048402 -0.020061
v 0.102829 0.048402 -0.000000
v 0.102829 -0.048402 -0.000000
v 0.100853 0.048402 0.020061
v 0.100853 -0.048402 0.020061
v 0.095001 0.048402 0.039351
v 0.095001 -0.048402 0.039351
v 0.085499 0.048402 0.057129
v 0.085499 -0.048402 0.057129
v 0.072711 0.048402 0.072711
v 0.072711 -0.048402 0.072711
v 0.057129 0.048402 0.085499
v 0.057129 -0.048402 0.085499
v 0.039351 0.048402 0.095001
v 0.039351 -0.048402 0.095001
v 0.020061 0.048402 0.100853
v 0.020061 -0.048402 0.100853
v 0.000000 0.048402 0.102829
v 0.000000 -0.048402 0.102829
v -0.020061 0.048402 0.100853
v -0.020061 -0.048402 0.100853
v -0.039351 0.048402 0.095001
v -0.039351 -0.048402 0.095001
v -0.057129 0.048402 0.085499
v -0.057129 -0.048402 0.085499
v -0.072711 0.048402 0.072711
v -0.072711 -0.048402 0.072711
v -0.085499 0.048402 0.057129
v -0.085499 -0.048402 0.057129
v -0.095001 0.048402 0.039351
v -0.095001 -0.048402 0.039351
v -0.100853 0.048402 0.020061
v -0.100853 -0.048402 0.020061
v -0.102829 0.048402 -0.000000
v -0.102829 -0.048402 -0.000000
v -0.100853 0.048402 -0.020061
v -0.100853 -0.048402 -0.020061
v -0.095001 0.048402 -0.039351
v -0.095001 -0.048402 -0.039351
v -0.085499 0.048402 -0.057129
v -0.085499 -0.048402 -0.057129
v -0.072711 0.048402 -0.072711
v -0.072711 -0.048402 -0.072711
v -0.057129 0.048402 -0.085499
v -0.057129 -0.048402 -0.085499
v -0.039351 0.048402 -0.095001
v -0.039351 -0.048402 -0.095001
v -0.020061 0.048402 -0.100853
v -0.020061 -0.048402 -0.100853
v 0.000000 -0.048402 -0.099838
v 0.000000 0.048402 -0.099838
v 0.019477 0.048402 -0.097920
v 0.019477 -0.048402 -0.097920
v 0.038206 0.048402 -0.092239
v 0.038206 -0.048402 -0.092239
v 0.055467 0.048402 -0.083013
v 0.055467 -0.048402 -0.083013
v 0.070596 0.048402 -0.070596
v 0.070596 -0.048402 -0.070596
v 0.083013 0.048402 -0.055467
v 0.083013 -0.048402 -0.055467
v 0.092239 0.048402 -0.038206
v 0.092239 -0.048402 -0.038206
v 0.097920 0.048402 -0.019477
v 0.097920 -0.048402 -0.019477
v 0.099838 0.048402 -0.000000
v 0.099838 -0.048402 -0.000000
v 0.097920 0.048402 0.019477
v 0.097920 -0.048402 0.019477
v 0.092239 0.048402 0.038206
v 0.092239 -0.048402 0.038206
v 0.083013 0.048402 0.055467
v 0.083013 -0.048402 0.055467
v 0.070596 0.048402 0.070596
v 0.070596 -0.048402 0.070596
v 0.055467 0.048402 0.083013
v 0.055467 -0.048402 0.083013
v 0.038206 0.048402 0.092239
v 0.038206 -0.048402 0.092239
v 0.019477 0.048402 0.097920
v 0.019477 -0.048402 0.097920
v 0.000000 0.048402 0.099838
v 0.000000 -0.048402 0.099838
v -0.019477 0.048402 0.097920
v -0.019477 -0.048402 0.097920
v -0.038206 0.048402 0.092239
v -0.038206 -0.048402 0.092239
v -0.055467 0.048402 0.083013
v -0.055467 -0.048402 0.083013
v -0.070596 0.048402 0.070596
v -0.070596 -0.048402 0.070596
v -0.083013 0.048402 0.055467
v -0.083013 -0.048402 0.055467
v -0.092239 0.048402 0.038206
v -0.092239 -0.048402 0.038206
v -0.097920 0.048402 0.019477
v -0.097920 -0.048402 0.019477
v -0.099838 0.048402 -0.000000
v -0.099838 -0.048402 -0.000000
v -0.097920 0.048402 -0.019477
v -0.097920 -0.048402 -0.019477
v -0.092239 0.048402 -0.038206
v -0.092239 -0.048402 -0.038206
v -0.083013 0.048402 -0.055467
v -0.083013 -0.048402 -0.055467
v -0.070596 0.048402 -0.070596
v -0.070596 -0.048402 -0.070596
v -0.055467 0.048402 -0.083013
v -0.055467 -0.048402 -0.083013
v -0.038206 0.048402 -0.092239
v -0.038206 -0.048402 -0.092239
v -0.019477 0.048402 -0.097920
v -0.019477 -0.048402 -0.097920
v 0.000000 -0.200929 -0.075673
v 0.000000 -0.179064 -0.122768
v 0.000000 0.200929 -0.075673
v 0.000000 0.179064 -0.122768
v 0.014763 -0.200929 -0.074219
v 0.023951 -0.179064 -0.120409
v 0.014763 0.200929 -0.074219
v 0.023951 0.179064 -0.120409
v 0.028959 -0.200929 -0.069912
v 0.046981 -0.179064 -0.113423
v 0.028959 0.200929 -0.069912
v 0.046981 0.179064 -0.113423
v 0.042042 -0.200929 -0.062920
v 0.068206 -0.179064 -0.102078
v 0.042042 0.200929 -0.062920
v 0.068206 0.179064 -0.102078
v 0.053509 -0.200929 -0.053509
v 0.086810 -0.179064 -0.086810
v 0.053509 0.200929 -0.053509
v 0.086810 0.179064 -0.086810
v 0.062920 -0.200929 -0.042041
v 0.102078 -0.179064 -0.068206
v 0.062920 0.200929 -0.042041
v 0.102078 0.179064 -0.068206
v 0.069912 -0.200929 -0.028959
v 0.113423 -0.179064 -0.046981
v 0.069912 0.200929 -0.028959
v 0.113423 0.179064 -0.046981
v 0.074219 -0.200929 -0.014763
v 0.120409 -0.179064 -0.023951
v 0.074219 0.200929 -0.014763
v 0.120409 0.179064 -0.023951
v 0.075673 -0.200929 -0.000000
v 0.122768 -0.179064 -0.000000
v 0.075673 0.200929 -0.000000
v 0.122768 0.179064 -0.000000
v 0.074219 -0.200929 0.014763
v 0.120409 -0.179064 0.023951
v 0.074219 0.200929 0.014763
v 0.120409 0.179064 0.023951
v 0.069912 -0.200929 0.028959
v 0.113423 -0.179064 0.046981
v 0.069912 0.200929 0.028959
v 0.113423 0.179064 0.046981
v 0.062920 -0.200929 0.042041
v 0.102078 -0.179064 0.068206
v 0.062920 0.200929 0.042041
v 0.102078 0.179064 0.068206
v 0.053509 -0.200929 0.053509
v 0.086810 -0.179064 0.086810
v 0.053509 0.200929 0.053509
v 0.086810 0.179064 0.086810
v 0.042041 -0.200929 0.062920
v 0.068206 -0.179064 0.102078
v 0.042041 0.200929 0.062920
v 0.068206 0.179064 0.102078
v 0.028959 -0.200929 0.069912
v 0.046981 -0.179064 0.113423
v 0.028959 0.200929 0.069912
v 0.046981 0.179064 0.113423
v 0.014763 -0.200929 0.074219
v 0.023951 -0.179064 0.120409
v 0.014763 0.200929 0.074219
v 0.023951 0.179064 0.120409
v 0.000000 -0.200929 0.075673
v 0.000000 -0.179064 0.122768
v 0.000000 0.200929 0.075673
v 0.000000 0.179064 0.122768
v -0.014763 -0.200929 0.074219
v -0.023951 -0.179064 0.120409
v -0.014763 0.200929 0.074219
v -0.023951 0.179064 0.120409
v -0.028959 -0.200929 0.069912
v -0.046981 -0.179064 0.113423
v -0.028959 0.200929 0.069912
v -0.046981 0.179064 0.113423
v -0.042041 -0.200929 0.062920
v -0.068206 -0.179064 0.102078
v -0.042041 0.200929 0.062920
v -0.068206 0.179064 0.102078
v -0.053509 -0.200929 0.053509
v -0.086810 -0.179064 0.086810
v -0.053509 0.200929 0.053509
v -0.086810 0.179064 0.086810
v -0.062920 -0.200929 0.042041
v -0.102078 -0.179064 0.068206
v -0.062920 0.200929 0.042041
v -0.102078 0.179064 0.068206
v -0.069912 -0.200929 0.028959
v -0.113423 -0.179064 0.046981
v -0.069912 0.200929 0.028959
v -0.113423 0.179064 0.046981
v -0.074219 -0.200929 0.014763
v -0.120409 -0.179064 0.023951
v -0.074219 0.200929 0.014763
v -0.120409 0.179064 0.023951
v -0.075673 -0.200929 -0.000000
v -0.122768 -0.179064 -0.000000
v -0.075673 0.200929 -0.000000
v -0.122768 0.179064 -0.000000
v -0.074219 -0.200929 -0.014763
v -0.120409 -0.179064 -0.023951
v -0.074219 0.200929 -0.014763
v -0.120409 0.179064 -0.023951
v -0.069912 -0.200929 -0.028959
v -0.113423 -0.179064 -0.046981
v -0.069912 0.200929 -0.028959
v -0.113423 0.179064 -0.046981
v -0.062920 -0.200929 -0.042041
v -0.102078 -0.179064 -0.068206
v -0.062920 0.200929 -0.042041
v -0.102078 0.179064 -0.068206
v -0.053509 -0.200929 -0.053509
v -0.086810 -0.179064 -0.086810
v -0.053509 0.200929 -0.053509
v -0.086810 0.179064 -0.086810
v -0.042041 -0.200929 -0.062920
v -0.068206 -0.179064 -0.102078
v -0.042041 0.200929 -0.062920
v -0.068206 0.179064 -0.102078
v -0.028959 -0.200929 -0.069912
v -0.046981 -0.179064 -0.113423
v -0.028959 0.200929 -0.069912
v -0.046981 0.179064 -0.113423
v -0.014763 -0.200929 -0.074219
v -0.023951 -0.179064 -0.120409
v -0.014763 0.200929 -0.074219
v -0.023951 0.179064 -0.120409
v 0.019665 -0.200929 -0.098861
v 0.000000 -0.200929 -0.100798
v 0.000000 0.200929 -0.100798
v 0.019665 0.200929 -0.098861
v 0.038574 -0.200929 -0.093125
v 0.038574 0.200929 -0.093125
v 0.056000 -0.200929 -0.083810
v 0.056000 0.200929 -0.083810
v 0.071275 -0.200929 -0.071275
v 0.071275 0.200929 -0.071275
v 0.083810 -0.200929 -0.056000
v 0.083810 0.200929 -0.056000
v 0.093125 -0.200929 -0.038574
v 0.093125 0.200929 -0.038574
v 0.098861 -0.200929 -0.019665
v 0.098861 0.200929 -0.019665
v 0.100798 -0.200929 -0.000000
v 0.100798 0.200929 -0.000000
v 0.098861 -0.200929 0.019665
v 0.098861 0.200929 0.019665
v 0.093125 -0.200929 0.038574
v 0.093125 0.200929 0.038574
v 0.083810 -0.200929 0.056000
v 0.083810 0.200929 0.056000
v 0.071275 -0.200929 0.071275
v 0.071275 0.200929 0.071275
v 0.056000 -0.200929 0.083810
v 0.056000 0.200929 0.083810
v 0.038574 -0.200929 0.093125
v 0.038574 0.200929 0.093125
v 0.019665 -0.200929 0.098861
v 0.019665 0.200929 0.098861
v 0.000000 -0.200929 0.100798
v 0.000000 0.200929 0.100798
v -0.019665 -0.200929 0.098861
v -0.019665 0.200929 0.098861
v -0.038574 -0.200929 0.093125
v -0.038574 0.200929 0.093125
v -0.056000 -0.200929 0.083810
v -0.056000 0.200929 0.083810
v -0.071275 -0.200929 0.071275
v -0.071275 0.200929 0.071275
v -0.083810 -0.200929 0.056000
v -0.083810 0.200929 0.056000
v -0.093125 -0.200929 0.038574
v -0.093125 0.200929 0.038574
v -0.098861 -0.200929 0.019665
v -0.098861 0.200929 0.019665
v -0.100798 -0.200929 -0.000000
v -0.100798 0.200929 -0.000000
v -0.098861 -0.200929 -0.019665
v -0.098861 0.200929 -0.019665
v -0.093125 -0.200929 -0.038574
v -0.093125 0.200929 -0.038574
v -0.083810 -0.200929 -0.056000
v -0.083810 0.200929 -0.056000
v -0.071275 -0.200929 -0.071275
v -0.071275 0.200929 -0.071275
v -0.056000 -0.200929 -0.083810
v -0.056000 0.200929 -0.083810
v -0.038574 -0.200929 -0.093125
v -0.038574 0.200929 -0.093125
v -0.019665 -0.200929 -0.098861
v -0.019665 0.200929 -0.098861
v 0.013591 -0.189733 -0.068325
v 0.000000 -0.189733 -0.069664
v 0.000000 0.189733 -0.069664
v 0.013591 0.189733 -0.068325
v 0.026659 -0.189733 -0.064361
v 0.026659 0.189733 -0.064361
v 0.038703 -0.189733 -0.057923
v 0.038703 0.189733 -0.057923
v 0.049260 -0.189733 -0.049260
v 0.049260 0.189733 -0.049260
v 0.057923 -0.189733 -0.038703
v 0.057923 0.189733 -0.038703
v 0.064361 -0.189733 -0.026659
v 0.064361 0.189733 -0.026659
v 0.068325 -0.189733 -0.013591
v 0.068325 0.189733 -0.013591
v 0.069664 -0.189733 -0.000000
v 0.069664 0.189733 -0.000000
v 0.068325 -0.189733 0.013591
v 0.068325 0.189733 0.013591
v 0.064361 -0.189733 0.026659
v 0.064361 0.189733 0.026659
v 0.057923 -0.189733 0.038703
v 0.057923 0.189733 0.038703
v 0.049260 -0.189733 0.049260
v 0.049260 0.189733 0.049260
v 0.038703 -0.189733 0.057923
v 0.038703 0.189733 0.057923
v 0.026659 -0.189733 0.064361
v 0.026659 0.189733 0.064361
v 0.013591 -0.189733 0.068325
v 0.013591 0.189733 0.068325
v 0.000000 -0.189733 0.069664
v 0.000000 0.189733 0.069664
v -0.013591 -0.189733 0.068325
v -0.013591 0.189733 0.068325
v -0.026659 -0.189733 0.064361
v -0.026659 0.189733 0.064361
v -0.038703 -0.189733 0.057923
v -0.038703 0.189733 0.057923
v -0.049260 -0.189733 0.049260
v -0.049260 0.189733 0.049260
v -0.057923 -0.189733 0.038703
v -0.057923 0.189733 0.038703
v -0.064361 -0.189733 0.026659
v -0.064361 0.189733 0.026659
v -0.068325 -0.189733 0.013591
v -0.068325 0.189733 0.013591
v -0.069664 -0.189733 -0.000000
v -0.069664 0.189733 -0.000000
v -0.068325 -0.189733 -0.013591
v -0.068325 0.189733 -0.013591
v -0.064361 -0.189733 -0.026659
v -0.064361 0.189733 -0.026659
v -0.057923 -0.189733 -0.038703
v -0.057923 0.189733 -0.038703
v -0.049260 -0.189733 -0.049260
v -0.049260 0.189733 -0.049260
v -0.038703 -0.189733 -0.057923
v -0.038703 0.189733 -0.057923
v -0.026659 -0.189733 -0.064361
v -0.026659 0.189733 -0.064361
v -0.013591 -0.189733 -0.068325
v -0.013591 0.189733 -0.068325
v 0.014763 -0.189733 -0.074219
v 0.000000 -0.189733 -0.075673
v 0.000000 0.189733 -0.075673
v 0.014763 0.189733 -0.074219
v 0.028959 -0.189733 -0.069912
v 0.028959 0.189733 -0.069912
v 0.042042 -0.189733 -0.062920
v 0.042042 0.189733 -0.062920
v 0.053509 -0.189733 -0.053509
v 0.053509 0.189733 -0.053509
v 0.062920 -0.189733 -0.042041
v 0.062920 0.189733 -0.042041
v 0.069912 -0.189733 -0.028959
v 0.069912 0.189733 -0.028959
v 0.074219 -0.189733 -0.014763
v 0.074219 0.189733 -0.014763
v 0.075673 -0.189733 -0.000000
v 0.075673 0.189733 -0.000000
v 0.074219 -0.189733 0.014763
v 0.074219 0.189733 0.014763
v 0.069912 -0.189733 0.028959
v 0.069912 0.189733 0.028959
v 0.062920 -0.189733 0.042041
v 0.062920 0.189733 0.042041
v 0.053509 -0.189733 0.053509
v 0.053509 0.189733 0.053509
v 0.042041 -0.189733 0.062920
v 0.042041 0.189733 0.062920
v 0.028959 -0.189733 0.069912
v 0.028959 0.189733 0.069912
v 0.014763 -0.189733 0.074219
v 0.014763 0.189733 0.074219
v 0.000000 -0.189733 0.075673
v 0.000000 0.189733 0.075673
v -0.014763 -0.189733 0.074219
v -0.014763 0.189733 0.074219
v -0.028959 -0.189733 0.069912
v -0.028959 0.189733 0.069912
v -0.042041 -0.189733 0.062920
v -0.042041 0.189733 0.062920
v -0.053509 -0.189733 0.053509
v -0.053509 0.189733 0.053509
v -0.062920 -0.189733 0.042041
v -0.062920 0.189733 0.042041
v -0.069912 -0.189733 0.028959
v -0.069912 0.189733 0.028959
v -0.074219 -0.189733 0.014763
v -0.074219 0.189733 0.014763
v -0.075673 -0.189733 -0.000000
v -0.075673 0.189733 -0.000000
v -0.074219 -0.189733 -0.014763
v -0.074219 0.189733 -0.014763
v -0.069912 -0.189733 -0.028959
v -0.069912 0.189733 -0.028959
v -0.062920 -0.189733 -0.042041
v -0.062920 0.189733 -0.042041
v -0.053509 -0.189733 -0.053509
v -0.053509 0.189733 -0.053509
v -0.042041 -0.189733 -0.062920
v -0.042041 0.189733 -0.062920
v -0.028959 -0.189733 -0.069912
v -0.028959 0.189733 -0.069912
v -0.014763 -0.189733 -0.074219
v -0.014763 0.189733 -0.074219
v 0.011355 -0.210821 -0.057088
v 0.000000 -0.210821 -0.058206
v 0.000000 0.210821 -0.058206
v 0.011355 0.210821 -0.057088
v 0.022275 -0.210821 -0.053776
v 0.022275 0.210821 -0.053776
v 0.032338 -0.210821 -0.048397
v 0.032338 0.210821 -0.048397
v 0.041158 -0.210821 -0.041158
v 0.041158 0.210821 -0.041158
v 0.048397 -0.210821 -0.032338
v 0.048397 0.210821 -0.032338
v 0.053776 -0.210821 -0.022275
v 0.053776 0.210821 -0.022275
v 0.057088 -0.210821 -0.011356
v 0.057088 0.210821 -0.011356
v 0.058206 -0.210821 -0.000000
v 0.058206 0.210821 -0.000000
v 0.057088 -0.210821 0.011356
v 0.057088 0.210821 0.011356
v 0.053776 -0.210821 0.022275
v 0.053776 0.210821 0.022275
v 0.048397 -0.210821 0.032338
v 0.048397 0.210821 0.032338
v 0.041158 -0.210821 0.041158
v 0.041158 0.210821 0.041158
v 0.032338 -0.210821 0.048397
v 0.032338 0.210821 0.048397
v 0.022275 -0.210821 0.053776
v 0.022275 0.210821 0.053776
v 0.011355 -0.210821 0.057088
v 0.011355 0.210821 0.057088
v 0.000000 -0.210821 0.058206
v 0.000000 0.210821 0.058206
v -0.011355 -0.210821 0.057088
v -0.011355 0.210821 0.057088
v -0.022275 -0.210821 0.053776
v -0.022275 0.210821 0.053776
v -0.032338 -0.210821 0.048397
v -0.032338 0.210821 0.048397
v -0.041158 -0.210821 0.041158
v -0.041158 0.210821 0.041158
v -0.048397 -0.210821 0.032338
v -0.048397 0.210821 0.032338
v -0.053776 -0.210821 0.022275
v -0.053776 0.210821 0.022275
v -0.057088 -0.210821 0.011355
v -0.057088 0.210821 0.011355
v -0.058206 -0.210821 -0.000000
v -0.058206 0.210821 -0.000000
v -0.057088 -0.210821 -0.011355
v -0.057088 0.210821 -0.011355
v -0.053776 -0.210821 -0.022275
v -0.053776 0.210821 -0.022275
v -0.048397 -0.210821 -0.032338
v -0.048397 0.210821 -0.032338
v -0.041158 -0.210821 -0.041158
v -0.041158 0.210821 -0.041158
v -0.032338 -0.210821 -0.048397
v -0.032338 0.210821 -0.048397
v -0.022275 -0.210821 -0.053776
v -0.022275 0.210821 -0.053776
v -0.011355 -0.210821 -0.057088
v -0.011355 0.210821 -0.057088
vn -0.0980 -0.0000 -0.9952
vn 0.4714 -0.0000 -0.8819
vn 0.6344 -0.0000 -0.7730
vn 0.7730 -0.0000 -0.6344
vn 0.8819 -0.0000 -0.4714
vn 0.9569 -0.0000 -0.2903
vn 0.9952 -0.0000 -0.0980
vn 0.9952 -0.0000 0.0980
vn 0.9569 -0.0000 0.2903
vn 0.8819 -0.0000 0.4714
vn 0.7730 -0.0000 0.6344
vn 0.6344 -0.0000 0.7730
vn 0.4714 -0.0000 0.8819
vn 0.2903 -0.0000 0.9569
vn 0.0980 -0.0000 0.9952
vn -0.0980 -0.0000 0.9952
vn -0.2903 -0.0000 0.9569
vn -0.4714 -0.0000 0.8819
vn -0.6344 -0.0000 0.7730
vn -0.7730 -0.0000 0.6344
vn -0.8819 -0.0000 0.4714
vn -0.9569 -0.0000 0.2903
vn -0.9952 -0.0000 0.0980
vn -0.9952 -0.0000 -0.0980
vn -0.9569 -0.0000 -0.2903
vn -0.8819 -0.0000 -0.4714
vn -0.7730 -0.0000 -0.6344
vn -0.6344 -0.0000 -0.7730
vn -0.4714 -0.0000 -0.8819
vn -0.2903 -0.0000 -0.9569
vn 0.0980 -0.0000 -0.9952
vn 0.2903 -0.0000 -0.9569
vn -0.0000 -1.0000 -0.0000
vn -0.0000 1.0000 -0.0000
vn 0.7628 -0.1623 -0.6260
vn -0.9820 -0.1623 0.0967
vn 0.7628 0.1623 -0.6260
vn -0.9820 0.1623 0.0967
vn 0.8702 -0.1623 -0.4651
vn -0.9820 -0.1623 -0.0967
vn 0.8702 0.1623 -0.4651
vn -0.9820 0.1623 -0.0967
vn 0.9442 -0.1623 -0.2864
vn -0.9442 -0.1623 -0.2864
vn 0.9442 0.1623 -0.2864
vn -0.9442 0.1623 -0.2864
vn 0.9820 -0.1623 -0.0967
vn -0.8702 -0.1623 -0.4651
vn 0.9820 0.1623 -0.0967
vn -0.8702 0.1623 -0.4651
vn 0.9820 -0.1623 0.0967
vn -0.7628 -0.1623 -0.6260
vn 0.9820 0.1623 0.0967
vn -0.7628 0.1623 -0.6260
vn 0.9442 -0.1623 0.2864
vn -0.6260 -0.1623 -0.7628
vn 0.9442 0.1623 0.2864
vn -0.6260 0.1623 -0.7628
vn 0.8702 -0.1623 0.4651
vn -0.4651 -0.1623 -0.8702
vn -0.0967 -0.1623 0.9820
vn 0.8702 0.1623 0.4651
vn -0.4651 0.1623 -0.8702
vn -0.0967 0.1623 0.9820
vn 0.7628 -0.1623 0.6260
vn -0.2864 -0.1623 -0.9442
vn -0.9442 0.1623 0.2864
vn 0.6260 0.1623 -0.7628
vn -0.9442 -0.1623 0.2864
vn 0.6260 -0.1623 -0.7628
vn -0.8702 0.1623 0.4651
vn 0.4651 0.1623 -0.8702
vn 0.0967 0.1623 0.9820
vn -0.8702 -0.1623 0.4651
vn 0.4651 -0.1623 -0.8702
vn 0.0967 -0.1623 0.9820
vn -0.7628 0.1623 0.6260
vn 0.2864 0.1623 -0.9442
vn 0.2864 0.1623 0.9442
vn -0.7628 -0.1623 0.6260
vn 0.2864 -0.1623 -0.9442
vn 0.2864 -0.1623 0.9442
vn -0.6260 0.1623 0.7628
vn 0.0967 0.1623 -0.9820
vn 0.4651 0.1623 0.8702
vn -0.6260 -0.1623 0.7628
vn 0.0967 -0.1623 -0.9820
vn 0.4651 -0.1623 0.8702
vn -0.4651 0.1623 0.8702
vn -0.0967 0.1623 -0.9820
vn 0.6260 0.1623 0.7628
vn -0.4651 -0.1623 0.8702
vn -0.0967 -0.1623 -0.9820
vn 0.6260 -0.1623 0.7628
vn -0.2864 0.1623 0.9442
vn -0.2864 0.1623 -0.9442
vn 0.7628 0.1623 0.6260
vn -0.2864 -0.1623 0.9442
vn 0.0693 -0.7071 -0.7037
vn 0.0693 0.7071 -0.7037
vn 0.2053 -0.7071 -0.6767
vn 0.2053 0.7071 -0.6767
vn 0.3333 -0.7071 -0.6236
vn 0.3333 0.7071 -0.6236
vn 0.4486 -0.7071 -0.5466
vn 0.4486 0.7071 -0.5466
vn 0.5466 -0.7071 -0.4486
vn 0.5466 0.7071 -0.4486
vn 0.6236 -0.7071 -0.3333
vn 0.6236 0.7071 -0.3333
vn 0.6767 -0.7071 -0.2053
vn 0.6767 0.7071 -0.2053
vn 0.7037 -0.7071 -0.0693
vn 0.7037 0.7071 -0.0693
vn 0.7037 -0.7071 0.0693
vn 0.7037 0.7071 0.0693
vn 0.6767 -0.7071 0.2053
vn 0.6767 0.7071 0.2053
vn 0.6236 -0.7071 0.3333
vn 0.6236 0.7071 0.3333
vn 0.5466 -0.7071 0.4486
vn 0.5466 0.7071 0.4486
vn 0.4486 -0.7071 0.5466
vn 0.4486 0.7071 0.5466
vn 0.3333 -0.7071 0.6236
vn 0.3333 0.7071 0.6236
vn 0.2053 -0.7071 0.6767
vn 0.2053 0.7071 0.6767
vn 0.0693 -0.7071 0.7037
vn 0.0693 0.7071 0.7037
vn -0.0693 -0.7071 0.7037
vn -0.0693 0.7071 0.7037
vn -0.2053 -0.7071 0.6767
vn -0.2053 0.7071 0.6767
vn -0.3333 -0.7071 0.6236
vn -0.3333 0.7071 0.6236
vn -0.4486 -0.7071 0.5466
vn -0.4486 0.7071 0.5466
vn -0.5466 -0.7071 0.4486
vn -0.5466 0.7071 0.4486
vn -0.6236 -0.7071 0.3333
vn -0.6236 0.7071 0.3333
vn -0.6767 -0.7071 0.2053
vn -0.6767 0.7071 0.2053
vn -0.7037 -0.7071 0.0693
vn -0.7037 0.7071 0.0693
vn -0.7037 -0.7071 -0.0693
vn -0.7037 0.7071 -0.0693
vn -0.6767 -0.7071 -0.2053
vn -0.6767 0.7071 -0.2053
vn -0.6236 -0.7071 -0.3333
vn -0.6236 0.7071 -0.3333
vn -0.5466 -0.7071 -0.4486
vn -0.5466 0.7071 -0.4486
vn -0.4486 -0.7071 -0.5466
vn -0.4486 0.7071 -0.5466
vn -0.3333 -0.7071 -0.6236
vn -0.3333 0.7071 -0.6236
vn -0.2053 -0.7071 -0.6767
vn -0.2053 0.7071 -0.6767
vn -0.0693 -0.7071 -0.7037
vn -0.0693 0.7071 -0.7037
vn -0.6800 0.4756 0.5580
vn 0.8754 -0.4756 -0.0862
vn 0.8754 0.4756 -0.0862
vn -0.7758 -0.4756 0.4147
vn 0.8754 -0.4756 0.0862
vn -0.7758 0.4756 0.4147
vn 0.8754 0.4756 0.0862
vn -0.8418 -0.4756 0.2553
vn 0.8418 -0.4756 0.2553
vn -0.8418 0.4756 0.2553
vn 0.8418 0.4756 0.2553
vn -0.8754 -0.4756 0.0862
vn 0.7758 -0.4756 0.4147
vn -0.8754 0.4756 0.0862
vn 0.7758 0.4756 0.4147
vn -0.8754 -0.4756 -0.0862
vn 0.6800 -0.4756 0.5580
vn -0.8754 0.4756 -0.0862
vn 0.6800 0.4756 0.5580
vn -0.8418 -0.4756 -0.2553
vn 0.5580 -0.4756 0.6800
vn -0.8418 0.4756 -0.2553
vn 0.5580 0.4756 0.6800
vn -0.7758 -0.4756 -0.4147
vn 0.4147 -0.4756 0.7758
vn 0.0862 -0.4756 -0.8754
vn -0.7758 0.4756 -0.4147
vn 0.4147 0.4756 0.7758
vn 0.0862 0.4756 -0.8754
vn -0.6800 -0.4756 -0.5580
vn 0.2553 -0.4756 0.8418
vn 0.2553 -0.4756 -0.8418
vn -0.6800 0.4756 -0.5580
vn 0.2553 0.4756 0.8418
vn 0.2553 0.4756 -0.8418
vn -0.5580 -0.4756 -0.6800
vn 0.0862 -0.4756 0.8754
vn 0.4147 -0.4756 -0.7758
vn -0.5580 0.4756 -0.6800
vn 0.0862 0.4756 0.8754
vn 0.4147 0.4756 -0.7758
vn -0.4147 -0.4756 -0.7758
vn -0.0862 -0.4756 0.8754
vn 0.5580 -0.4756 -0.6800
vn -0.4147 0.4756 -0.7758
vn -0.0862 0.4756 0.8754
vn 0.5580 0.4756 -0.6800
vn -0.2553 -0.4756 -0.8418
vn -0.2553 -0.4756 0.8418
vn 0.6800 -0.4756 -0.5580
vn -0.2553 0.4756 -0.8418
vn -0.2553 0.4756 0.8418
vn 0.6800 0.4756 -0.5580
vn -0.0862 -0.4756 -0.8754
vn -0.4147 -0.4756 0.7758
vn 0.7758 -0.4756 -0.4147
vn -0.0862 0.4756 -0.8754
vn -0.4147 0.4756 0.7758
vn 0.7758 0.4756 -0.4147
vn -0.5580 -0.4756 0.6800
vn 0.8418 -0.4756 -0.2553
vn -0.5580 0.4756 0.6800
vn 0.8418 0.4756 -0.2553
vn -0.6800 -0.4756 0.5580
vt 0.031250 0.833333
vt 0.031250 0.950717
vt 0.000000 0.950717
vt 0.000000 0.833333
vt 0.937500 0.549283
vt 0.937500 0.666667
vt 0.906250 0.666667
vt 0.906250 0.549283
vt 0.906250 0.549283
vt 0.875000 0.666667
vt 0.875000 0.549283
vt 0.843750 0.666667
vt 0.843750 0.549283
vt 0.843750 0.549283
vt 0.812500 0.666667
vt 0.812500 0.549283
vt 0.812500 0.549283
vt 0.781250 0.666667
vt 0.781250 0.549283
vt 0.781250 0.549283
vt 0.750000 0.666667
vt 0.750000 0.549283
vt 0.750000 0.549283
vt 0.718750 0.666667
vt 0.718750 0.549283
vt 0.687500 0.666667
vt 0.687500 0.549283
vt 0.656250 0.666667
vt 0.656250 0.549283
vt 0.625000 0.666667
vt 0.625000 0.549283
vt 0.625000 0.549283
vt 0.593750 0.666667
vt 0.593750 0.549283
vt 0.562500 0.666667
vt 0.562500 0.549283
vt 0.531250 0.666667
vt 0.531250 0.549283
vt 0.500000 0.666667
vt 0.500000 0.549283
vt 0.468750 0.666667
vt 0.468750 0.549283
vt 0.437500 0.666667
vt 0.437500 0.549283
vt 0.437500 0.549283
vt 0.406250 0.666667
vt 0.406250 0.549283
vt 0.406250 0.549283
vt 0.375000 0.666667
vt 0.375000 0.549283
vt 0.375000 0.549283
vt 0.343750 0.666667
vt 0.343750 0.549283
vt 0.312500 0.666667
vt 0.312500 0.549283
vt 0.281250 0.666667
vt 0.281250 0.549283
vt 0.250000 0.666667
vt 0.250000 0.549283
vt 0.218750 0.666667
vt 0.218750 0.549283
vt 0.187500 0.666667
vt 0.187500 0.549283
vt 0.156250 0.666667
vt 0.156250 0.549283
vt 0.156250 0.549283
vt 0.125000 0.666667
vt 0.125000 0.549283
vt 0.125000 0.549283
vt 0.093750 0.666667
vt 0.093750 0.549283
vt 0.093750 0.549283
vt 0.062500 0.666667
vt 0.062500 0.549283
vt 0.031250 0.666667
vt 0.031250 0.549283
vt 1.000000 0.833333
vt 1.000000 0.950717
vt 0.968750 0.950717
vt 0.968750 0.833333
vt 0.968750 0.549283
vt 0.968750 0.666667
vt 0.937500 0.549283
vt 0.000000 0.666667
vt 0.000000 0.549283
vt 0.373001 0.167813
vt 0.386672 0.193389
vt 0.062500 0.833333
vt 0.062500 0.950717
vt 0.093750 0.833333
vt 0.093750 0.950717
vt 0.062500 0.950717
vt 0.125000 0.833333
vt 0.125000 0.950717
vt 1.000000 0.666667
vt 0.156250 0.833333
vt 0.156250 0.950717
vt 0.125000 0.950717
vt 0.187500 0.833333
vt 0.187500 0.950717
vt 0.156250 0.950717
vt 0.562500 0.833333
vt 0.531250 0.833333
vt 0.218750 0.833333
vt 0.218750 0.950717
vt 0.187500 0.950717
vt 0.937500 0.833333
vt 0.250000 0.833333
vt 0.250000 0.950717
vt 0.281250 0.833333
vt 0.281250 0.950717
vt 0.312500 0.833333
vt 0.312500 0.950717
vt 0.343750 0.833333
vt 0.343750 0.950717
vt 0.312500 0.950717
vt 0.375000 0.833333
vt 0.375000 0.950717
vt 0.500000 0.833333
vt 0.406250 0.833333
vt 0.406250 0.950717
vt 0.375000 0.950717
vt 0.906250 0.833333
vt 0.437500 0.833333
vt 0.437500 0.950717
vt 0.406250 0.950717
vt 0.468750 0.833333
vt 0.468750 0.950717
vt 0.437500 0.950717
vt 0.500000 0.950717
vt 0.531250 0.950717
vt 0.562500 0.950717
vt 0.593750 0.833333
vt 0.593750 0.950717
vt 0.562500 0.950717
vt 0.875000 0.833333
vt 0.625000 0.833333
vt 0.625000 0.950717
vt 0.656250 0.833333
vt 0.656250 0.950717
vt 0.625000 0.950717
vt 0.687500 0.833333
vt 0.687500 0.950717
vt 0.718750 0.833333
vt 0.718750 0.950717
vt 0.750000 0.833333
vt 0.750000 0.950717
vt 0.781250 0.833333
vt 0.781250 0.950717
vt 0.750000 0.950717
vt 0.843750 0.833333
vt 0.812500 0.833333
vt 0.812500 0.950717
vt 0.781250 0.950717
vt 0.843750 0.950717
vt 0.812500 0.950717
vt 0.875000 0.950717
vt 0.906250 0.950717
vt 0.937500 0.950717
vt 0.906250 0.950717
vt 0.937500 0.950717
vt 0.102067 0.250000
vt 0.104910 0.221140
vt 0.031250 0.777778
vt 0.000000 0.777778
vt 0.062500 0.777778
vt 0.093750 0.777778
vt 0.125000 0.777778
vt 0.156250 0.777778
vt 0.187500 0.777778
vt 0.218750 0.777778
vt 0.250000 0.777778
vt 0.281250 0.777778
vt 0.312500 0.777778
vt 0.343750 0.777778
vt 0.375000 0.777778
vt 0.406250 0.777778
vt 0.437500 0.777778
vt 0.468750 0.777778
vt 0.500000 0.777778
vt 0.531250 0.777778
vt 0.562500 0.777778
vt 0.593750 0.777778
vt 0.625000 0.777778
vt 0.656250 0.777778
vt 0.687500 0.777778
vt 0.718750 0.777778
vt 0.750000 0.777778
vt 0.781250 0.777778
vt 0.812500 0.777778
vt 0.843750 0.777778
vt 0.875000 0.777778
vt 0.906250 0.777778
vt 0.937500 0.777778
vt 0.968750 0.777778
vt 1.000000 0.777778
vt 1.000000 0.722222
vt 0.968750 0.722222
vt 0.687500 0.722222
vt 0.718750 0.722222
vt 0.937500 0.722222
vt 0.281250 0.722222
vt 0.312500 0.722222
vt 0.906250 0.722222
vt 0.875000 0.722222
vt 0.843750 0.722222
vt 0.750000 0.722222
vt 0.812500 0.722222
vt 0.343750 0.722222
vt 0.781250 0.722222
vt 0.375000 0.722222
vt 0.656250 0.722222
vt 0.625000 0.722222
vt 0.593750 0.722222
vt 0.562500 0.722222
vt 0.406250 0.722222
vt 0.531250 0.722222
vt 0.500000 0.722222
vt 0.468750 0.722222
vt 0.437500 0.722222
vt 0.000000 0.722222
vt 0.031250 0.722222
vt 0.250000 0.722222
vt 0.218750 0.722222
vt 0.187500 0.722222
vt 0.062500 0.722222
vt 0.156250 0.722222
vt 0.125000 0.722222
vt 0.093750 0.722222
vt 0.750000 0.490000
vt 0.796822 0.485388
vt 0.788443 0.443264
vt 0.750000 0.447050
vt 0.296822 0.485388
vt 0.250000 0.490000
vt 0.250000 0.447050
vt 0.288443 0.443264
vt 0.841844 0.471731
vt 0.825408 0.432051
vt 0.341844 0.471731
vt 0.325408 0.432051
vt 0.883337 0.449553
vt 0.859475 0.413841
vt 0.383337 0.449553
vt 0.359475 0.413841
vt 0.919706 0.419706
vt 0.889336 0.389335
vt 0.419706 0.419706
vt 0.389336 0.389336
vt 0.949553 0.383337
vt 0.913841 0.359475
vt 0.449553 0.383337
vt 0.413841 0.359475
vt 0.971731 0.341844
vt 0.932051 0.325408
vt 0.471731 0.341844
vt 0.432051 0.325408
vt 0.985388 0.296822
vt 0.943264 0.288443
vt 0.485388 0.296822
vt 0.443264 0.288443
vt 0.990000 0.250000
vt 0.947050 0.250000
vt 0.490000 0.250000
vt 0.447050 0.250000
vt 0.985388 0.203178
vt 0.943264 0.211557
vt 0.485388 0.203178
vt 0.443264 0.211557
vt 0.971731 0.158156
vt 0.932051 0.174592
vt 0.471731 0.158156
vt 0.432051 0.174592
vt 0.949553 0.116663
vt 0.913841 0.140525
vt 0.449553 0.116663
vt 0.413841 0.140525
vt 0.919706 0.080294
vt 0.889336 0.110665
vt 0.419706 0.080294
vt 0.389336 0.110664
vt 0.883337 0.050447
vt 0.859475 0.086159
vt 0.383337 0.050447
vt 0.359475 0.086159
vt 0.841844 0.028269
vt 0.825408 0.067949
vt 0.341844 0.028269
vt 0.325408 0.067949
vt 0.796822 0.014612
vt 0.788443 0.056736
vt 0.296822 0.014612
vt 0.288443 0.056736
vt 0.750000 0.010000
vt 0.750000 0.052950
vt 0.250000 0.010000
vt 0.250000 0.052950
vt 0.703178 0.014612
vt 0.711557 0.056736
vt 0.203178 0.014612
vt 0.211557 0.056736
vt 0.658156 0.028269
vt 0.674592 0.067949
vt 0.158156 0.028269
vt 0.174592 0.067949
vt 0.616663 0.050447
vt 0.640525 0.086159
vt 0.116663 0.050447
vt 0.140525 0.086159
vt 0.580294 0.080294
vt 0.610665 0.110664
vt 0.080294 0.080294
vt 0.110665 0.110664
vt 0.550447 0.116663
vt 0.586159 0.140525
vt 0.050447 0.116663
vt 0.086159 0.140525
vt 0.528269 0.158156
vt 0.567949 0.174592
vt 0.028269 0.158156
vt 0.067949 0.174592
vt 0.514612 0.203178
vt 0.556736 0.211557
vt 0.014612 0.203178
vt 0.056736 0.211557
vt 0.510000 0.250000
vt 0.552950 0.250000
vt 0.010000 0.250000
vt 0.052950 0.250000
vt 0.514612 0.296822
vt 0.556736 0.288443
vt 0.014612 0.296822
vt 0.056736 0.288443
vt 0.528269 0.341844
vt 0.567949 0.325408
vt 0.028269 0.341844
vt 0.067949 0.325408
vt 0.550447 0.383337
vt 0.586159 0.359475
vt 0.050447 0.383337
vt 0.086159 0.359475
vt 0.580294 0.419706
vt 0.610665 0.389336
vt 0.080294 0.419706
vt 0.110665 0.389335
vt 0.616663 0.449553
vt 0.640525 0.413841
vt 0.116663 0.449553
vt 0.140525 0.413841
vt 0.658156 0.471731
vt 0.674592 0.432051
vt 0.158156 0.471731
vt 0.174592 0.432051
vt 0.703178 0.485388
vt 0.711557 0.443264
vt 0.203178 0.485388
vt 0.211557 0.443264
vt 1.000000 0.549283
vt 0.778860 0.395090
vt 0.750000 0.397933
vt 0.250000 0.397933
vt 0.278860 0.395090
vt 0.806611 0.386672
vt 0.306611 0.386672
vt 0.832187 0.373001
vt 0.332187 0.373001
vt 0.854604 0.354604
vt 0.354604 0.354604
vt 0.873002 0.332187
vt 0.373001 0.332187
vt 0.886672 0.306611
vt 0.386672 0.306611
vt 0.895090 0.278860
vt 0.395090 0.278860
vt 0.897933 0.250000
vt 0.397933 0.250000
vt 0.895090 0.221140
vt 0.395090 0.221140
vt 0.886672 0.193389
vt 0.873002 0.167813
vt 0.854604 0.145396
vt 0.354604 0.145396
vt 0.832187 0.126999
vt 0.332187 0.126998
vt 0.806611 0.113328
vt 0.306611 0.113328
vt 0.778860 0.104910
vt 0.278860 0.104910
vt 0.750000 0.102067
vt 0.250000 0.102067
vt 0.721140 0.104910
vt 0.221140 0.104910
vt 0.693389 0.113328
vt 0.193389 0.113328
vt 0.667813 0.126999
vt 0.167813 0.126998
vt 0.645396 0.145396
vt 0.145396 0.145396
vt 0.626998 0.167813
vt 0.126998 0.167813
vt 0.613328 0.193389
vt 0.113328 0.193389
vt 0.604910 0.221140
vt 0.602067 0.250000
vt 0.604910 0.278860
vt 0.104910 0.278860
vt 0.613328 0.306611
vt 0.113328 0.306611
vt 0.626998 0.332187
vt 0.126998 0.332187
vt 0.645396 0.354604
vt 0.145396 0.354604
vt 0.667813 0.373001
vt 0.167813 0.373001
vt 0.693389 0.386672
vt 0.193389 0.386672
vt 0.721140 0.395090
vt 0.221140 0.395090
vt 0.136766 0.174339
vt 0.153702 0.153702
vt 0.883569 0.276569
vt 0.886185 0.250000
vt 0.776568 0.383569
vt 0.750000 0.386186
vt 0.250000 0.386186
vt 0.276568 0.383569
vt 0.802116 0.375819
vt 0.302116 0.375819
vt 0.825661 0.363234
vt 0.325661 0.363234
vt 0.846298 0.346298
vt 0.346298 0.346298
vt 0.863234 0.325661
vt 0.363234 0.325661
vt 0.875819 0.302116
vt 0.375819 0.302116
vt 0.383569 0.276569
vt 0.386186 0.250000
vt 0.883569 0.223431
vt 0.383569 0.223431
vt 0.875819 0.197884
vt 0.375819 0.197884
vt 0.863234 0.174339
vt 0.363234 0.174339
vt 0.846298 0.153702
vt 0.346298 0.153702
vt 0.825661 0.136766
vt 0.325661 0.136766
vt 0.802116 0.124181
vt 0.302116 0.124181
vt 0.776569 0.116431
vt 0.276569 0.116431
vt 0.750000 0.113814
vt 0.250000 0.113814
vt 0.723431 0.116431
vt 0.223431 0.116431
vt 0.697884 0.124181
vt 0.197884 0.124181
vt 0.674339 0.136766
vt 0.174339 0.136766
vt 0.653702 0.153702
vt 0.636766 0.174339
vt 0.624181 0.197884
vt 0.124181 0.197884
vt 0.616431 0.223432
vt 0.116431 0.223431
vt 0.613814 0.250000
vt 0.113814 0.250000
vt 0.616431 0.276568
vt 0.116431 0.276568
vt 0.624181 0.302116
vt 0.124181 0.302116
vt 0.636766 0.325661
vt 0.136766 0.325661
vt 0.653702 0.346298
vt 0.153702 0.346298
vt 0.674339 0.363234
vt 0.174339 0.363234
vt 0.697884 0.375819
vt 0.197884 0.375819
vt 0.723431 0.383569
vt 0.223431 0.383569
s 0
usemtl M_Noir_Bleuté
f 63/1/1 512/2/1 388/3/1 2/4/1
f 394/5/2 6/6/2 8/7/2 398/8/2
f 398/9/3 8/7/3 10/10/3 402/11/3
f 402/11/4 10/10/4 12/12/4 406/13/4
f 406/14/5 12/12/5 14/15/5 410/16/5
f 410/17/6 14/15/6 16/18/6 414/19/6
f 414/20/7 16/18/7 18/21/7 418/22/7
f 418/23/8 18/21/8 20/24/8 422/25/8
f 422/25/9 20/24/9 22/26/9 426/27/9
f 426/27/10 22/26/10 24/28/10 430/29/10
f 430/29/11 24/28/11 26/30/11 434/31/11
f 434/32/12 26/30/12 28/33/12 438/34/12
f 438/34/13 28/33/13 30/35/13 442/36/13
f 442/36/14 30/35/14 32/37/14 446/38/14
f 446/38/15 32/37/15 34/39/15 450/40/15
f 450/40/16 34/39/16 36/41/16 454/42/16
f 454/42/17 36/41/17 38/43/17 458/44/17
f 458/45/18 38/43/18 40/46/18 462/47/18
f 462/48/19 40/46/19 42/49/19 466/50/19
f 466/51/20 42/49/20 44/52/20 470/53/20
f 470/53/21 44/52/21 46/54/21 474/55/21
f 474/55/22 46/54/22 48/56/22 478/57/22
f 478/57/23 48/56/23 50/58/23 482/59/23
f 482/59/24 50/58/24 52/60/24 486/61/24
f 486/61/25 52/60/25 54/62/25 490/63/25
f 490/63/26 54/62/26 56/64/26 494/65/26
f 494/66/27 56/64/27 58/67/27 498/68/27
f 498/69/28 58/67/28 60/70/28 502/71/28
f 502/72/29 60/70/29 62/73/29 506/74/29
f 506/74/30 62/73/30 64/75/30 510/76/30
f 2/77/31 388/78/31 392/79/31 3/80/31
f 390/81/32 4/82/32 6/6/32 394/83/32
f 510/76/1 64/75/1 1/84/1 386/85/1
f 431/86/26 427/87/26 662/87/26 664/86/26
f 2/77/33 3/80/33 67/80/33 66/77/33
f 61/88/30 508/89/30 512/2/30 63/1/30
f 56/64/34 54/62/34 118/62/34 120/64/34
f 59/90/29 504/91/29 508/92/29 61/88/29
f 30/35/34 28/33/34 92/33/34 94/35/34
f 57/93/28 500/94/28 504/91/28 59/90/28
f 4/82/34 1/95/34 65/95/34 68/82/34
f 55/96/27 496/97/27 500/98/27 57/93/27
f 55/96/33 57/93/33 121/93/33 119/96/33
f 53/99/26 492/100/26 496/101/26 55/96/26
f 29/102/33 31/103/33 95/103/33 93/102/33
f 51/104/25 488/105/25 492/106/25 53/99/25
f 3/80/33 5/107/33 69/107/33 67/80/33
f 49/108/24 484/109/24 488/105/24 51/104/24
f 58/67/34 56/64/34 120/64/34 122/67/34
f 47/110/23 480/111/23 484/109/23 49/108/23
f 32/37/34 30/35/34 94/35/34 96/37/34
f 45/112/22 476/113/22 480/111/22 47/110/22
f 6/6/34 4/82/34 68/82/34 70/6/34
f 43/114/21 472/115/21 476/116/21 45/112/21
f 57/93/33 59/90/33 123/90/33 121/93/33
f 41/117/20 468/118/20 472/115/20 43/114/20
f 31/103/33 33/119/33 97/119/33 95/103/33
f 39/120/19 464/121/19 468/122/19 41/117/19
f 5/107/33 7/123/33 71/123/33 69/107/33
f 37/124/18 460/125/18 464/126/18 39/120/18
f 60/70/34 58/67/34 122/67/34 124/70/34
f 35/127/17 456/128/17 460/129/17 37/124/17
f 34/39/34 32/37/34 96/37/34 98/39/34
f 33/119/16 452/130/16 456/128/16 35/127/16
f 8/7/34 6/6/34 70/6/34 72/7/34
f 31/103/15 448/131/15 452/130/15 33/119/15
f 59/90/33 61/88/33 125/88/33 123/90/33
f 29/102/14 444/132/14 448/131/14 31/103/14
f 33/119/33 35/127/33 99/127/33 97/119/33
f 27/133/13 440/134/13 444/135/13 29/102/13
f 7/123/33 9/136/33 73/136/33 71/123/33
f 25/137/12 436/138/12 440/134/12 27/133/12
f 62/73/34 60/70/34 124/70/34 126/73/34
f 23/139/11 432/140/11 436/141/11 25/137/11
f 36/41/34 34/39/34 98/39/34 100/41/34
f 21/142/10 428/143/10 432/140/10 23/139/10
f 10/10/34 8/7/34 72/7/34 74/10/34
f 19/144/9 424/145/9 428/143/9 21/142/9
f 61/88/33 63/1/33 127/1/33 125/88/33
f 17/146/8 420/147/8 424/145/8 19/144/8
f 35/127/33 37/124/33 101/124/33 99/127/33
f 15/148/7 416/149/7 420/150/7 17/146/7
f 9/136/33 11/151/33 75/151/33 73/136/33
f 13/152/6 412/153/6 416/154/6 15/148/6
f 64/75/34 62/73/34 126/73/34 128/75/34
f 11/151/5 408/155/5 412/156/5 13/152/5
f 38/43/34 36/41/34 100/41/34 102/43/34
f 9/136/4 404/157/4 408/155/4 11/151/4
f 12/12/34 10/10/34 74/10/34 76/12/34
f 7/123/3 400/158/3 404/157/3 9/136/3
f 63/1/33 2/4/33 66/4/33 127/1/33
f 5/107/2 396/159/2 400/160/2 7/123/2
f 37/124/33 39/120/33 103/120/33 101/124/33
f 3/80/32 392/79/32 396/161/32 5/107/32
f 11/151/33 13/152/33 77/152/33 75/151/33
f 483/162/7 479/163/7 688/163/7 690/162/7
f 1/84/34 64/75/34 128/75/34 65/84/34
f 105/117/35 107/114/35 171/114/35 169/117/35
f 79/148/36 81/146/36 145/146/36 143/148/36
f 108/52/37 106/49/37 170/49/37 172/52/37
f 82/21/38 80/18/38 144/18/38 146/21/38
f 107/114/39 109/112/39 173/112/39 171/114/39
f 81/146/40 83/144/40 147/144/40 145/146/40
f 110/54/41 108/52/41 172/52/41 174/54/41
f 84/24/42 82/21/42 146/21/42 148/24/42
f 109/112/43 111/110/43 175/110/43 173/112/43
f 83/144/44 85/142/44 149/142/44 147/144/44
f 112/56/45 110/54/45 174/54/45 176/56/45
f 86/26/46 84/24/46 148/24/46 150/26/46
f 111/110/47 113/108/47 177/108/47 175/110/47
f 85/142/48 87/139/48 151/139/48 149/142/48
f 114/58/49 112/56/49 176/56/49 178/58/49
f 88/28/50 86/26/50 150/26/50 152/28/50
f 113/108/51 115/104/51 179/104/51 177/108/51
f 87/139/52 89/137/52 153/137/52 151/139/52
f 116/60/53 114/58/53 178/58/53 180/60/53
f 90/30/54 88/28/54 152/28/54 154/30/54
f 115/104/55 117/99/55 181/99/55 179/104/55
f 89/137/56 91/133/56 155/133/56 153/137/56
f 118/62/57 116/60/57 180/60/57 182/62/57
f 92/33/58 90/30/58 154/30/58 156/33/58
f 117/99/59 119/96/59 183/96/59 181/99/59
f 91/133/60 93/102/60 157/102/60 155/133/60
f 66/77/61 67/80/61 131/80/61 130/77/61
f 120/64/62 118/62/62 182/62/62 184/64/62
f 94/35/63 92/33/63 156/33/63 158/35/63
f 68/82/64 65/95/64 129/95/64 132/82/64
f 119/96/65 121/93/65 185/93/65 183/96/65
f 93/102/66 95/103/66 159/103/66 157/102/66
f 27/133/33 29/102/33 93/102/33 91/133/33
f 53/99/33 55/96/33 119/96/33 117/99/33
f 28/33/34 26/30/34 90/30/34 92/33/34
f 54/62/34 52/60/34 116/60/34 118/62/34
f 25/137/33 27/133/33 91/133/33 89/137/33
f 51/104/33 53/99/33 117/99/33 115/104/33
f 26/30/34 24/28/34 88/28/34 90/30/34
f 52/60/34 50/58/34 114/58/34 116/60/34
f 23/139/33 25/137/33 89/137/33 87/139/33
f 49/108/33 51/104/33 115/104/33 113/108/33
f 24/28/34 22/26/34 86/26/34 88/28/34
f 50/58/34 48/56/34 112/56/34 114/58/34
f 21/142/33 23/139/33 87/139/33 85/142/33
f 47/110/33 49/108/33 113/108/33 111/110/33
f 22/26/34 20/24/34 84/24/34 86/26/34
f 48/56/34 46/54/34 110/54/34 112/56/34
f 19/144/33 21/142/33 85/142/33 83/144/33
f 45/112/33 47/110/33 111/110/33 109/112/33
f 20/24/34 18/21/34 82/21/34 84/24/34
f 46/54/34 44/52/34 108/52/34 110/54/34
f 17/146/33 19/144/33 83/144/33 81/146/33
f 43/114/33 45/112/33 109/112/33 107/114/33
f 18/21/34 16/18/34 80/18/34 82/21/34
f 44/52/34 42/49/34 106/49/34 108/52/34
f 15/148/33 17/146/33 81/146/33 79/148/33
f 41/117/33 43/114/33 107/114/33 105/117/33
f 16/18/34 14/15/34 78/15/34 80/18/34
f 42/49/34 40/46/34 104/46/34 106/49/34
f 13/152/33 15/148/33 79/148/33 77/152/33
f 39/120/33 41/117/33 105/117/33 103/120/33
f 14/15/34 12/12/34 76/12/34 78/15/34
f 40/46/34 38/43/34 102/43/34 104/46/34
f 139/151/33 141/152/33 205/152/33 203/151/33
f 129/84/34 192/75/34 256/75/34 193/84/34
f 168/46/34 166/43/34 230/43/34 232/46/34
f 142/15/34 140/12/34 204/12/34 206/15/34
f 167/120/33 169/117/33 233/117/33 231/120/33
f 141/152/33 143/148/33 207/148/33 205/152/33
f 170/49/34 168/46/34 232/46/34 234/49/34
f 144/18/34 142/15/34 206/15/34 208/18/34
f 169/117/33 171/114/33 235/114/33 233/117/33
f 143/148/33 145/146/33 209/146/33 207/148/33
f 172/52/34 170/49/34 234/49/34 236/52/34
f 146/21/34 144/18/34 208/18/34 210/21/34
f 171/114/33 173/112/33 237/112/33 235/114/33
f 145/146/33 147/144/33 211/144/33 209/146/33
f 174/54/34 172/52/34 236/52/34 238/54/34
f 148/24/34 146/21/34 210/21/34 212/24/34
f 173/112/33 175/110/33 239/110/33 237/112/33
f 147/144/33 149/142/33 213/142/33 211/144/33
f 176/56/34 174/54/34 238/54/34 240/56/34
f 150/26/34 148/24/34 212/24/34 214/26/34
f 175/110/33 177/108/33 241/108/33 239/110/33
f 149/142/33 151/139/33 215/139/33 213/142/33
f 178/58/34 176/56/34 240/56/34 242/58/34
f 152/28/34 150/26/34 214/26/34 216/28/34
f 177/108/33 179/104/33 243/104/33 241/108/33
f 151/139/33 153/137/33 217/137/33 215/139/33
f 180/60/34 178/58/34 242/58/34 244/60/34
f 154/30/34 152/28/34 216/28/34 218/30/34
f 179/104/33 181/99/33 245/99/33 243/104/33
f 153/137/33 155/133/33 219/133/33 217/137/33
f 182/62/34 180/60/34 244/60/34 246/62/34
f 156/33/34 154/30/34 218/30/34 220/33/34
f 80/18/67 78/15/67 142/15/67 144/18/67
f 106/49/68 104/46/68 168/46/68 170/49/68
f 77/152/69 79/148/69 143/148/69 141/152/69
f 103/120/70 105/117/70 169/117/70 167/120/70
f 78/15/71 76/12/71 140/12/71 142/15/71
f 104/46/72 102/43/72 166/43/72 168/46/72
f 65/84/73 128/75/73 192/75/73 129/84/73
f 75/151/74 77/152/74 141/152/74 139/151/74
f 101/124/75 103/120/75 167/120/75 165/124/75
f 127/1/76 66/4/76 130/4/76 191/1/76
f 76/12/77 74/10/77 138/10/77 140/12/77
f 102/43/78 100/41/78 164/41/78 166/43/78
f 128/75/79 126/73/79 190/73/79 192/75/79
f 73/136/80 75/151/80 139/151/80 137/136/80
f 99/127/81 101/124/81 165/124/81 163/127/81
f 125/88/82 127/1/82 191/1/82 189/88/82
f 74/10/83 72/7/83 136/7/83 138/10/83
f 100/41/84 98/39/84 162/39/84 164/41/84
f 126/73/85 124/70/85 188/70/85 190/73/85
f 71/123/86 73/136/86 137/136/86 135/123/86
f 97/119/87 99/127/87 163/127/87 161/119/87
f 123/90/88 125/88/88 189/88/88 187/90/88
f 72/7/89 70/6/89 134/6/89 136/7/89
f 98/39/90 96/37/90 160/37/90 162/39/90
f 124/70/91 122/67/91 186/67/91 188/70/91
f 69/107/92 71/123/92 135/123/92 133/107/92
f 95/103/93 97/119/93 161/119/93 159/103/93
f 121/93/94 123/90/94 187/90/94 185/93/94
f 70/6/95 68/82/95 132/82/95 134/6/95
f 96/37/96 94/35/96 158/35/96 160/37/96
f 122/67/97 120/64/97 184/64/97 186/67/97
f 67/80/98 69/107/98 133/107/98 131/80/98
f 165/124/33 167/120/33 231/120/33 229/124/33
f 191/1/33 130/4/33 194/4/33 255/1/33
f 140/12/34 138/10/34 202/10/34 204/12/34
f 166/43/34 164/41/34 228/41/34 230/43/34
f 192/75/34 190/73/34 254/73/34 256/75/34
f 137/136/33 139/151/33 203/151/33 201/136/33
f 163/127/33 165/124/33 229/124/33 227/127/33
f 189/88/33 191/1/33 255/1/33 253/88/33
f 138/10/34 136/7/34 200/7/34 202/10/34
f 164/41/34 162/39/34 226/39/34 228/41/34
f 190/73/34 188/70/34 252/70/34 254/73/34
f 135/123/33 137/136/33 201/136/33 199/123/33
f 161/119/33 163/127/33 227/127/33 225/119/33
f 187/90/33 189/88/33 253/88/33 251/90/33
f 136/7/34 134/6/34 198/6/34 200/7/34
f 162/39/34 160/37/34 224/37/34 226/39/34
f 188/70/34 186/67/34 250/67/34 252/70/34
f 133/107/33 135/123/33 199/123/33 197/107/33
f 159/103/33 161/119/33 225/119/33 223/103/33
f 185/93/33 187/90/33 251/90/33 249/93/33
f 134/6/34 132/82/34 196/82/34 198/6/34
f 160/37/34 158/35/34 222/35/34 224/37/34
f 186/67/34 184/64/34 248/64/34 250/67/34
f 131/80/33 133/107/33 197/107/33 195/80/33
f 157/102/33 159/103/33 223/103/33 221/102/33
f 183/96/33 185/93/33 249/93/33 247/96/33
f 132/82/34 129/95/34 193/95/34 196/82/34
f 158/35/34 156/33/34 220/33/34 222/35/34
f 184/64/34 182/62/34 246/62/34 248/64/34
f 130/77/33 131/80/33 195/80/33 194/77/33
f 155/133/33 157/102/33 221/102/33 219/133/33
f 181/99/33 183/96/33 247/96/33 245/99/33
f 278/199/34 276/200/34 340/200/34 342/199/34
f 304/202/34 302/203/34 366/203/34 368/202/34
f 273/188/33 275/187/33 339/187/33 337/188/33
f 299/175/33 301/174/33 365/174/33 363/175/33
f 276/200/34 274/207/34 338/207/34 340/200/34
f 302/203/34 300/209/34 364/209/34 366/203/34
f 271/189/33 273/188/33 337/188/33 335/189/33
f 297/176/33 299/175/33 363/175/33 361/176/33
f 274/207/34 272/210/34 336/210/34 338/207/34
f 300/209/34 298/211/34 362/211/34 364/209/34
f 269/190/33 271/189/33 335/189/33 333/190/33
f 295/177/33 297/176/33 361/176/33 359/177/33
f 272/210/34 270/208/34 334/208/34 336/210/34
f 298/211/34 296/216/34 360/216/34 362/211/34
f 267/191/33 269/190/33 333/190/33 331/191/33
f 293/178/33 295/177/33 359/177/33 357/178/33
f 319/164/33 258/165/33 322/165/33 383/164/33
f 270/208/34 268/206/34 332/206/34 334/208/34
f 296/216/34 294/220/34 358/220/34 360/216/34
f 257/221/34 320/222/34 384/222/34 321/221/34
f 265/192/33 267/191/33 331/191/33 329/192/33
f 291/179/33 293/178/33 357/178/33 355/179/33
f 317/166/33 319/164/33 383/164/33 381/166/33
f 268/206/34 266/205/34 330/205/34 332/206/34
f 294/220/34 292/219/34 356/219/34 358/220/34
f 320/222/34 318/226/34 382/226/34 384/222/34
f 263/193/33 265/192/33 329/192/33 327/193/33
f 289/180/33 291/179/33 355/179/33 353/180/33
f 315/167/33 317/166/33 381/166/33 379/167/33
f 266/205/34 264/204/34 328/204/34 330/205/34
f 292/219/34 290/218/34 354/218/34 356/219/34
f 318/226/34 316/229/34 380/229/34 382/226/34
f 301/174/33 303/173/33 367/173/33 365/174/33
f 275/187/33 277/186/33 341/186/33 339/187/33
f 306/223/34 304/202/34 368/202/34 370/223/34
f 280/212/34 278/199/34 342/199/34 344/212/34
f 303/173/33 305/172/33 369/172/33 367/173/33
f 277/186/33 279/185/33 343/185/33 341/186/33
f 308/224/34 306/223/34 370/223/34 372/224/34
f 282/213/34 280/212/34 344/212/34 346/213/34
f 305/172/33 307/171/33 371/171/33 369/172/33
f 279/185/33 281/184/33 345/184/33 343/185/33
f 310/225/34 308/224/34 372/224/34 374/225/34
f 284/214/34 282/213/34 346/213/34 348/214/34
f 307/171/33 309/170/33 373/170/33 371/171/33
f 281/184/33 283/183/33 347/183/33 345/184/33
f 312/227/34 310/225/34 374/225/34 376/227/34
f 286/215/34 284/214/34 348/214/34 350/215/34
f 260/198/34 257/197/34 321/197/34 324/198/34
f 309/170/33 311/169/33 375/169/33 373/170/33
f 283/183/33 285/182/33 349/182/33 347/183/33
f 258/196/33 259/195/33 323/195/33 322/196/33
f 314/228/34 312/227/34 376/227/34 378/228/34
f 288/217/34 286/215/34 350/215/34 352/217/34
f 262/201/34 260/198/34 324/198/34 326/201/34
f 311/169/33 313/168/33 377/168/33 375/169/33
f 285/182/33 287/181/33 351/181/33 349/182/33
f 259/195/33 261/194/33 325/194/33 323/195/33
f 316/229/34 314/228/34 378/228/34 380/229/34
f 290/218/34 288/217/34 352/217/34 354/218/34
f 264/204/34 262/201/34 326/201/34 328/204/34
f 313/168/33 315/167/33 379/167/33 377/168/33
f 287/181/33 289/180/33 353/180/33 351/181/33
f 261/194/33 263/193/33 327/193/33 325/194/33
f 386/230/99 390/231/99 513/232/99 514/233/99
f 392/234/100 388/235/100 515/236/100 516/237/100
f 390/231/101 394/238/101 517/239/101 513/232/101
f 396/240/102 392/234/102 516/237/102 518/241/102
f 394/238/103 398/242/103 519/243/103 517/239/103
f 400/244/104 396/240/104 518/241/104 520/245/104
f 398/242/105 402/246/105 521/247/105 519/243/105
f 404/248/106 400/244/106 520/245/106 522/249/106
f 402/246/107 406/250/107 523/251/107 521/247/107
f 408/252/108 404/248/108 522/249/108 524/253/108
f 406/250/109 410/254/109 525/255/109 523/251/109
f 412/256/110 408/252/110 524/253/110 526/257/110
f 410/254/111 414/258/111 527/259/111 525/255/111
f 416/260/112 412/256/112 526/257/112 528/261/112
f 414/258/113 418/262/113 529/263/113 527/259/113
f 420/264/114 416/260/114 528/261/114 530/265/114
f 418/262/115 422/266/115 531/267/115 529/263/115
f 424/268/116 420/264/116 530/265/116 532/269/116
f 422/266/117 426/270/117 533/271/117 531/267/117
f 428/272/118 424/268/118 532/269/118 534/273/118
f 426/270/119 430/274/119 535/275/119 533/271/119
f 432/276/120 428/272/120 534/273/120 536/277/120
f 430/274/121 434/278/121 537/279/121 535/275/121
f 436/280/122 432/276/122 536/277/122 538/281/122
f 434/278/123 438/282/123 539/283/123 537/279/123
f 440/284/124 436/280/124 538/281/124 540/285/124
f 438/282/125 442/286/125 541/287/125 539/283/125
f 444/288/126 440/284/126 540/285/126 542/289/126
f 442/286/127 446/290/127 543/291/127 541/287/127
f 448/292/128 444/288/128 542/289/128 544/293/128
f 446/290/129 450/294/129 545/295/129 543/291/129
f 452/296/130 448/292/130 544/293/130 546/297/130
f 450/294/131 454/298/131 547/299/131 545/295/131
f 456/300/132 452/296/132 546/297/132 548/301/132
f 454/298/133 458/302/133 549/303/133 547/299/133
f 460/304/134 456/300/134 548/301/134 550/305/134
f 458/302/135 462/306/135 551/307/135 549/303/135
f 464/308/136 460/304/136 550/305/136 552/309/136
f 462/306/137 466/310/137 553/311/137 551/307/137
f 468/312/138 464/308/138 552/309/138 554/313/138
f 466/310/139 470/314/139 555/315/139 553/311/139
f 472/316/140 468/312/140 554/313/140 556/317/140
f 470/314/141 474/318/141 557/319/141 555/315/141
f 476/320/142 472/316/142 556/317/142 558/321/142
f 474/318/143 478/322/143 559/323/143 557/319/143
f 480/324/144 476/320/144 558/321/144 560/325/144
f 478/322/145 482/326/145 561/327/145 559/323/145
f 484/328/146 480/324/146 560/325/146 562/329/146
f 482/326/147 486/330/147 563/331/147 561/327/147
f 488/332/148 484/328/148 562/329/148 564/333/148
f 486/330/149 490/334/149 565/335/149 563/331/149
f 492/336/150 488/332/150 564/333/150 566/337/150
f 490/334/151 494/338/151 567/339/151 565/335/151
f 496/340/152 492/336/152 566/337/152 568/341/152
f 494/338/153 498/342/153 569/343/153 567/339/153
f 500/344/154 496/340/154 568/341/154 570/345/154
f 498/342/155 502/346/155 571/347/155 569/343/155
f 504/348/156 500/344/156 570/345/156 572/349/156
f 502/346/157 506/350/157 573/351/157 571/347/157
f 508/352/158 504/348/158 572/349/158 574/353/158
f 506/350/159 510/354/159 575/355/159 573/351/159
f 512/356/160 508/352/160 574/353/160 576/357/160
f 510/354/161 386/230/161 514/233/161 575/355/161
f 388/235/162 512/356/162 576/357/162 515/236/162
f 386/358/31 1/95/31 4/82/31 390/81/31
f 389/359/33 385/360/33 514/233/33 513/232/33
f 387/361/34 391/362/34 516/237/34 515/236/34
f 393/363/33 389/359/33 513/232/33 517/239/33
f 391/362/34 395/364/34 518/241/34 516/237/34
f 397/365/33 393/363/33 517/239/33 519/243/33
f 395/364/34 399/366/34 520/245/34 518/241/34
f 401/367/33 397/365/33 519/243/33 521/247/33
f 399/366/34 403/368/34 522/249/34 520/245/34
f 405/369/33 401/367/33 521/247/33 523/251/33
f 403/368/34 407/370/34 524/253/34 522/249/34
f 409/371/33 405/369/33 523/251/33 525/255/33
f 407/370/34 411/372/34 526/257/34 524/253/34
f 413/373/33 409/371/33 525/255/33 527/259/33
f 411/372/34 415/374/34 528/261/34 526/257/34
f 417/375/33 413/373/33 527/259/33 529/263/33
f 415/374/34 419/376/34 530/265/34 528/261/34
f 421/377/33 417/375/33 529/263/33 531/267/33
f 419/376/34 423/378/34 532/269/34 530/265/34
f 425/379/33 421/377/33 531/267/33 533/271/33
f 423/378/34 427/87/34 534/273/34 532/269/34
f 429/380/33 425/379/33 533/271/33 535/275/33
f 427/87/34 431/86/34 536/277/34 534/273/34
f 433/381/33 429/380/33 535/275/33 537/279/33
f 431/86/34 435/382/34 538/281/34 536/277/34
f 437/383/33 433/381/33 537/279/33 539/283/33
f 435/382/34 439/384/34 540/285/34 538/281/34
f 441/385/33 437/383/33 539/283/33 541/287/33
f 439/384/34 443/386/34 542/289/34 540/285/34
f 445/387/33 441/385/33 541/287/33 543/291/33
f 443/386/34 447/388/34 544/293/34 542/289/34
f 449/389/33 445/387/33 543/291/33 545/295/33
f 447/388/34 451/390/34 546/297/34 544/293/34
f 453/391/33 449/389/33 545/295/33 547/299/33
f 451/390/34 455/392/34 548/301/34 546/297/34
f 457/393/33 453/391/33 547/299/33 549/303/33
f 455/392/34 459/394/34 550/305/34 548/301/34
f 461/395/33 457/393/33 549/303/33 551/307/33
f 459/394/34 463/396/34 552/309/34 550/305/34
f 465/397/33 461/395/33 551/307/33 553/311/33
f 463/396/34 467/398/34 554/313/34 552/309/34
f 469/399/33 465/397/33 553/311/33 555/315/33
f 467/398/34 471/400/34 556/317/34 554/313/34
f 473/401/33 469/399/33 555/315/33 557/319/33
f 471/400/34 475/402/34 558/321/34 556/317/34
f 477/403/33 473/401/33 557/319/33 559/323/33
f 475/402/34 479/163/34 560/325/34 558/321/34
f 481/404/33 477/403/33 559/323/33 561/327/33
f 479/163/34 483/162/34 562/329/34 560/325/34
f 485/405/33 481/404/33 561/327/33 563/331/33
f 483/162/34 487/406/34 564/333/34 562/329/34
f 489/407/33 485/405/33 563/331/33 565/335/33
f 487/406/34 491/408/34 566/337/34 564/333/34
f 493/409/33 489/407/33 565/335/33 567/339/33
f 491/408/34 495/410/34 568/341/34 566/337/34
f 497/411/33 493/409/33 567/339/33 569/343/33
f 495/410/34 499/412/34 570/345/34 568/341/34
f 501/413/33 497/411/33 569/343/33 571/347/33
f 499/412/34 503/414/34 572/349/34 570/345/34
f 505/415/33 501/413/33 571/347/33 573/351/33
f 503/414/34 507/416/34 574/353/34 572/349/34
f 509/417/33 505/415/33 573/351/33 575/355/33
f 507/416/34 511/418/34 576/357/34 574/353/34
f 385/360/33 509/417/33 575/355/33 514/233/33
f 511/418/34 387/361/34 515/236/34 576/357/34
f 481/404/8 485/405/8 691/405/8 689/404/8
f 429/380/27 433/381/27 665/381/27 663/380/27
f 487/406/8 483/162/8 690/162/8 692/406/8
f 435/382/27 431/86/27 664/86/27 666/382/27
f 485/405/9 489/407/9 693/407/9 691/405/9
f 433/381/28 437/383/28 667/383/28 665/381/28
f 491/408/9 487/406/9 692/406/9 694/408/9
f 439/384/28 435/382/28 666/382/28 668/384/28
f 489/407/10 493/409/10 695/409/10 693/407/10
f 437/383/29 441/385/29 669/385/29 667/383/29
f 385/360/16 389/359/16 641/359/16 642/360/16
f 495/410/10 491/408/10 694/408/10 696/410/10
f 443/386/29 439/384/29 668/384/29 670/386/29
f 391/362/16 387/361/16 643/361/16 644/362/16
f 493/409/11 497/411/11 697/411/11 695/409/11
f 441/385/30 445/387/30 671/387/30 669/385/30
f 389/359/17 393/363/17 645/363/17 641/359/17
f 499/412/11 495/410/11 696/410/11 698/412/11
f 447/388/30 443/386/30 670/386/30 672/388/30
f 395/364/17 391/362/17 644/362/17 646/364/17
f 497/411/12 501/413/12 699/413/12 697/411/12
f 445/387/1 449/389/1 673/389/1 671/387/1
f 393/363/18 397/365/18 647/365/18 645/363/18
f 503/414/12 499/412/12 698/412/12 700/414/12
f 451/390/1 447/388/1 672/388/1 674/390/1
f 399/366/18 395/364/18 646/364/18 648/366/18
f 501/413/13 505/415/13 701/415/13 699/413/13
f 449/389/31 453/391/31 675/391/31 673/389/31
f 397/365/19 401/367/19 649/367/19 647/365/19
f 507/416/13 503/414/13 700/414/13 702/416/13
f 455/392/31 451/390/31 674/390/31 676/392/31
f 403/368/19 399/366/19 648/366/19 650/368/19
f 505/415/14 509/417/14 703/417/14 701/415/14
f 453/391/32 457/393/32 677/393/32 675/391/32
f 401/367/20 405/369/20 651/369/20 649/367/20
f 511/418/14 507/416/14 702/416/14 704/418/14
f 459/394/32 455/392/32 676/392/32 678/394/32
f 407/370/20 403/368/20 650/368/20 652/370/20
f 509/417/15 385/360/15 642/360/15 703/417/15
f 457/393/2 461/395/2 679/395/2 677/393/2
f 405/369/21 409/371/21 653/371/21 651/369/21
f 387/361/15 511/418/15 704/418/15 643/361/15
f 463/396/2 459/394/2 678/394/2 680/396/2
f 411/372/21 407/370/21 652/370/21 654/372/21
f 461/395/3 465/397/3 681/397/3 679/395/3
f 409/371/22 413/373/22 655/373/22 653/371/22
f 467/398/3 463/396/3 680/396/3 682/398/3
f 415/374/22 411/372/22 654/372/22 656/374/22
f 465/397/4 469/399/4 683/399/4 681/397/4
f 413/373/23 417/375/23 657/375/23 655/373/23
f 471/400/4 467/398/4 682/398/4 684/400/4
f 419/376/23 415/374/23 656/374/23 658/376/23
f 469/399/5 473/401/5 685/401/5 683/399/5
f 417/375/24 421/377/24 659/377/24 657/375/24
f 475/402/5 471/400/5 684/400/5 686/402/5
f 423/378/24 419/376/24 658/376/24 660/378/24
f 473/401/6 477/403/6 687/403/6 685/401/6
f 421/377/25 425/379/25 661/379/25 659/377/25
f 479/163/6 475/402/6 686/402/6 688/163/6
f 427/87/25 423/378/25 660/378/25 662/87/25
f 477/403/7 481/404/7 689/404/7 687/403/7
f 425/379/26 429/380/26 663/380/26 661/379/26
usemtl M_Cyan
f 321/197/31 322/196/31 323/195/31 324/198/31
f 324/198/32 323/195/32 325/194/32 326/201/32
f 326/201/2 325/194/2 327/193/2 328/204/2
f 328/204/3 327/193/3 329/192/3 330/205/3
f 330/205/4 329/192/4 331/191/4 332/206/4
f 332/206/5 331/191/5 333/190/5 334/208/5
f 334/208/6 333/190/6 335/189/6 336/210/6
f 336/210/7 335/189/7 337/188/7 338/207/7
f 338/207/8 337/188/8 339/187/8 340/200/8
f 340/200/9 339/187/9 341/186/9 342/199/9
f 342/199/10 341/186/10 343/185/10 344/212/10
f 344/212/11 343/185/11 345/184/11 346/213/11
f 346/213/12 345/184/12 347/183/12 348/214/12
f 348/214/13 347/183/13 349/182/13 350/215/13
f 350/215/14 349/182/14 351/181/14 352/217/14
f 352/217/15 351/181/15 353/180/15 354/218/15
f 354/218/16 353/180/16 355/179/16 356/219/16
f 356/219/17 355/179/17 357/178/17 358/220/17
f 358/220/18 357/178/18 359/177/18 360/216/18
f 360/216/19 359/177/19 361/176/19 362/211/19
f 362/211/20 361/176/20 363/175/20 364/209/20
f 364/209/21 363/175/21 365/174/21 366/203/21
f 366/203/22 365/174/22 367/173/22 368/202/22
f 368/202/23 367/173/23 369/172/23 370/223/23
f 370/223/24 369/172/24 371/171/24 372/224/24
f 372/224/25 371/171/25 373/170/25 374/225/25
f 374/225/26 373/170/26 375/169/26 376/227/26
f 376/227/27 375/169/27 377/168/27 378/228/27
f 378/228/28 377/168/28 379/167/28 380/229/28
f 380/229/29 379/167/29 381/166/29 382/226/29
f 382/226/30 381/166/30 383/164/30 384/222/30
f 384/222/1 383/164/1 322/165/1 321/221/1
usemtl M_Noir_Profond
f 319/164/1 255/1/1 194/4/1 258/165/1
f 317/166/30 253/88/30 255/1/30 319/164/30
f 315/167/29 251/90/29 253/88/29 317/166/29
f 313/168/28 249/93/28 251/90/28 315/167/28
f 311/169/27 247/96/27 249/93/27 313/168/27
f 309/170/26 245/99/26 247/96/26 311/169/26
f 307/171/25 243/104/25 245/99/25 309/170/25
f 305/172/24 241/108/24 243/104/24 307/171/24
f 303/173/23 239/110/23 241/108/23 305/172/23
f 301/174/22 237/112/22 239/110/22 303/173/22
f 299/175/21 235/114/21 237/112/21 301/174/21
f 297/176/20 233/117/20 235/114/20 299/175/20
f 295/177/19 231/120/19 233/117/19 297/176/19
f 293/178/18 229/124/18 231/120/18 295/177/18
f 291/179/17 227/127/17 229/124/17 293/178/17
f 289/180/16 225/119/16 227/127/16 291/179/16
f 287/181/15 223/103/15 225/119/15 289/180/15
f 285/182/14 221/102/14 223/103/14 287/181/14
f 283/183/13 219/133/13 221/102/13 285/182/13
f 281/184/12 217/137/12 219/133/12 283/183/12
f 279/185/11 215/139/11 217/137/11 281/184/11
f 277/186/10 213/142/10 215/139/10 279/185/10
f 275/187/9 211/144/9 213/142/9 277/186/9
f 273/188/8 209/146/8 211/144/8 275/187/8
f 271/189/7 207/148/7 209/146/7 273/188/7
f 269/190/6 205/152/6 207/148/6 271/189/6
f 267/191/5 203/151/5 205/152/5 269/190/5
f 265/192/4 201/136/4 203/151/4 267/191/4
f 263/193/3 199/123/3 201/136/3 265/192/3
f 261/194/2 197/107/2 199/123/2 263/193/2
f 259/195/32 195/80/32 197/107/32 261/194/32
f 258/196/31 194/77/31 195/80/31 259/195/31
f 193/95/31 257/197/31 260/198/31 196/82/31
f 196/82/32 260/198/32 262/201/32 198/6/32
f 198/6/2 262/201/2 264/204/2 200/7/2
f 200/7/3 264/204/3 266/205/3 202/10/3
f 202/10/4 266/205/4 268/206/4 204/12/4
f 204/12/5 268/206/5 270/208/5 206/15/5
f 206/15/6 270/208/6 272/210/6 208/18/6
f 208/18/7 272/210/7 274/207/7 210/21/7
f 210/21/8 274/207/8 276/200/8 212/24/8
f 212/24/9 276/200/9 278/199/9 214/26/9
f 214/26/10 278/199/10 280/212/10 216/28/10
f 216/28/11 280/212/11 282/213/11 218/30/11
f 218/30/12 282/213/12 284/214/12 220/33/12
f 220/33/13 284/214/13 286/215/13 222/35/13
f 222/35/14 286/215/14 288/217/14 224/37/14
f 224/37/15 288/217/15 290/218/15 226/39/15
f 226/39/16 290/218/16 292/219/16 228/41/16
f 228/41/17 292/219/17 294/220/17 230/43/17
f 230/43/18 294/220/18 296/216/18 232/46/18
f 232/46/19 296/216/19 298/211/19 234/49/19
f 234/49/20 298/211/20 300/209/20 236/52/20
f 236/52/21 300/209/21 302/203/21 238/54/21
f 238/54/22 302/203/22 304/202/22 240/56/22
f 240/56/23 304/202/23 306/223/23 242/58/23
f 242/58/24 306/223/24 308/224/24 244/60/24
f 244/60/25 308/224/25 310/225/25 246/62/25
f 246/62/26 310/225/26 312/227/26 248/64/26
f 248/64/27 312/227/27 314/228/27 250/67/27
f 250/67/28 314/228/28 316/229/28 252/70/28
f 252/70/29 316/229/29 318/226/29 254/73/29
f 254/73/30 318/226/30 320/222/30 256/75/30
f 256/75/1 320/222/1 257/221/1 193/84/1
f 577/423/33 578/424/33 642/360/33 641/359/33
f 579/425/34 580/426/34 644/362/34 643/361/34
f 581/427/33 577/423/33 641/359/33 645/363/33
f 580/426/34 582/428/34 646/364/34 644/362/34
f 583/429/33 581/427/33 645/363/33 647/365/33
f 582/428/34 584/430/34 648/366/34 646/364/34
f 585/431/33 583/429/33 647/365/33 649/367/33
f 584/430/34 586/432/34 650/368/34 648/366/34
f 587/433/33 585/431/33 649/367/33 651/369/33
f 586/432/34 588/434/34 652/370/34 650/368/34
f 589/435/33 587/433/33 651/369/33 653/371/33
f 588/434/34 590/436/34 654/372/34 652/370/34
f 591/421/33 589/435/33 653/371/33 655/373/33
f 590/436/34 592/437/34 656/374/34 654/372/34
f 593/422/33 591/421/33 655/373/33 657/375/33
f 592/437/34 594/438/34 658/376/34 656/374/34
f 595/439/33 593/422/33 657/375/33 659/377/33
f 594/438/34 596/440/34 660/378/34 658/376/34
f 597/441/33 595/439/33 659/377/33 661/379/33
f 596/440/34 598/442/34 662/87/34 660/378/34
f 599/443/33 597/441/33 661/379/33 663/380/33
f 598/442/34 600/444/34 664/86/34 662/87/34
f 601/445/33 599/443/33 663/380/33 665/381/33
f 600/444/34 602/446/34 666/382/34 664/86/34
f 603/447/33 601/445/33 665/381/33 667/383/33
f 602/446/34 604/448/34 668/384/34 666/382/34
f 605/449/33 603/447/33 667/383/33 669/385/33
f 604/448/34 606/450/34 670/386/34 668/384/34
f 607/451/33 605/449/33 669/385/33 671/387/33
f 606/450/34 608/452/34 672/388/34 670/386/34
f 609/453/33 607/451/33 671/387/33 673/389/33
f 608/452/34 610/454/34 674/390/34 672/388/34
f 611/455/33 609/453/33 673/389/33 675/391/33
f 610/454/34 612/456/34 676/392/34 674/390/34
f 613/457/33 611/455/33 675/391/33 677/393/33
f 612/456/34 614/458/34 678/394/34 676/392/34
f 615/459/33 613/457/33 677/393/33 679/395/33
f 614/458/34 616/460/34 680/396/34 678/394/34
f 617/461/33 615/459/33 679/395/33 681/397/33
f 616/460/34 618/420/34 682/398/34 680/396/34
f 619/462/33 617/461/33 681/397/33 683/399/33
f 618/420/34 620/419/34 684/400/34 682/398/34
f 621/463/33 619/462/33 683/399/33 685/401/33
f 620/419/34 622/464/34 686/402/34 684/400/34
f 623/465/33 621/463/33 685/401/33 687/403/33
f 622/464/34 624/466/34 688/163/34 686/402/34
f 625/467/33 623/465/33 687/403/33 689/404/33
f 624/466/34 626/468/34 690/162/34 688/163/34
f 627/469/33 625/467/33 689/404/33 691/405/33
f 626/468/34 628/470/34 692/406/34 690/162/34
f 629/471/33 627/469/33 691/405/33 693/407/33
f 628/470/34 630/472/34 694/408/34 692/406/34
f 631/473/33 629/471/33 693/407/33 695/409/33
f 630/472/34 632/474/34 696/410/34 694/408/34
f 633/475/33 631/473/33 695/409/33 697/411/33
f 632/474/34 634/476/34 698/412/34 696/410/34
f 635/477/33 633/475/33 697/411/33 699/413/33
f 634/476/34 636/478/34 700/414/34 698/412/34
f 637/479/33 635/477/33 699/413/33 701/415/33
f 636/478/34 638/480/34 702/416/34 700/414/34
f 639/481/33 637/479/33 701/415/33 703/417/33
f 638/480/34 640/482/34 704/418/34 702/416/34
f 578/424/33 639/481/33 703/417/33 642/360/33
f 640/482/34 579/425/34 643/361/34 704/418/34
usemtl M_Orange
f 620/419/163 618/420/163 746/420/163 748/419/163
f 591/421/164 593/422/164 721/422/164 719/421/164
f 708/426/34 707/425/34 768/482/34 766/480/34 764/478/34 762/476/34 760/474/34 758/472/34 756/470/34 754/468/34 752/466/34 750/464/34 748/419/34 746/420/34 744/460/34 742/458/34 740/456/34 738/454/34 736/452/34 734/450/34 732/448/34 730/446/34 728/444/34 726/442/34 724/440/34 722/438/34 720/437/34 718/436/34 716/434/34 714/432/34 712/430/34 710/428/34
f 706/424/33 705/423/33 709/427/33 711/429/33 713/431/33 715/433/33 717/435/33 719/421/33 721/422/33 723/439/33 725/441/33 727/443/33 729/445/33 731/447/33 733/449/33 735/451/33 737/453/33 739/455/33 741/457/33 743/459/33 745/461/33 747/462/33 749/463/33 751/465/33 753/467/33 755/469/33 757/471/33 759/473/33 761/475/33 763/477/33 765/479/33 767/481/33
f 594/438/165 592/437/165 720/437/165 722/438/165
f 619/462/166 621/463/166 749/463/166 747/462/166
f 593/422/167 595/439/167 723/439/167 721/422/167
f 622/464/168 620/419/168 748/419/168 750/464/168
f 596/440/169 594/438/169 722/438/169 724/440/169
f 621/463/170 623/465/170 751/465/170 749/463/170
f 595/439/171 597/441/171 725/441/171 723/439/171
f 624/466/172 622/464/172 750/464/172 752/466/172
f 598/442/173 596/440/173 724/440/173 726/442/173
f 623/465/174 625/467/174 753/467/174 751/465/174
f 597/441/175 599/443/175 727/443/175 725/441/175
f 626/468/176 624/466/176 752/466/176 754/468/176
f 600/444/177 598/442/177 726/442/177 728/444/177
f 625/467/178 627/469/178 755/469/178 753/467/178
f 599/443/179 601/445/179 729/445/179 727/443/179
f 628/470/180 626/468/180 754/468/180 756/470/180
f 602/446/181 600/444/181 728/444/181 730/446/181
f 627/469/182 629/471/182 757/471/182 755/469/182
f 601/445/183 603/447/183 731/447/183 729/445/183
f 630/472/184 628/470/184 756/470/184 758/472/184
f 604/448/185 602/446/185 730/446/185 732/448/185
f 629/471/186 631/473/186 759/473/186 757/471/186
f 603/447/187 605/449/187 733/449/187 731/447/187
f 578/424/188 577/423/188 705/423/188 706/424/188
f 632/474/189 630/472/189 758/472/189 760/474/189
f 606/450/190 604/448/190 732/448/190 734/450/190
f 580/426/191 579/425/191 707/425/191 708/426/191
f 631/473/192 633/475/192 761/475/192 759/473/192
f 605/449/193 607/451/193 735/451/193 733/449/193
f 577/423/194 581/427/194 709/427/194 705/423/194
f 634/476/195 632/474/195 760/474/195 762/476/195
f 608/452/196 606/450/196 734/450/196 736/452/196
f 582/428/197 580/426/197 708/426/197 710/428/197
f 633/475/198 635/477/198 763/477/198 761/475/198
f 607/451/199 609/453/199 737/453/199 735/451/199
f 581/427/200 583/429/200 711/429/200 709/427/200
f 636/478/201 634/476/201 762/476/201 764/478/201
f 610/454/202 608/452/202 736/452/202 738/454/202
f 584/430/203 582/428/203 710/428/203 712/430/203
f 635/477/204 637/479/204 765/479/204 763/477/204
f 609/453/205 611/455/205 739/455/205 737/453/205
f 583/429/206 585/431/206 713/431/206 711/429/206
f 638/480/207 636/478/207 764/478/207 766/480/207
f 612/456/208 610/454/208 738/454/208 740/456/208
f 586/432/209 584/430/209 712/430/209 714/432/209
f 637/479/210 639/481/210 767/481/210 765/479/210
f 611/455/211 613/457/211 741/457/211 739/455/211
f 585/431/212 587/433/212 715/433/212 713/431/212
f 640/482/213 638/480/213 766/480/213 768/482/213
f 614/458/214 612/456/214 740/456/214 742/458/214
f 588/434/215 586/432/215 714/432/215 716/434/215
f 639/481/216 578/424/216 706/424/216 767/481/216
f 613/457/217 615/459/217 743/459/217 741/457/217
f 587/433/218 589/435/218 717/435/218 715/433/218
f 579/425/219 640/482/219 768/482/219 707/425/219
f 616/460/220 614/458/220 742/458/220 744/460/220
f 590/436/221 588/434/221 716/434/221 718/436/221
f 615/459/222 617/461/222 745/461/222 743/459/222
f 589/435/223 591/421/223 719/421/223 717/435/223
f 618/420/224 616/460/224 744/460/224 746/420/224
f 592/437/225 590/436/225 718/436/225 720/437/225
f 617/461/226 619/462/226 747/462/226 745/461/226
