# https://github.com/mikedh/trimesh
mtllib material.mtl

o meshId0
usemtl material_0
v -0.32352901 -0.27272701 0.29334801
v -0.32352901 -0.09090900 0.29334801
v -0.32352901 -0.09090880 -0.29334801
v -0.32352901 -0.27272701 -0.29334801
v 0.29334801 -1.00000000 -0.29334801
v 0.29334801 -1.00000000 0.29334801
v -0.29334801 -1.00000000 0.29334801
v -0.29334801 -1.00000000 -0.29334801
v -0.32352901 0.45454600 0.29334801
v -0.32352901 0.63636398 0.29334801
v -0.32352901 0.63636398 -0.29334801
v -0.32352901 0.45454600 -0.29334801
v 0.29334801 -0.81818199 0.32352901
v 0.29334801 -0.63636398 0.32352901
v -0.29334801 -0.63636398 0.32352901
v -0.29334801 -0.81818199 0.32352901
v 0.32352901 0.81818199 -0.29334801
v 0.32352901 0.96981901 -0.29334801
v 0.32352901 0.96981901 0.29334801
v 0.32352901 0.81818199 0.29334801
v 0.29334801 -0.96981800 0.32352901
v -0.29334801 -0.96981800 0.32352901
v -0.32352901 0.81818199 0.29334801
v -0.32352901 0.96981901 0.29334801
v -0.32352901 0.96981901 -0.29334801
v -0.32352901 0.81818199 -0.29334801
v 0.32352901 0.45454600 -0.29334801
v 0.32352901 0.63636398 -0.29334801
v 0.32352901 0.63636398 0.29334801
v 0.32352901 0.45454600 0.29334801
v 0.32352901 0.27272800 -0.29334801
v 0.32352901 0.27272701 0.29334801
v 0.32352901 0.09090930 -0.29334801
v 0.32352901 0.09090920 0.29334801
v 0.32352901 -0.09090880 -0.29334801
v 0.32352901 -0.09090900 0.29334801
v 0.32352901 -0.27272701 -0.29334801
v 0.32352901 -0.27272701 0.29334801
v 0.32352901 -0.45454499 -0.29334801
v 0.32352901 -0.45454499 0.29334801
v 0.32352901 -0.63636398 -0.29334801
v 0.32352901 -0.63636398 0.29334801
v 0.32352901 -0.81818199 -0.29334801
v 0.32352901 -0.81818199 0.29334801
v 0.32352901 -0.96981800 -0.29334801
v 0.32352901 -0.96981800 0.29334801
v -0.29334801 0.81818199 -0.32352901
v -0.29334801 0.96981901 -0.32352901
v 0.29334801 0.96981901 -0.32352901
v 0.29334801 0.81818199 -0.32352901
v -0.29334801 -0.96981800 -0.32352999
v -0.29334801 -0.81818199 -0.32352999
v 0.29334801 -0.81818199 -0.32352999
v 0.29334801 -0.96981800 -0.32352999
v -0.32352901 0.27272701 0.29334801
v -0.32352901 0.27272800 -0.29334801
v -0.26982200 -0.65989000 0.26490900
v -0.26982200 -0.65989000 -0.32352999
v 0.26982200 -0.65989000 -0.32352999
v 0.26982200 -0.65989000 0.26490900
v -0.32352901 0.09090920 0.29334801
v -0.32352901 0.09090930 -0.29334801
v -0.26982200 0.06738320 0.26490900
v -0.26982200 0.06738330 -0.32352901
v 0.26982200 0.06738330 -0.32352901
v 0.26982200 0.06738320 0.26490900
v 0.26982200 -0.11443500 0.26490900
v 0.26982200 -0.11443500 -0.32352901
v 0.26982200 -0.24920100 -0.32352901
v 0.26982200 -0.24920100 0.26490900
v -0.32352901 -0.96981800 0.29334801
v -0.32352901 -0.81818199 0.29334801
v -0.32352901 -0.81818199 -0.29334801
v -0.32352901 -0.96981800 -0.29334801
v 0.26982200 0.43101901 0.26490900
v 0.26982200 0.43101999 -0.32352901
v 0.26982200 0.29625401 -0.32352901
v 0.26982200 0.29625401 0.26490900
v -0.26982200 -0.24920100 0.26490900
v -0.26982200 -0.24920100 -0.32352901
v -0.26982200 -0.11443500 -0.32352901
v -0.26982200 -0.11443500 0.26490900
v -0.26982200 0.29625401 0.26490900
v -0.26982200 0.29625401 -0.32352901
v -0.26982200 0.43101999 -0.32352901
v -0.26982200 0.43101901 0.26490900
v 0.26982200 0.65989000 0.26490900
v 0.26982200 0.65989000 -0.32352901
v -0.26982200 0.65989000 -0.32352901
v -0.26982200 0.65989000 0.26490900
v -0.26982200 -0.11443500 0.26490900
v -0.26982200 -0.11443500 -0.32352901
v 0.26982200 -0.11443500 -0.32352901
v 0.26982200 -0.11443500 0.26490900
v 0.29334801 -0.27272701 0.32352901
v 0.29334801 -0.09090900 0.32352901
v -0.29334801 -0.09090900 0.32352901
v -0.29334801 -0.27272701 0.32352901
v 0.29334801 -0.45454499 0.32352901
v -0.29334801 -0.45454499 0.32352901
v 0.29334801 1.00000000 0.29334801
v 0.29334801 1.00000000 -0.29334801
v -0.29334801 1.00000000 -0.29334801
v -0.29334801 1.00000000 0.29334801
v 0.26982200 -0.43101901 0.26490900
v 0.26982200 -0.43101901 -0.32352901
v -0.26982200 -0.43101901 -0.32352901
v -0.26982200 -0.43101901 0.26490900
v 0.29334801 0.63636398 0.32352999
v 0.29334801 0.81818199 0.32352999
v -0.29334801 0.81818199 0.32352999
v -0.29334801 0.63636398 0.32352999
v 0.29334801 0.45454600 0.32352901
v -0.29334801 0.45454600 0.32352901
v 0.29334801 0.27272701 0.32352901
v -0.29334801 0.27272701 0.32352901
v 0.29334801 0.09090920 0.32352901
v -0.29334801 0.09090920 0.32352901
v -0.32352901 -0.45454499 0.29334801
v -0.32352901 -0.45454499 -0.29334801
v -0.32352901 -0.63636398 0.29334801
v -0.32352901 -0.63636398 -0.29334801
v 0.29334801 0.96981901 0.32352999
v 0.32352901 0.96981901 0.29334801
v -0.32352901 0.96981901 0.29334801
v -0.29334801 0.96981901 0.32352999
v -0.32352901 -0.96981800 0.29334801
v -0.29334801 -1.00000000 0.29334801
v -0.32352901 -0.96981800 -0.29334801
v -0.29334801 -1.00000000 -0.29334801
v 0.32352901 -0.96981800 -0.29334801
v 0.29334801 -1.00000000 -0.29334801
v 0.32352901 0.96981901 -0.29334801
v 0.29334801 0.96981901 -0.32352901
v -0.32352901 0.96981901 -0.29334801
v -0.29334801 0.96981901 -0.32352901
v 0.32352901 -0.96981800 0.29334801
v 0.29334801 -1.00000000 0.29334801
v 0.32352901 0.96981901 -0.29334801
v 0.32352901 0.81818199 -0.29334801
v -0.32352901 -0.63636398 -0.29334801
v -0.29334801 -0.63636398 -0.32352901
v -0.32352901 -0.81818199 -0.29334801
v -0.32352901 -0.45454499 -0.29334801
v -0.29334801 -0.45454499 -0.32352901
v -0.32352901 -0.27272701 -0.29334801
v -0.29334801 -0.27272701 -0.32352901
v -0.32352901 -0.09090880 -0.29334801
v -0.29334801 -0.09090880 -0.32352901
v -0.32352901 0.09090930 -0.29334801
v -0.29334801 0.09090930 -0.32352901
v -0.32352901 0.27272800 -0.29334801
v -0.29334801 0.27272800 -0.32352901
v -0.32352901 0.45454600 -0.29334801
v -0.29334801 0.45454600 -0.32352901
v -0.32352901 0.63636398 -0.29334801
v -0.29334801 0.63636398 -0.32352901
v -0.32352901 0.81818199 -0.29334801
v -0.32352901 0.96981901 -0.29334801
v -0.32352901 -0.63636398 0.29334801
v -0.32352901 -0.81818199 0.29334801
v -0.32352901 -0.45454499 0.29334801
v -0.32352901 -0.27272701 0.29334801
v -0.32352901 -0.09090900 0.29334801
v -0.32352901 0.09090920 0.29334801
v -0.32352901 0.27272701 0.29334801
v -0.32352901 0.45454600 0.29334801
v -0.32352901 0.63636398 0.29334801
v -0.32352901 0.81818199 0.29334801
v -0.29334801 0.96981901 0.32352999
v -0.32352901 0.96981901 0.29334801
v 0.29334801 -1.00000000 0.29334801
v 0.29334801 -1.00000000 -0.29334801
v -0.29334801 -1.00000000 0.29334801
v -0.29334801 -1.00000000 -0.29334801
v 0.32352901 -0.81818199 -0.29334801
v 0.32352901 -0.81818199 0.29334801
v 0.32352901 0.63636398 -0.29334801
v 0.29334801 0.63636398 -0.32352901
v 0.32352901 0.45454600 -0.29334801
v 0.29334801 0.45454600 -0.32352901
v 0.32352901 0.27272800 -0.29334801
v 0.29334801 0.27272800 -0.32352901
v 0.32352901 0.09090930 -0.29334801
v 0.29334801 0.09090930 -0.32352901
v 0.32352901 -0.09090880 -0.29334801
v 0.29334801 -0.09090880 -0.32352901
v 0.32352901 -0.27272701 -0.29334801
v 0.29334801 -0.27272701 -0.32352901
v 0.32352901 -0.45454499 -0.29334801
v 0.29334801 -0.45454499 -0.32352901
v 0.32352901 -0.63636398 -0.29334801
v 0.29334801 -0.63636398 -0.32352901
v 0.32352901 0.96981901 0.29334801
v 0.29334801 0.96981901 0.32352999
v 0.32352901 0.81818199 0.29334801
v 0.32352901 0.63636398 0.29334801
v 0.32352901 0.45454600 0.29334801
v 0.32352901 0.27272701 0.29334801
v 0.32352901 0.09090920 0.29334801
v 0.32352901 -0.09090900 0.29334801
v 0.32352901 -0.27272701 0.29334801
v 0.32352901 -0.45454499 0.29334801
v 0.32352901 -0.63636398 0.29334801
v -0.26982200 -0.11443500 -0.32352901
v 0.26982200 -0.11443500 -0.32352901
v 0.26982200 -0.24920100 -0.32352901
v -0.26982200 -0.24920100 -0.32352901
v -0.26982200 -0.47807100 -0.32352901
v 0.26982200 -0.47807100 -0.32352901
v 0.26982200 -0.61283702 -0.32352901
v -0.26982200 -0.61283702 -0.32352901
v -0.26982200 -0.65989000 -0.32352999
v 0.26982200 -0.65989000 -0.32352999
v 0.26982200 -0.79465598 -0.32352999
v -0.26982200 -0.79465598 -0.32352999
v -0.26982200 0.79465598 -0.32352901
v 0.26982200 0.79465598 -0.32352901
v 0.26982200 0.65989000 -0.32352901
v -0.26982200 0.65989000 -0.32352901
v -0.26982200 0.61283797 -0.32352901
v 0.26982200 0.61283797 -0.32352901
v 0.26982200 0.47807199 -0.32352901
v -0.26982200 0.47807199 -0.32352901
v -0.26982200 0.43101999 -0.32352901
v 0.26982200 0.43101999 -0.32352901
v 0.26982200 0.29625401 -0.32352901
v -0.26982200 0.29625401 -0.32352901
v -0.26982200 0.24920100 -0.32352901
v 0.26982200 0.24920100 -0.32352901
v 0.26982200 0.11443600 -0.32352901
v -0.26982200 0.11443600 -0.32352901
v -0.26982200 0.06738330 -0.32352901
v 0.26982200 0.06738330 -0.32352901
v 0.26982200 -0.06738260 -0.32352901
v -0.26982200 -0.06738260 -0.32352901
v -0.26982200 -0.29625300 -0.32352901
v 0.26982200 -0.29625300 -0.32352901
v 0.26982200 -0.43101901 -0.32352901
v -0.26982200 -0.43101901 -0.32352901
v -0.26982200 -0.24920100 0.26490900
v -0.26982200 -0.11443500 0.26490900
v 0.26982200 -0.11443500 0.26490900
v 0.26982200 -0.24920100 0.26490900
v -0.26982200 -0.61283702 0.26490900
v -0.26982200 -0.47807100 0.26490900
v 0.26982200 -0.47807100 0.26490900
v 0.26982200 -0.61283702 0.26490900
v -0.26982200 -0.79465598 0.26490900
v -0.26982200 -0.65989000 0.26490900
v 0.26982200 -0.65989000 0.26490900
v 0.26982200 -0.79465598 0.26490900
v -0.26982200 0.65989000 0.26490900
v -0.26982200 0.79465598 0.26490900
v 0.26982200 0.79465598 0.26490900
v 0.26982200 0.65989000 0.26490900
v -0.26982200 0.47807199 0.26490900
v -0.26982200 0.61283797 0.26490900
v 0.26982200 0.61283797 0.26490900
v 0.26982200 0.47807199 0.26490900
v -0.26982200 0.29625401 0.26490900
v -0.26982200 0.43101901 0.26490900
v 0.26982200 0.43101901 0.26490900
v 0.26982200 0.29625401 0.26490900
v -0.26982200 0.11443600 0.26490900
v -0.26982200 0.24920100 0.26490900
v 0.26982200 0.24920100 0.26490900
v 0.26982200 0.11443600 0.26490900
v -0.26982200 -0.06738270 0.26490900
v -0.26982200 0.06738320 0.26490900
v 0.26982200 0.06738320 0.26490900
v 0.26982200 -0.06738270 0.26490900
v -0.26982200 -0.43101901 0.26490900
v -0.26982200 -0.29625300 0.26490900
v 0.26982200 -0.29625300 0.26490900
v 0.26982200 -0.43101901 0.26490900
v 0.26982200 0.29625401 0.26490900
v 0.26982200 0.29625401 -0.32352901
v -0.26982200 0.29625401 -0.32352901
v -0.26982200 0.29625401 0.26490900
v 0.26982200 -0.24920100 0.26490900
v 0.26982200 -0.24920100 -0.32352901
v -0.26982200 -0.24920100 -0.32352901
v -0.26982200 -0.24920100 0.26490900
v -0.26982200 -0.06738270 0.26490900
v -0.26982200 -0.06738260 -0.32352901
v -0.26982200 0.06738330 -0.32352901
v -0.26982200 0.06738320 0.26490900
v -0.26982200 -0.79465598 0.26490900
v -0.26982200 -0.79465598 -0.32352999
v -0.26982200 -0.65989000 -0.32352999
v -0.26982200 -0.65989000 0.26490900
v 0.26982200 0.06738320 0.26490900
v 0.26982200 0.06738330 -0.32352901
v 0.26982200 -0.06738260 -0.32352901
v 0.26982200 -0.06738270 0.26490900
v 0.26982200 -0.65989000 0.26490900
v 0.26982200 -0.65989000 -0.32352999
v 0.26982200 -0.79465598 -0.32352999
v 0.26982200 -0.79465598 0.26490900
v -0.26982200 0.61283797 0.26490900
v -0.26982200 0.61283797 -0.32352901
v 0.26982200 0.61283797 -0.32352901
v 0.26982200 0.61283797 0.26490900
v 0.26982200 -0.06738270 0.26490900
v 0.26982200 -0.06738260 -0.32352901
v -0.26982200 -0.06738260 -0.32352901
v -0.26982200 -0.06738270 0.26490900
v 0.26982200 -0.79465598 0.26490900
v 0.26982200 -0.79465598 -0.32352999
v -0.26982200 -0.79465598 -0.32352999
v -0.26982200 -0.79465598 0.26490900
v -0.26982200 0.47807199 0.26490900
v -0.26982200 0.47807199 -0.32352901
v -0.26982200 0.61283797 -0.32352901
v -0.26982200 0.61283797 0.26490900
v 0.26982200 0.61283797 0.26490900
v 0.26982200 0.61283797 -0.32352901
v 0.26982200 0.47807199 -0.32352901
v 0.26982200 0.47807199 0.26490900
v -0.26982200 0.24920100 0.26490900
v -0.26982200 0.24920100 -0.32352901
v 0.26982200 0.24920100 -0.32352901
v 0.26982200 0.24920100 0.26490900
v -0.26982200 -0.47807100 0.26490900
v -0.26982200 -0.47807100 -0.32352901
v 0.26982200 -0.47807100 -0.32352901
v 0.26982200 -0.47807100 0.26490900
v 0.26982200 0.47807199 0.26490900
v 0.26982200 0.47807199 -0.32352901
v -0.26982200 0.47807199 -0.32352901
v -0.26982200 0.47807199 0.26490900
v -0.26982200 0.11443600 0.26490900
v -0.26982200 0.11443600 -0.32352901
v -0.26982200 0.24920100 -0.32352901
v -0.26982200 0.24920100 0.26490900
v -0.26982200 -0.61283702 0.26490900
v -0.26982200 -0.61283702 -0.32352901
v -0.26982200 -0.47807100 -0.32352901
v -0.26982200 -0.47807100 0.26490900
v 0.26982200 0.24920100 0.26490900
v 0.26982200 0.24920100 -0.32352901
v 0.26982200 0.11443600 -0.32352901
v 0.26982200 0.11443600 0.26490900
v 0.26982200 -0.47807100 0.26490900
v 0.26982200 -0.47807100 -0.32352901
v 0.26982200 -0.61283702 -0.32352901
v 0.26982200 -0.61283702 0.26490900
v -0.26982200 -0.29625300 0.26490900
v -0.26982200 -0.29625300 -0.32352901
v 0.26982200 -0.29625300 -0.32352901
v 0.26982200 -0.29625300 0.26490900
v -0.26982200 0.79465598 0.26490900
v -0.26982200 0.79465598 -0.32352901
v 0.26982200 0.79465598 -0.32352901
v 0.26982200 0.79465598 0.26490900
v 0.26982200 0.11443600 0.26490900
v 0.26982200 0.11443600 -0.32352901
v -0.26982200 0.11443600 -0.32352901
v -0.26982200 0.11443600 0.26490900
v 0.26982200 -0.61283702 0.26490900
v 0.26982200 -0.61283702 -0.32352901
v -0.26982200 -0.61283702 -0.32352901
v -0.26982200 -0.61283702 0.26490900
v -0.26982200 -0.43101901 0.26490900
v -0.26982200 -0.43101901 -0.32352901
v -0.26982200 -0.29625300 -0.32352901
v -0.26982200 -0.29625300 0.26490900
v -0.26982200 0.65989000 0.26490900
v -0.26982200 0.65989000 -0.32352901
v -0.26982200 0.79465598 -0.32352901
v -0.26982200 0.79465598 0.26490900
v 0.26982200 -0.29625300 0.26490900
v 0.26982200 -0.29625300 -0.32352901
v 0.26982200 -0.43101901 -0.32352901
v 0.26982200 -0.43101901 0.26490900
v 0.26982200 0.79465598 0.26490900
v 0.26982200 0.79465598 -0.32352901
v 0.26982200 0.65989000 -0.32352901
v 0.26982200 0.65989000 0.26490900
v -0.26982200 0.43101901 0.26490900
v -0.26982200 0.43101999 -0.32352901
v 0.26982200 0.43101999 -0.32352901
v 0.26982200 0.43101901 0.26490900
v 0.25923401 -0.67792898 -0.29147899
v 0.25923401 -0.67792898 0.25745800
v 0.25923401 -0.77661699 0.25745800
v 0.25923401 -0.77661699 -0.29147899
v 0.25178301 -0.67792898 0.26490900
v -0.25178301 -0.67792898 0.26490900
v -0.25178301 -0.77661699 0.26490900
v 0.25178301 -0.77661699 0.26490900
v 0.25178301 -0.78406799 -0.29147899
v 0.25178301 -0.78406799 0.25745800
v -0.25178301 -0.78406799 0.25745800
v -0.25178301 -0.78406799 -0.29147899
v -0.25923401 -0.77661699 -0.29147899
v -0.25923401 -0.77661699 0.25745800
v -0.25923401 -0.67792898 0.25745800
v -0.25923401 -0.67792898 -0.29147899
v -0.25178301 -0.77661699 -0.29892999
v -0.25178301 -0.67792898 -0.29892999
v 0.25178301 -0.67792898 -0.29892999
v 0.25178301 -0.77661699 -0.29892999
v 0.25178301 -0.67047799 0.25745800
v 0.25923401 -0.67792898 0.25745800
v -0.25178301 -0.67047799 0.25745800
v -0.25923401 -0.67792898 0.25745800
v -0.25923401 -0.77661699 0.25745800
v -0.25178301 -0.77661699 0.26490900
v 0.25923401 -0.77661699 0.25745800
v 0.25178301 -0.77661699 0.26490900
v 0.25178301 -0.67047697 -0.29147899
v 0.25923401 -0.67792898 -0.29147899
v 0.25178301 -0.67792898 -0.29892999
v -0.25178301 -0.67047697 -0.29147899
v -0.25178301 -0.67792898 -0.29892999
v -0.25923401 -0.67792898 -0.29147899
v -0.25923401 -0.77661699 -0.29147899
v -0.25178301 -0.78406799 -0.29147899
v 0.25923401 -0.77661699 -0.29147899
v 0.25178301 -0.78406799 -0.29147899
v -0.25923401 -0.77661699 0.25745800
v 0.25923401 -0.77661699 0.25745800
v -0.25923401 -0.67792898 -0.29147899
v 0.25923401 -0.67792898 -0.29147899
v 0.25178301 -0.67047799 0.25745800
v 0.25923401 -0.67792898 0.25745800
v -0.25923401 -0.67792898 0.25745800
v -0.25178301 -0.67047799 0.25745800
v -0.25923401 -0.77661699 -0.29147899
v 0.25923401 -0.77661699 -0.29147899
v 0.25923401 -0.49618399 -0.29147899
v 0.25923401 -0.49618399 0.25745800
v 0.25923401 -0.59487200 0.25745800
v 0.25923401 -0.59487200 -0.29147899
v 0.25178301 -0.49618399 0.26490900
v -0.25178301 -0.49618399 0.26490900
v -0.25178301 -0.59487200 0.26490900
v 0.25178301 -0.59487200 0.26490900
v 0.25178301 -0.60232300 -0.29147899
v 0.25178301 -0.60232300 0.25745800
v -0.25178301 -0.60232300 0.25745800
v -0.25178301 -0.60232300 -0.29147899
v -0.25923401 -0.59487200 -0.29147899
v -0.25923401 -0.59487200 0.25745800
v -0.25923401 -0.49618399 0.25745800
v -0.25923401 -0.49618399 -0.29147899
v -0.25178301 -0.59487200 -0.29892999
v -0.25178301 -0.49618399 -0.29892999
v 0.25178301 -0.49618399 -0.29892999
v 0.25178301 -0.59487200 -0.29892999
v 0.25178301 -0.48873299 0.25745800
v 0.25923401 -0.49618399 0.25745800
v -0.25178301 -0.48873299 0.25745800
v -0.25923401 -0.49618399 0.25745800
v -0.25923401 -0.59487200 0.25745800
v -0.25178301 -0.59487200 0.26490900
v 0.25923401 -0.59487200 0.25745800
v 0.25178301 -0.59487200 0.26490900
v 0.25178301 -0.48873299 -0.29147899
v 0.25923401 -0.49618399 -0.29147899
v 0.25178301 -0.49618399 -0.29892999
v -0.25178301 -0.48873299 -0.29147899
v -0.25178301 -0.49618399 -0.29892999
v -0.25923401 -0.49618399 -0.29147899
v -0.25923401 -0.59487200 -0.29147899
v -0.25178301 -0.60232300 -0.29147899
v 0.25923401 -0.59487200 -0.29147899
v 0.25178301 -0.60232300 -0.29147899
v -0.25923401 -0.59487200 0.25745800
v 0.25923401 -0.59487200 0.25745800
v -0.25923401 -0.49618399 -0.29147899
v 0.25923401 -0.49618399 -0.29147899
v 0.25178301 -0.48873299 0.25745800
v 0.25923401 -0.49618399 0.25745800
v -0.25923401 -0.49618399 0.25745800
v -0.25178301 -0.48873299 0.25745800
v -0.25923401 -0.59487200 -0.29147899
v 0.25923401 -0.59487200 -0.29147899
v 0.25923401 -0.31444001 -0.29147899
v 0.25923401 -0.31444001 0.25745800
v 0.25923401 -0.41312799 0.25745800
v 0.25923401 -0.41312799 -0.29147899
v 0.25178301 -0.31444001 0.26490900
v -0.25178301 -0.31444001 0.26490900
v -0.25178301 -0.41312799 0.26490900
v 0.25178301 -0.41312799 0.26490900
v 0.25178301 -0.42057899 -0.29147899
v 0.25178301 -0.42057899 0.25745800
v -0.25178301 -0.42057899 0.25745800
v -0.25178301 -0.42057899 -0.29147899
v -0.25923401 -0.41312799 -0.29147899
v -0.25923401 -0.41312799 0.25745800
v -0.25923401 -0.31444001 0.25745800
v -0.25923401 -0.31444001 -0.29147899
v -0.25178301 -0.41312799 -0.29892999
v -0.25178301 -0.31444001 -0.29892999
v 0.25178301 -0.31444001 -0.29892999
v 0.25178301 -0.41312799 -0.29892999
v 0.25178301 -0.30698901 0.25745800
v 0.25923401 -0.31444001 0.25745800
v -0.25178301 -0.30698901 0.25745800
v -0.25923401 -0.31444001 0.25745800
v -0.25923401 -0.41312799 0.25745800
v -0.25178301 -0.41312799 0.26490900
v 0.25923401 -0.41312799 0.25745800
v 0.25178301 -0.41312799 0.26490900
v 0.25178301 -0.30698901 -0.29147899
v 0.25923401 -0.31444001 -0.29147899
v 0.25178301 -0.31444001 -0.29892999
v -0.25178301 -0.30698901 -0.29147899
v -0.25178301 -0.31444001 -0.29892999
v -0.25923401 -0.31444001 -0.29147899
v -0.25923401 -0.41312799 -0.29147899
v -0.25178301 -0.42057899 -0.29147899
v 0.25923401 -0.41312799 -0.29147899
v 0.25178301 -0.42057899 -0.29147899
v -0.25923401 -0.41312799 0.25745800
v 0.25923401 -0.41312799 0.25745800
v -0.25923401 -0.31444001 -0.29147899
v 0.25923401 -0.31444001 -0.29147899
v 0.25178301 -0.30698901 0.25745800
v 0.25923401 -0.31444001 0.25745800
v -0.25923401 -0.31444001 0.25745800
v -0.25178301 -0.30698901 0.25745800
v -0.25923401 -0.41312799 -0.29147899
v 0.25923401 -0.41312799 -0.29147899
v 0.25923401 -0.13269500 -0.29147899
v 0.25923401 -0.13269500 0.25745800
v 0.25923401 -0.23138300 0.25745800
v 0.25923401 -0.23138300 -0.29147899
v 0.25178301 -0.13269500 0.26490900
v -0.25178301 -0.13269500 0.26490900
v -0.25178301 -0.23138300 0.26490900
v 0.25178301 -0.23138300 0.26490900
v 0.25178301 -0.23883399 -0.29147899
v 0.25178301 -0.23883399 0.25745800
v -0.25178301 -0.23883399 0.25745800
v -0.25178301 -0.23883399 -0.29147899
v -0.25923401 -0.23138300 -0.29147899
v -0.25923401 -0.23138300 0.25745800
v -0.25923401 -0.13269500 0.25745800
v -0.25923401 -0.13269500 -0.29147899
v -0.25178301 -0.23138300 -0.29892999
v -0.25178301 -0.13269500 -0.29892999
v 0.25178301 -0.13269500 -0.29892999
v 0.25178301 -0.23138300 -0.29892999
v 0.25178301 -0.12524401 0.25745800
v 0.25923401 -0.13269500 0.25745800
v -0.25178301 -0.12524401 0.25745800
v -0.25923401 -0.13269500 0.25745800
v -0.25923401 -0.23138300 0.25745800
v -0.25178301 -0.23138300 0.26490900
v 0.25923401 -0.23138300 0.25745800
v 0.25178301 -0.23138300 0.26490900
v 0.25178301 -0.12524401 -0.29147899
v 0.25923401 -0.13269500 -0.29147899
v -0.25178301 -0.12524401 -0.29147899
v -0.25923401 -0.13269500 -0.29147899
v -0.25923401 -0.23138300 -0.29147899
v -0.25178301 -0.23883399 -0.29147899
v 0.25923401 -0.23138300 -0.29147899
v 0.25178301 -0.23883399 -0.29147899
v -0.25923401 -0.23138300 0.25745800
v 0.25923401 -0.23138300 0.25745800
v 0.25178301 -0.12524401 0.25745800
v 0.25178301 -0.12524401 -0.29147899
v -0.25178301 -0.12524401 -0.29147899
v -0.25178301 -0.12524401 0.25745800
v -0.25923401 -0.23138300 -0.29147899
v 0.25923401 -0.23138300 -0.29147899
v -0.25178301 -0.12524401 -0.29147899
v -0.25178301 -0.12524401 0.25745800
v 0.25178301 -0.12524401 0.25745800
v 0.25178301 -0.12524401 -0.29147899
v 0.25923401 0.04904920 -0.29147899
v 0.25923401 0.04904910 0.25745800
v 0.25923401 -0.04963870 0.25745800
v 0.25923401 -0.04963860 -0.29147899
v 0.25178301 0.04904910 0.26490900
v -0.25178301 0.04904910 0.26490900
v -0.25178301 -0.04963870 0.26490900
v 0.25178301 -0.04963870 0.26490900
v 0.25178301 -0.05708990 -0.29147899
v 0.25178301 -0.05708990 0.25745800
v -0.25178301 -0.05708990 0.25745800
v -0.25178301 -0.05708990 -0.29147899
v -0.25923401 -0.04963860 -0.29147899
v -0.25923401 -0.04963870 0.25745800
v -0.25923401 0.04904910 0.25745800
v -0.25923401 0.04904920 -0.29147899
v -0.25178301 -0.04963860 -0.29892999
v -0.25178301 0.04904920 -0.29892999
v 0.25178301 0.04904920 -0.29892999
v 0.25178301 -0.04963860 -0.29892999
v 0.25178301 0.05650030 0.25745800
v 0.25923401 0.04904910 0.25745800
v -0.25178301 0.05650030 0.25745800
v -0.25923401 0.04904910 0.25745800
v -0.25923401 -0.04963870 0.25745800
v -0.25178301 -0.04963870 0.26490900
v 0.25923401 -0.04963870 0.25745800
v 0.25178301 -0.04963870 0.26490900
v 0.25178301 0.05650030 -0.29147899
v 0.25923401 0.04904920 -0.29147899
v 0.25178301 0.04904920 -0.29892999
v -0.25178301 0.05650030 -0.29147899
v -0.25178301 0.04904920 -0.29892999
v -0.25923401 0.04904920 -0.29147899
v -0.25923401 -0.04963860 -0.29147899
v -0.25178301 -0.05708990 -0.29147899
v 0.25923401 -0.04963860 -0.29147899
v 0.25178301 -0.05708990 -0.29147899
v -0.25923401 -0.04963870 0.25745800
v 0.25923401 -0.04963870 0.25745800
v -0.25923401 0.04904920 -0.29147899
v 0.25923401 0.04904920 -0.29147899
v 0.25178301 0.05650030 0.25745800
v 0.25923401 0.04904910 0.25745800
v -0.25923401 0.04904910 0.25745800
v -0.25178301 0.05650030 0.25745800
v -0.25923401 -0.04963860 -0.29147899
v 0.25923401 -0.04963860 -0.29147899
v 0.25923401 0.23079400 -0.29147899
v 0.25923401 0.23079400 0.25745800
v 0.25923401 0.13210601 0.25745800
v 0.25923401 0.13210601 -0.29147899
v 0.25178301 0.23079400 0.26490900
v -0.25178301 0.23079400 0.26490900
v -0.25178301 0.13210601 0.26490900
v 0.25178301 0.13210601 0.26490900
v 0.25178301 0.12465500 -0.29147899
v 0.25178301 0.12465500 0.25745800
v -0.25178301 0.12465500 0.25745800
v -0.25178301 0.12465500 -0.29147899
v -0.25923401 0.13210601 -0.29147899
v -0.25923401 0.13210601 0.25745800
v -0.25923401 0.23079400 0.25745800
v -0.25923401 0.23079400 -0.29147899
v -0.25178301 0.13210601 -0.29892999
v -0.25178301 0.23079400 -0.29892999
v 0.25178301 0.23079400 -0.29892999
v 0.25178301 0.13210601 -0.29892999
v 0.25178301 0.23824500 0.25745800
v 0.25178301 0.23079400 0.26490900
v 0.25923401 0.23079400 0.25745800
v -0.25178301 0.23824500 0.25745800
v -0.25923401 0.23079400 0.25745800
v -0.25178301 0.23079400 0.26490900
v -0.25923401 0.13210601 0.25745800
v -0.25178301 0.13210601 0.26490900
v 0.25923401 0.13210601 0.25745800
v 0.25178301 0.13210601 0.26490900
v 0.25178301 0.23824500 -0.29147899
v 0.25923401 0.23079400 -0.29147899
v -0.25178301 0.23824500 -0.29147899
v -0.25923401 0.23079400 -0.29147899
v -0.25923401 0.13210601 -0.29147899
v -0.25178301 0.12465500 -0.29147899
v 0.25923401 0.13210601 -0.29147899
v 0.25178301 0.12465500 -0.29147899
v -0.25923401 0.23079400 0.25745800
v -0.25923401 0.13210601 0.25745800
v 0.25923401 0.13210601 0.25745800
v 0.25923401 0.23079400 0.25745800
v 0.25923401 0.23079400 -0.29147899
v 0.25178301 0.23824500 -0.29147899
v -0.25178301 0.23824500 -0.29147899
v -0.25923401 0.23079400 -0.29147899
v -0.25923401 0.13210601 -0.29147899
v 0.25923401 0.13210601 -0.29147899
v 0.25923401 0.41253799 -0.29147899
v 0.25923401 0.41253799 0.25745800
v 0.25923401 0.31384999 0.25745800
v 0.25923401 0.31384999 -0.29147899
v 0.25178301 0.41253799 0.26490900
v -0.25178301 0.41253799 0.26490900
v -0.25178301 0.31384999 0.26490900
v 0.25178301 0.31384999 0.26490900
v 0.25178301 0.30639899 -0.29147899
v 0.25178301 0.30639899 0.25745800
v -0.25178301 0.30639899 0.25745800
v -0.25178301 0.30639899 -0.29147899
v -0.25923401 0.31384999 -0.29147899
v -0.25923401 0.31384999 0.25745800
v -0.25923401 0.41253799 0.25745800
v -0.25923401 0.41253799 -0.29147899
v -0.25178301 0.31384999 -0.29892999
v -0.25178301 0.41253799 -0.29892999
v 0.25178301 0.41253799 -0.29892999
v 0.25178301 0.31384999 -0.29892999
v 0.25178301 0.41998899 0.25745800
v 0.25178301 0.41253799 0.26490900
v 0.25923401 0.41253799 0.25745800
v -0.25178301 0.41998899 0.25745800
v -0.25923401 0.41253799 0.25745800
v -0.25178301 0.41253799 0.26490900
v -0.25923401 0.31384999 0.25745800
v -0.25178301 0.30639899 0.25745800
v 0.25923401 0.31384999 0.25745800
v 0.25178301 0.30639899 0.25745800
v 0.25178301 0.41998899 -0.29147899
v 0.25923401 0.41253799 -0.29147899
v 0.25178301 0.41253799 -0.29892999
v -0.25178301 0.41998899 -0.29147899
v -0.25178301 0.41253799 -0.29892999
v -0.25923401 0.41253799 -0.29147899
v -0.25923401 0.31384999 -0.29147899
v -0.25178301 0.31384999 -0.29892999
v 0.25923401 0.31384999 -0.29147899
v 0.25178301 0.31384999 -0.29892999
v -0.25923401 0.41253799 0.25745800
v 0.25923401 0.41253799 0.25745800
v -0.25923401 0.41253799 -0.29147899
v -0.25923401 0.31384999 -0.29147899
v 0.25923401 0.31384999 -0.29147899
v 0.25923401 0.41253799 -0.29147899
v -0.25923401 0.31384999 0.25745800
v 0.25923401 0.31384999 0.25745800
v 0.25923401 0.59428197 -0.29147899
v 0.25923401 0.59428197 0.25745800
v 0.25923401 0.49559501 0.25745800
v 0.25923401 0.49559501 -0.29147899
v 0.25178301 0.59428197 0.26490900
v -0.25178301 0.59428197 0.26490900
v -0.25178301 0.49559501 0.26490900
v 0.25178301 0.49559501 0.26490900
v 0.25178301 0.48814300 -0.29147899
v 0.25178301 0.48814300 0.25745800
v -0.25178301 0.48814300 0.25745800
v -0.25178301 0.48814300 -0.29147899
v -0.25923401 0.49559501 -0.29147899
v -0.25923401 0.49559501 0.25745800
v -0.25923401 0.59428197 0.25745800
v -0.25923401 0.59428197 -0.29147899
v -0.25178301 0.49559501 -0.29892999
v -0.25178301 0.59428197 -0.29892999
v 0.25178301 0.59428197 -0.29892999
v 0.25178301 0.49559501 -0.29892999
v 0.25178301 0.60173398 0.25745800
v 0.25923401 0.59428197 0.25745800
v -0.25178301 0.60173398 0.25745800
v -0.25923401 0.59428197 0.25745800
v -0.25923401 0.49559501 0.25745800
v -0.25178301 0.49559501 0.26490900
v 0.25923401 0.49559501 0.25745800
v 0.25178301 0.49559501 0.26490900
v 0.25178301 0.60173398 -0.29147899
v 0.25923401 0.59428197 -0.29147899
v 0.25178301 0.59428197 -0.29892999
v -0.25178301 0.60173398 -0.29147899
v -0.25178301 0.59428197 -0.29892999
v -0.25923401 0.59428197 -0.29147899
v -0.25923401 0.49559501 -0.29147899
v -0.25178301 0.49559501 -0.29892999
v 0.25923401 0.49559501 -0.29147899
v 0.25178301 0.49559501 -0.29892999
v -0.25923401 0.49559501 0.25745800
v 0.25923401 0.49559501 0.25745800
v -0.25923401 0.59428197 -0.29147899
v -0.25923401 0.49559501 -0.29147899
v 0.25923401 0.49559501 -0.29147899
v 0.25923401 0.59428197 -0.29147899
v 0.25178301 0.60173398 0.25745800
v 0.25923401 0.59428197 0.25745800
v -0.25923401 0.59428197 0.25745800
v -0.25178301 0.60173398 0.25745800
v 0.25923401 0.77602702 -0.29147899
v 0.25923401 0.77602702 0.25745800
v 0.25923401 0.67733902 0.25745800
v 0.25923401 0.67733902 -0.29147899
v 0.25178301 0.77602702 0.26490900
v -0.25178301 0.77602702 0.26490900
v -0.25178301 0.67733902 0.26490900
v 0.25178301 0.67733902 0.26490900
v 0.25178301 0.66988802 -0.29147899
v 0.25178301 0.66988802 0.25745800
v -0.25178301 0.66988802 0.25745800
v -0.25178301 0.66988802 -0.29147899
v -0.25923401 0.67733902 -0.29147899
v -0.25923401 0.67733902 0.25745800
v -0.25923401 0.77602702 0.25745800
v -0.25923401 0.77602702 -0.29147899
v -0.25178301 0.67733902 -0.29892999
v -0.25178301 0.77602702 -0.29892999
v 0.25178301 0.77602702 -0.29892999
v 0.25178301 0.67733902 -0.29892999
v 0.25178301 0.78347802 0.25745800
v 0.25923401 0.77602702 0.25745800
v -0.25178301 0.78347802 0.25745800
v -0.25923401 0.77602702 0.25745800
v -0.25923401 0.67733902 0.25745800
v -0.25178301 0.67733902 0.26490900
v 0.25923401 0.67733902 0.25745800
v 0.25178301 0.67733902 0.26490900
v 0.25178301 0.78347802 -0.29147899
v 0.25923401 0.77602702 -0.29147899
v 0.25178301 0.77602702 -0.29892999
v -0.25178301 0.78347802 -0.29147899
v -0.25178301 0.77602702 -0.29892999
v -0.25923401 0.77602702 -0.29147899
v -0.25923401 0.67733902 -0.29147899
v -0.25178301 0.67733902 -0.29892999
v 0.25923401 0.67733902 -0.29147899
v 0.25178301 0.67733902 -0.29892999
v -0.25923401 0.67733902 0.25745800
v 0.25923401 0.67733902 0.25745800
v -0.25923401 0.77602702 -0.29147899
v -0.25923401 0.67733902 -0.29147899
v 0.25923401 0.67733902 -0.29147899
v 0.25923401 0.77602702 -0.29147899
v 0.25178301 0.78347802 0.25745800
v 0.25923401 0.77602702 0.25745800
v -0.25923401 0.77602702 0.25745800
v -0.25178301 0.78347802 0.25745800
vt 0.26985100 0.24733301
vt 0.26985100 0.21181400
vt 0.38199499 0.21181400
vt 0.38199499 0.24733301
vt 0.13717400 0.51321501
vt 0.13717400 0.39860201
vt 0.24931800 0.39860201
vt 0.24931800 0.51321501
vt 0.26985100 0.10525700
vt 0.26985100 0.06973830
vt 0.38199499 0.06973830
vt 0.38199499 0.10525700
vt 0.14294299 0.35389000
vt 0.14294299 0.31837100
vt 0.25508699 0.31837100
vt 0.25508699 0.35389000
vt 0.39098999 0.03421940
vt 0.39098999 0.00459656
vt 0.50313401 0.00459656
vt 0.50313401 0.03421940
vt 0.14294299 0.38351199
vt 0.25508699 0.38351199
vt 0.26985100 0.03421940
vt 0.26985100 0.00459656
vt 0.38199499 0.00459656
vt 0.38199499 0.03421940
vt 0.39098999 0.10525700
vt 0.39098999 0.06973830
vt 0.50313401 0.06973830
vt 0.50313401 0.10525700
vt 0.39098999 0.14077599
vt 0.50313401 0.14077599
vt 0.39098999 0.17629500
vt 0.50313401 0.17629500
vt 0.39098999 0.21181400
vt 0.50313401 0.21181400
vt 0.39098999 0.24733301
vt 0.50313401 0.24733301
vt 0.39098999 0.28285199
vt 0.50313401 0.28285199
vt 0.39098999 0.31837100
vt 0.50313401 0.31837100
vt 0.39098999 0.35389000
vt 0.50313401 0.35389000
vt 0.39098999 0.38351199
vt 0.50313401 0.38351199
vt 0.01026660 0.03421940
vt 0.01026660 0.00459656
vt 0.12241000 0.00459656
vt 0.12241000 0.03421940
vt 0.01026660 0.38351199
vt 0.01026660 0.35389000
vt 0.12241000 0.35389000
vt 0.12241000 0.38351199
vt 0.26985100 0.14077599
vt 0.38199499 0.14077599
vt 0.49414000 0.52274901
vt 0.49414000 0.63770199
vt 0.39098999 0.63770199
vt 0.39098999 0.52274901
vt 0.26985100 0.17629500
vt 0.38199499 0.17629500
vt 0.24032401 0.52240801
vt 0.24032401 0.63736200
vt 0.13717400 0.63736200
vt 0.13717400 0.52240801
vt 0.87027699 0.51355600
vt 0.87027699 0.39860201
vt 0.89603698 0.39860201
vt 0.89603698 0.51355600
vt 0.26985100 0.38351199
vt 0.26985100 0.35389000
vt 0.38199499 0.35389000
vt 0.38199499 0.38351199
vt 0.93978500 0.12874401
vt 0.93978500 0.24369700
vt 0.91402501 0.24369700
vt 0.91402501 0.12874401
vt 0.84451598 0.11955000
vt 0.84451598 0.00459656
vt 0.87027502 0.00459659
vt 0.87027502 0.11955000
vt 0.90503198 0.63770199
vt 0.90503198 0.52274901
vt 0.93079102 0.52274901
vt 0.93079102 0.63770199
vt 0.10764700 0.53420001
vt 0.10764700 0.64915401
vt 0.00449754 0.64915401
vt 0.00449752 0.53420001
vt 0.61527801 0.00459656
vt 0.61527801 0.11955000
vt 0.51212901 0.11955000
vt 0.51212901 0.00459658
vt 0.14294299 0.24733301
vt 0.14294299 0.21181400
vt 0.25508699 0.21181400
vt 0.25508699 0.24733301
vt 0.14294299 0.28285199
vt 0.25508699 0.28285199
vt 0.01026660 0.51911098
vt 0.01026660 0.40449801
vt 0.12241000 0.40449801
vt 0.12241000 0.51911098
vt 0.27884501 0.76184899
vt 0.27884501 0.64689600
vt 0.38199499 0.64689600
vt 0.38199499 0.76184899
vt 0.14294299 0.06973830
vt 0.14294299 0.03421940
vt 0.25508699 0.03421940
vt 0.25508699 0.06973830
vt 0.14294299 0.10525700
vt 0.25508699 0.10525700
vt 0.14294299 0.14077599
vt 0.25508699 0.14077599
vt 0.14294299 0.17629500
vt 0.25508699 0.17629500
vt 0.26985100 0.28285199
vt 0.38199499 0.28285199
vt 0.26985100 0.31837100
vt 0.38199499 0.31837100
vt 0.01026660 0.52500701
vt 0.00449752 0.51911098
vt 0.12817900 0.51911098
vt 0.12241000 0.52500701
vt 0.26085600 0.38351199
vt 0.25508699 0.38940901
vt 0.00449760 0.38351199
vt 0.01026660 0.38940901
vt 0.12817900 0.38351199
vt 0.12241000 0.38940799
vt 0.00449753 0.40449801
vt 0.01026660 0.39860201
vt 0.12817900 0.40449801
vt 0.12241000 0.39860201
vt 0.13717400 0.38351199
vt 0.14294299 0.38940901
vt 0.12817900 0.00459656
vt 0.12817900 0.03421940
vt 0.00449758 0.31837100
vt 0.01026660 0.31837100
vt 0.00449760 0.35389000
vt 0.00449757 0.28285199
vt 0.01026660 0.28285199
vt 0.00449756 0.24733301
vt 0.01026660 0.24733301
vt 0.00449756 0.21181400
vt 0.01026660 0.21181400
vt 0.00449756 0.17629500
vt 0.01026660 0.17629500
vt 0.00449753 0.14077599
vt 0.01026660 0.14077599
vt 0.00449753 0.10525700
vt 0.01026660 0.10525700
vt 0.00449752 0.06973830
vt 0.01026660 0.06973830
vt 0.00449752 0.03421940
vt 0.00449752 0.00459656
vt 0.26085600 0.31837100
vt 0.26085600 0.35389000
vt 0.26085600 0.28285199
vt 0.26085600 0.24733301
vt 0.26085600 0.21181400
vt 0.26085600 0.17629500
vt 0.26085600 0.14077599
vt 0.26085600 0.10525700
vt 0.26085600 0.06973830
vt 0.26085600 0.03421940
vt 0.25508699 0.00459656
vt 0.26085600 0.00459656
vt 0.50313401 0.38940901
vt 0.39098999 0.38940901
vt 0.26985100 0.38940901
vt 0.38199499 0.38940901
vt 0.12817900 0.35389000
vt 0.13717400 0.35389000
vt 0.12817900 0.06973830
vt 0.12241000 0.06973830
vt 0.12817900 0.10525700
vt 0.12241000 0.10525700
vt 0.12817900 0.14077599
vt 0.12241000 0.14077599
vt 0.12817900 0.17629500
vt 0.12241000 0.17629500
vt 0.12817900 0.21181400
vt 0.12241000 0.21181400
vt 0.12817900 0.24733301
vt 0.12241000 0.24733301
vt 0.12817900 0.28285199
vt 0.12241000 0.28285199
vt 0.12817900 0.31837100
vt 0.12241000 0.31837100
vt 0.13717400 0.00459656
vt 0.14294299 0.00459656
vt 0.13717400 0.03421940
vt 0.13717400 0.06973830
vt 0.13717400 0.10525700
vt 0.13717400 0.14077599
vt 0.13717400 0.17629500
vt 0.13717400 0.21181400
vt 0.13717400 0.24733301
vt 0.13717400 0.28285199
vt 0.13717400 0.31837100
vt 0.01476350 0.21641000
vt 0.11791300 0.21641000
vt 0.11791300 0.24273700
vt 0.01476350 0.24273700
vt 0.01476350 0.28744799
vt 0.11791300 0.28744799
vt 0.11791300 0.31377500
vt 0.01476350 0.31377500
vt 0.01476350 0.32296699
vt 0.11791300 0.32296699
vt 0.11791300 0.34929401
vt 0.01476350 0.34929401
vt 0.01476340 0.03881530
vt 0.11791300 0.03881530
vt 0.11791300 0.06514240
vt 0.01476350 0.06514240
vt 0.01476350 0.07433420
vt 0.11791300 0.07433420
vt 0.11791300 0.10066100
vt 0.01476350 0.10066100
vt 0.01476350 0.10985300
vt 0.11791300 0.10985300
vt 0.11791300 0.13618000
vt 0.01476350 0.13618000
vt 0.01476350 0.14537200
vt 0.11791300 0.14537200
vt 0.11791300 0.17169900
vt 0.01476350 0.17169900
vt 0.01476350 0.18089101
vt 0.11791300 0.18089101
vt 0.11791300 0.20721801
vt 0.01476350 0.20721801
vt 0.01476350 0.25192899
vt 0.11791300 0.25192899
vt 0.11791300 0.27825600
vt 0.01476350 0.27825600
vt 0.96554601 0.50402302
vt 0.93978602 0.50402302
vt 0.93978602 0.39860201
vt 0.96554601 0.39860201
vt 0.93573898 0.76332599
vt 0.96149802 0.76332599
vt 0.96149898 0.86874700
vt 0.93573898 0.86874700
vt 0.93573898 0.87794000
vt 0.96149802 0.87794000
vt 0.96149802 0.98336202
vt 0.93573898 0.98336202
vt 0.81864601 0.98808903
vt 0.79288697 0.98808903
vt 0.79288697 0.88266701
vt 0.81864601 0.88266701
vt 0.74913698 0.98808903
vt 0.72337699 0.98808903
vt 0.72337699 0.88266701
vt 0.74913698 0.88266701
vt 0.78389198 0.98808903
vt 0.75813198 0.98808903
vt 0.75813198 0.88266701
vt 0.78389198 0.88266701
vt 0.41675001 0.98954397
vt 0.39098999 0.98954397
vt 0.39098999 0.88412303
vt 0.41675001 0.88412303
vt 0.96554601 0.62817001
vt 0.93978602 0.62817001
vt 0.93978602 0.52274901
vt 0.96554601 0.52274901
vt 0.96248299 0.75231701
vt 0.93672299 0.75231701
vt 0.93672299 0.64689600
vt 0.96248299 0.64689600
vt 0.60628498 0.52274901
vt 0.60628498 0.63770199
vt 0.50313503 0.63770199
vt 0.50313503 0.52274901
vt 0.72742301 0.12874401
vt 0.72742301 0.24369700
vt 0.62427402 0.24369700
vt 0.62427402 0.12874401
vt 0.83147401 0.87827998
vt 0.83147401 0.76332599
vt 0.85723400 0.76332599
vt 0.85723400 0.87827998
vt 0.86128199 0.39860201
vt 0.86128199 0.51355600
vt 0.83552200 0.51355600
vt 0.83552200 0.39860201
vt 0.89198899 0.76332599
vt 0.89198899 0.87827998
vt 0.86622900 0.87827998
vt 0.86622900 0.76332599
vt 0.84451598 0.36784399
vt 0.84451598 0.25288999
vt 0.87027502 0.25288999
vt 0.87027502 0.36784399
vt 0.49414000 0.39860201
vt 0.49414000 0.51355600
vt 0.39098999 0.51355600
vt 0.39098999 0.39860201
vt 0.24032401 0.64655501
vt 0.24032401 0.76150900
vt 0.13717400 0.76150900
vt 0.13717400 0.64655501
vt 0.38199499 0.52274901
vt 0.38199499 0.63770199
vt 0.27884501 0.63770199
vt 0.27884501 0.52274901
vt 0.93978500 0.00459656
vt 0.93978500 0.11955000
vt 0.91402501 0.11955000
vt 0.91402501 0.00459657
vt 0.93978500 0.25288999
vt 0.93978500 0.36784399
vt 0.91402501 0.36784399
vt 0.91402501 0.25288999
vt 0.72742301 0.00459656
vt 0.72742301 0.11955000
vt 0.62427402 0.11955000
vt 0.62427402 0.00459658
vt 0.60628498 0.39860201
vt 0.60628498 0.51355600
vt 0.50313503 0.51355600
vt 0.50313503 0.39860201
vt 0.61527801 0.25288999
vt 0.61527801 0.36784399
vt 0.51212901 0.36784399
vt 0.51212901 0.25288999
vt 0.92674398 0.76332599
vt 0.92674398 0.87827998
vt 0.90098399 0.87827998
vt 0.90098399 0.76332599
vt 0.83552200 0.63770199
vt 0.83552200 0.52274901
vt 0.86128199 0.52274901
vt 0.86128199 0.63770199
vt 0.93079102 0.39860201
vt 0.93079102 0.51355600
vt 0.90503198 0.51355600
vt 0.90503198 0.39860201
vt 0.87927097 0.11955000
vt 0.87927097 0.00459656
vt 0.90503001 0.00459656
vt 0.90503001 0.11955000
vt 0.71842998 0.39860201
vt 0.71842998 0.51355600
vt 0.61527997 0.51355600
vt 0.61527997 0.39860201
vt 0.38199499 0.39860201
vt 0.38199499 0.51355600
vt 0.27884501 0.51355600
vt 0.27884501 0.39860201
vt 0.61527801 0.12874401
vt 0.61527801 0.24369700
vt 0.51212901 0.24369700
vt 0.51212901 0.12874401
vt 0.72742301 0.25288999
vt 0.72742301 0.36784399
vt 0.62427402 0.36784399
vt 0.62427402 0.25288999
vt 0.87027502 0.12874401
vt 0.87027502 0.24369700
vt 0.84451598 0.24369700
vt 0.84451598 0.12874401
vt 0.90503001 0.12874401
vt 0.90503001 0.24369700
vt 0.87927002 0.24369700
vt 0.87927002 0.12874401
vt 0.89603698 0.52274901
vt 0.89603698 0.63770199
vt 0.87027699 0.63770199
vt 0.87027699 0.52274901
vt 0.90503001 0.25288999
vt 0.90503001 0.36784399
vt 0.87927002 0.36784399
vt 0.87927002 0.25288999
vt 0.71842998 0.52274901
vt 0.71842998 0.63770199
vt 0.61527997 0.63770199
vt 0.61527997 0.52274901
vt 0.85033798 0.88747299
vt 0.85033798 0.99471003
vt 0.83147401 0.99471003
vt 0.83147401 0.88747299
vt 0.21460401 0.89004302
vt 0.21460401 0.98841703
vt 0.19574000 0.98841703
vt 0.19574000 0.89004302
vt 0.72480100 0.75558800
vt 0.72480100 0.64835101
vt 0.82105500 0.64835101
vt 0.82105500 0.75558800
vt 0.94878000 0.35241100
vt 0.94878000 0.24517401
vt 0.96764398 0.24517401
vt 0.96764398 0.35241100
vt 0.05264410 0.99394798
vt 0.03378050 0.99394798
vt 0.03378040 0.89557397
vt 0.05264410 0.89557397
vt 0.21602800 0.89004302
vt 0.21460401 0.88858801
vt 0.21602800 0.98841703
vt 0.21460401 0.98987299
vt 0.82247901 0.64835101
vt 0.82105500 0.64689600
vt 0.72337699 0.64835101
vt 0.72480100 0.64689600
vt 0.00592177 0.77768898
vt 0.00449752 0.77768898
vt 0.00592177 0.77623302
vt 0.10217600 0.77768898
vt 0.10217600 0.77623302
vt 0.10360000 0.77768898
vt 0.05264410 0.99540299
vt 0.05406830 0.99394798
vt 0.05264410 0.89411902
vt 0.05406830 0.89557397
vt 0.19574000 0.98987299
vt 0.19574000 0.88858801
vt 0.03378050 0.99540299
vt 0.03378040 0.89411902
vt 0.00592178 0.88492602
vt 0.00449752 0.88492602
vt 0.10360000 0.88492602
vt 0.10217600 0.88492602
vt 0.82247901 0.75558800
vt 0.72337699 0.75558800
vt 0.94878000 0.23598000
vt 0.94878000 0.12874401
vt 0.96764398 0.12874401
vt 0.96764398 0.23598000
vt 0.29770899 0.89038402
vt 0.29770899 0.98875701
vt 0.27884501 0.98875701
vt 0.27884501 0.89038402
vt 0.72884899 0.62518001
vt 0.72884899 0.51794302
vt 0.82510298 0.51794302
vt 0.82510298 0.62518001
vt 0.94878000 0.11183400
vt 0.94878000 0.00459657
vt 0.96764398 0.00459656
vt 0.96764398 0.11183400
vt 0.02336120 0.99394798
vt 0.00449753 0.99394798
vt 0.00449752 0.89557397
vt 0.02336110 0.89557397
vt 0.29913300 0.89038402
vt 0.29770899 0.88892800
vt 0.29913300 0.98875701
vt 0.29770899 0.99021298
vt 0.82652700 0.51794302
vt 0.82510298 0.51648700
vt 0.72742498 0.51794302
vt 0.72884899 0.51648700
vt 0.13859899 0.77215803
vt 0.13717400 0.77215803
vt 0.13859899 0.77070200
vt 0.23485200 0.77215803
vt 0.23485200 0.77070200
vt 0.23627700 0.77215803
vt 0.02336120 0.99540299
vt 0.02478540 0.99394798
vt 0.02336110 0.89411902
vt 0.02478540 0.89557397
vt 0.27884501 0.99021298
vt 0.27884501 0.88892800
vt 0.00449753 0.99540299
vt 0.00449752 0.89411902
vt 0.13859899 0.87939501
vt 0.13717400 0.87939501
vt 0.23627700 0.87939501
vt 0.23485200 0.87939501
vt 0.82652700 0.62518001
vt 0.72742498 0.62518001
vt 0.56503803 0.99136001
vt 0.56503803 0.88412303
vt 0.58390200 0.88412303
vt 0.58390200 0.99136001
vt 0.32699201 0.89038402
vt 0.32699201 0.98875701
vt 0.30812800 0.98875701
vt 0.30812800 0.89038402
vt 0.73784298 0.36158299
vt 0.73784298 0.25434601
vt 0.83409601 0.25434601
vt 0.83409601 0.36158299
vt 0.45360300 0.99136001
vt 0.45360300 0.88412303
vt 0.47246701 0.88412303
vt 0.47246701 0.99136001
vt 0.35627401 0.98875701
vt 0.33741099 0.98875701
vt 0.33741099 0.89038402
vt 0.35627401 0.89038402
vt 0.32841599 0.89038402
vt 0.32699201 0.88892800
vt 0.32841599 0.98875701
vt 0.32699201 0.99021298
vt 0.83552098 0.25434601
vt 0.83409601 0.25288999
vt 0.73641801 0.25434601
vt 0.73784298 0.25288999
vt 0.60081297 0.87347400
vt 0.60223699 0.87347400
vt 0.60081297 0.87492901
vt 0.50455898 0.87347400
vt 0.50455898 0.87492901
vt 0.50313503 0.87347400
vt 0.35627401 0.99021298
vt 0.35769901 0.98875701
vt 0.35627401 0.88892800
vt 0.35769901 0.89038402
vt 0.30812800 0.99021298
vt 0.30812800 0.88892800
vt 0.33741099 0.99021298
vt 0.33741099 0.88892800
vt 0.60081297 0.76623702
vt 0.60223699 0.76623702
vt 0.50313503 0.76623702
vt 0.50455898 0.76623702
vt 0.83552098 0.36158299
vt 0.73641801 0.36158299
vt 0.26818299 0.52240801
vt 0.26818299 0.62964499
vt 0.24931900 0.62964499
vt 0.24931900 0.52240801
vt 0.11121000 0.89557397
vt 0.11121000 0.99394798
vt 0.09234630 0.99394798
vt 0.09234630 0.89557397
vt 0.73784298 0.11328900
vt 0.73784298 0.00605220
vt 0.83409601 0.00605219
vt 0.83409601 0.11328900
vt 0.26960701 0.63883799
vt 0.26960701 0.74607497
vt 0.25074399 0.74607497
vt 0.25074399 0.63883799
vt 0.26556000 0.87053102
vt 0.24669600 0.87053102
vt 0.24669600 0.77215803
vt 0.26556000 0.77215803
vt 0.11263400 0.89557397
vt 0.11121000 0.89411902
vt 0.11263400 0.99394798
vt 0.11121000 0.99540299
vt 0.83552098 0.00605219
vt 0.83409601 0.00459656
vt 0.73641801 0.00605221
vt 0.73784298 0.00459658
vt 0.24527200 0.77215803
vt 0.24669600 0.77070200
vt 0.24527200 0.87053102
vt 0.24669600 0.87198699
vt 0.26556000 0.87198699
vt 0.26698399 0.87053102
vt 0.26556000 0.77070200
vt 0.26698399 0.77215803
vt 0.09234630 0.99540299
vt 0.09234630 0.89411902
vt 0.26960701 0.62964499
vt 0.26960701 0.52240801
vt 0.24931900 0.63883799
vt 0.24931900 0.74607497
vt 0.83552098 0.11328900
vt 0.73641801 0.11328900
vt 0.83147401 0.75413299
vt 0.83147401 0.64689600
vt 0.92772800 0.64689600
vt 0.92772800 0.75413299
vt 0.88719201 0.99471003
vt 0.88719201 0.88747299
vt 0.90605497 0.88747299
vt 0.90605497 0.99471003
vt 0.08192700 0.89557397
vt 0.08192700 0.99394798
vt 0.06306340 0.99394798
vt 0.06306340 0.89557397
vt 0.73784298 0.23743600
vt 0.73784298 0.13019900
vt 0.83409601 0.13019900
vt 0.83409601 0.23743600
vt 0.85933298 0.99471003
vt 0.85933298 0.88747299
vt 0.87819701 0.88747299
vt 0.87819701 0.99471003
vt 0.98935699 0.86315501
vt 0.97049397 0.86315501
vt 0.97049397 0.76478100
vt 0.98935699 0.76478100
vt 0.08335130 0.89557397
vt 0.08192700 0.89411902
vt 0.08335130 0.99394798
vt 0.08192700 0.99540299
vt 0.83552098 0.13019900
vt 0.83409601 0.12874401
vt 0.73641801 0.13019900
vt 0.73784298 0.12874401
vt 0.82105500 0.87201798
vt 0.82247901 0.87201798
vt 0.82105500 0.87347400
vt 0.72480100 0.87201798
vt 0.72480100 0.87347400
vt 0.72337699 0.87201798
vt 0.98935699 0.86461002
vt 0.99078101 0.86315501
vt 0.98935699 0.76332599
vt 0.99078101 0.76478100
vt 0.06306340 0.99540299
vt 0.06306340 0.89411902
vt 0.97049397 0.86461002
vt 0.97049397 0.76332599
vt 0.82105500 0.76478100
vt 0.82247901 0.76478100
vt 0.72337699 0.76478100
vt 0.72480100 0.76478100
vt 0.83552098 0.23743600
vt 0.73641801 0.23743600
vt 0.64861399 0.99136001
vt 0.64861399 0.88412303
vt 0.66747802 0.88412303
vt 0.66747802 0.99136001
vt 0.97663897 0.10442600
vt 0.97663897 0.00605219
vt 0.99550200 0.00605219
vt 0.99550200 0.10442600
vt 0.00592179 0.76704001
vt 0.00592178 0.65980297
vt 0.10217600 0.65980297
vt 0.10217600 0.76704001
vt 0.42574501 0.99136001
vt 0.42574501 0.88412303
vt 0.44460800 0.88412303
vt 0.44460800 0.99136001
vt 0.26556000 0.98100901
vt 0.24669600 0.98100901
vt 0.24669600 0.88263601
vt 0.26556000 0.88263601
vt 0.39241400 0.87347400
vt 0.39241400 0.87493002
vt 0.39098999 0.87347400
vt 0.48866799 0.87347400
vt 0.49009201 0.87347400
vt 0.48866799 0.87493002
vt 0.10360000 0.65980297
vt 0.10217600 0.65834701
vt 0.00449752 0.65980297
vt 0.00592178 0.65834701
vt 0.24527200 0.88263601
vt 0.24669600 0.88117999
vt 0.24527200 0.98100901
vt 0.24669600 0.98246503
vt 0.26556000 0.98246503
vt 0.26698399 0.98100901
vt 0.26556000 0.88117999
vt 0.26698399 0.88263601
vt 0.97663897 0.00459656
vt 0.99550200 0.00459656
vt 0.99550200 0.10588100
vt 0.97663897 0.10588100
vt 0.39098999 0.76623702
vt 0.39241400 0.76623702
vt 0.48866799 0.76623702
vt 0.49009201 0.76623702
vt 0.10360000 0.76704001
vt 0.00449753 0.76704001
vt 0.67647302 0.99136001
vt 0.67647302 0.88412303
vt 0.69533598 0.88412303
vt 0.69533598 0.99136001
vt 0.99078101 0.87939602
vt 0.99078101 0.97776902
vt 0.97191799 0.97776902
vt 0.97191799 0.87939602
vt 0.72884899 0.50583899
vt 0.72884899 0.39860201
vt 0.82510298 0.39860201
vt 0.82510298 0.50583899
vt 0.62075502 0.99136001
vt 0.62075502 0.88412303
vt 0.63961899 0.88412303
vt 0.63961899 0.99136001
vt 0.99340498 0.49843100
vt 0.97454101 0.49843100
vt 0.97454101 0.40005699
vt 0.99340498 0.40005699
vt 0.61670399 0.75558800
vt 0.61670399 0.75704402
vt 0.61527997 0.75558800
vt 0.71295798 0.75558800
vt 0.71438199 0.75558800
vt 0.71295798 0.75704402
vt 0.97191799 0.97922498
vt 0.97049397 0.97776902
vt 0.97191799 0.87794000
vt 0.97049397 0.87939602
vt 0.61670399 0.64835101
vt 0.61527997 0.64835101
vt 0.61670399 0.64689600
vt 0.71295798 0.64835101
vt 0.71295798 0.64689600
vt 0.71438199 0.64835101
vt 0.82652700 0.50583899
vt 0.82510298 0.50729400
vt 0.72742498 0.50583899
vt 0.72884899 0.50729400
vt 0.99078101 0.97922498
vt 0.99078101 0.87794000
vt 0.97454101 0.49988601
vt 0.99340498 0.49988601
vt 0.99340498 0.39860201
vt 0.97454101 0.39860201
vt 0.82652700 0.39860201
vt 0.72742498 0.39860201
vt 0.50932097 0.99136001
vt 0.50932097 0.88412303
vt 0.52818400 0.88412303
vt 0.52818400 0.99136001
vt 0.15603800 0.89004302
vt 0.15603800 0.98841703
vt 0.13717400 0.98841703
vt 0.13717400 0.89004302
vt 0.39241400 0.75558800
vt 0.39241400 0.64835101
vt 0.48866799 0.64835101
vt 0.48866799 0.75558800
vt 0.59289700 0.99136001
vt 0.59289700 0.88412303
vt 0.61176002 0.88412303
vt 0.61176002 0.99136001
vt 0.97454101 0.51467198
vt 0.99340498 0.51467198
vt 0.99340498 0.61304599
vt 0.97454101 0.61304599
vt 0.15746200 0.89004302
vt 0.15603800 0.88858801
vt 0.15746200 0.98841703
vt 0.15603800 0.98987299
vt 0.49009201 0.64835101
vt 0.48866799 0.64689600
vt 0.39098999 0.64835101
vt 0.39241400 0.64689600
vt 0.61670399 0.76769298
vt 0.61527997 0.76769298
vt 0.61670399 0.76623702
vt 0.71295798 0.76769298
vt 0.71295798 0.76623702
vt 0.71438199 0.76769298
vt 0.49009201 0.75558800
vt 0.48866799 0.75704402
vt 0.39098999 0.75558800
vt 0.39241400 0.75704402
vt 0.13717400 0.98987299
vt 0.13717400 0.88858801
vt 0.99340498 0.51321602
vt 0.97454101 0.51321602
vt 0.97454101 0.61450100
vt 0.99340498 0.61450100
vt 0.61670399 0.87493002
vt 0.61527997 0.87493002
vt 0.71438199 0.87493002
vt 0.71295798 0.87493002
vt 0.53717899 0.99136001
vt 0.53717899 0.88412303
vt 0.55604303 0.88412303
vt 0.55604303 0.99136001
vt 0.18532100 0.89004302
vt 0.18532100 0.98841703
vt 0.16645700 0.98841703
vt 0.16645700 0.89004302
vt 0.60081297 0.64835101
vt 0.60081297 0.75558800
vt 0.50455898 0.75558800
vt 0.50455898 0.64835101
vt 0.48146200 0.99136001
vt 0.48146200 0.88412303
vt 0.50032598 0.88412303
vt 0.50032598 0.99136001
vt 0.97147799 0.64835101
vt 0.99034202 0.64835101
vt 0.99034202 0.74672502
vt 0.97147799 0.74672502
vt 0.18674500 0.89004302
vt 0.18532100 0.88858801
vt 0.18674500 0.98841703
vt 0.18532100 0.98987299
vt 0.50313503 0.75558800
vt 0.50455898 0.75704402
vt 0.60223699 0.75558800
vt 0.60081297 0.75704402
vt 0.28026900 0.77249801
vt 0.27884501 0.77249801
vt 0.28026900 0.77104300
vt 0.37652299 0.77249801
vt 0.37652299 0.77104300
vt 0.37794700 0.77249801
vt 0.50313503 0.64835101
vt 0.50455898 0.64689600
vt 0.60223699 0.64835101
vt 0.60081297 0.64689600
vt 0.16645700 0.98987299
vt 0.16645700 0.88858801
vt 0.99034202 0.64689600
vt 0.97147799 0.64689600
vt 0.97147799 0.74817997
vt 0.99034202 0.74817997
vt 0.28026900 0.87973499
vt 0.27884501 0.87973499
vt 0.37794700 0.87973499
vt 0.37652299 0.87973499
f 1/1 2/2 3/3
f 3/3 4/4 1/1
f 5/5 6/6 7/7
f 7/7 8/8 5/5
f 9/9 10/10 11/11
f 11/11 12/12 9/9
f 13/13 14/14 15/15
f 15/15 16/16 13/13
f 17/17 18/18 19/19
f 19/19 20/20 17/17
f 21/21 13/13 16/16
f 16/16 22/22 21/21
f 23/23 24/24 25/25
f 25/25 26/26 23/23
f 27/27 28/28 29/29
f 29/29 30/30 27/27
f 31/31 27/27 30/30
f 30/30 32/32 31/31
f 33/33 31/31 32/32
f 32/32 34/34 33/33
f 35/35 33/33 34/34
f 34/34 36/36 35/35
f 37/37 35/35 36/36
f 36/36 38/38 37/37
f 39/39 37/37 38/38
f 38/38 40/40 39/39
f 41/41 39/39 40/40
f 40/40 42/42 41/41
f 43/43 41/41 42/42
f 42/42 44/44 43/43
f 45/45 43/43 44/44
f 44/44 46/46 45/45
f 47/47 48/48 49/49
f 49/49 50/50 47/47
f 10/10 23/23 26/26
f 26/26 11/11 10/10
f 51/51 52/52 53/53
f 53/53 54/54 51/51
f 55/55 9/9 12/12
f 12/12 56/56 55/55
f 57/57 58/58 59/59
f 59/59 60/60 57/57
f 2/2 61/61 62/62
f 62/62 3/3 2/2
f 63/63 64/64 65/65
f 65/65 66/66 63/63
f 67/67 68/68 69/69
f 69/69 70/70 67/67
f 28/28 17/17 20/20
f 20/20 29/29 28/28
f 71/71 72/72 73/73
f 73/73 74/74 71/71
f 75/75 76/76 77/77
f 77/77 78/78 75/75
f 79/79 80/80 81/81
f 81/81 82/82 79/79
f 83/83 84/84 85/85
f 85/85 86/86 83/83
f 87/87 88/88 89/89
f 89/89 90/90 87/87
f 61/61 55/55 56/56
f 56/56 62/62 61/61
f 91/91 92/92 93/93
f 93/93 94/94 91/91
f 95/95 96/96 97/97
f 97/97 98/98 95/95
f 99/99 95/95 98/98
f 98/98 100/100 99/99
f 14/14 99/99 100/100
f 100/100 15/15 14/14
f 101/101 102/102 103/103
f 103/103 104/104 101/101
f 105/105 106/106 107/107
f 107/107 108/108 105/105
f 109/109 110/110 111/111
f 111/111 112/112 109/109
f 113/113 109/109 112/112
f 112/112 114/114 113/113
f 115/115 113/113 114/114
f 114/114 116/116 115/115
f 117/117 115/115 116/116
f 116/116 118/118 117/117
f 96/96 117/117 118/118
f 118/118 97/97 96/96
f 119/119 1/1 4/4
f 4/4 120/120 119/119
f 121/121 119/119 120/120
f 120/120 122/122 121/121
f 72/72 121/121 122/122
f 122/122 73/73 72/72
f 123/123 124/124 101/101
f 104/104 125/125 126/126
f 22/22 127/127 128/128
f 129/129 51/51 130/130
f 131/131 132/132 54/54
f 133/133 134/134 102/102
f 135/135 103/103 136/136
f 137/137 21/21 138/138
f 49/49 139/139 140/140
f 140/140 50/50 49/49
f 141/141 142/142 52/52
f 52/52 143/143 141/141
f 144/144 145/145 142/142
f 142/142 141/141 144/144
f 146/146 147/147 145/145
f 145/145 144/144 146/146
f 148/148 149/149 147/147
f 147/147 146/146 148/148
f 150/150 151/151 149/149
f 149/149 148/148 150/150
f 152/152 153/153 151/151
f 151/151 150/150 152/152
f 154/154 155/155 153/153
f 153/153 152/152 154/154
f 156/156 157/157 155/155
f 155/155 154/154 156/156
f 158/158 47/47 157/157
f 157/157 156/156 158/158
f 159/159 48/48 47/47
f 47/47 158/158 159/159
f 15/15 160/160 161/161
f 161/161 16/16 15/15
f 102/102 134/134 136/136
f 136/136 103/103 102/102
f 100/100 162/162 160/160
f 160/160 15/15 100/100
f 98/98 163/163 162/162
f 162/162 100/100 98/98
f 97/97 164/164 163/163
f 163/163 98/98 97/97
f 16/16 161/161 127/127
f 127/127 22/22 16/16
f 118/118 165/165 164/164
f 164/164 97/97 118/118
f 116/116 166/166 165/165
f 165/165 118/118 116/116
f 114/114 167/167 166/166
f 166/166 116/116 114/114
f 112/112 168/168 167/167
f 167/167 114/114 112/112
f 123/123 101/101 104/104
f 104/104 126/126 123/123
f 111/111 169/169 168/168
f 168/168 112/112 111/111
f 170/170 171/171 169/169
f 169/169 111/111 170/170
f 46/46 172/172 173/173
f 173/173 45/45 46/46
f 133/133 102/102 101/101
f 101/101 124/124 133/133
f 174/174 71/71 74/74
f 74/74 175/175 174/174
f 54/54 132/132 130/130
f 130/130 51/51 54/54
f 103/103 135/135 125/125
f 125/125 104/104 103/103
f 22/22 128/128 138/138
f 138/138 21/21 22/22
f 143/143 52/52 51/51
f 51/51 129/129 143/143
f 53/53 176/176 131/131
f 131/131 54/54 53/53
f 177/177 13/13 21/21
f 21/21 137/137 177/177
f 50/50 140/140 178/178
f 178/178 179/179 50/50
f 179/179 178/178 180/180
f 180/180 181/181 179/179
f 181/181 180/180 182/182
f 182/182 183/183 181/181
f 183/183 182/182 184/184
f 184/184 185/185 183/183
f 185/185 184/184 186/186
f 186/186 187/187 185/185
f 187/187 186/186 188/188
f 188/188 189/189 187/187
f 189/189 188/188 190/190
f 190/190 191/191 189/189
f 191/191 190/190 192/192
f 192/192 193/193 191/191
f 193/193 192/192 176/176
f 176/176 53/53 193/193
f 194/194 195/195 110/110
f 110/110 196/196 194/194
f 196/196 110/110 109/109
f 109/109 197/197 196/196
f 197/197 109/109 113/113
f 113/113 198/198 197/197
f 198/198 113/113 115/115
f 115/115 199/199 198/198
f 199/199 115/115 117/117
f 117/117 200/200 199/199
f 200/200 117/117 96/96
f 96/96 201/201 200/200
f 201/201 96/96 95/95
f 95/95 202/202 201/201
f 202/202 95/95 99/99
f 99/99 203/203 202/202
f 203/203 99/99 14/14
f 14/14 204/204 203/203
f 204/204 14/14 13/13
f 13/13 177/177 204/204
f 110/110 195/195 170/170
f 170/170 111/111 110/110
f 205/205 149/149 187/187
f 187/187 206/206 205/205
f 206/206 187/187 189/189
f 189/189 207/207 206/206
f 207/207 189/189 147/147
f 147/147 208/208 207/207
f 208/208 147/147 149/149
f 149/149 205/205 208/208
f 209/209 145/145 191/191
f 191/191 210/210 209/209
f 210/210 191/191 193/193
f 193/193 211/211 210/210
f 211/211 193/193 142/142
f 142/142 212/212 211/211
f 212/212 142/142 145/145
f 145/145 209/209 212/212
f 213/213 142/142 193/193
f 193/193 214/214 213/213
f 214/214 193/193 53/53
f 53/53 215/215 214/214
f 215/215 53/53 52/52
f 52/52 216/216 215/215
f 216/216 52/52 142/142
f 142/142 213/213 216/216
f 217/217 47/47 50/50
f 50/50 218/218 217/217
f 218/218 50/50 179/179
f 179/179 219/219 218/218
f 219/219 179/179 157/157
f 157/157 220/220 219/219
f 220/220 157/157 47/47
f 47/47 217/217 220/220
f 221/221 157/157 179/179
f 179/179 222/222 221/221
f 222/222 179/179 181/181
f 181/181 223/223 222/222
f 223/223 181/181 155/155
f 155/155 224/224 223/223
f 224/224 155/155 157/157
f 157/157 221/221 224/224
f 225/225 155/155 181/181
f 181/181 226/226 225/225
f 226/226 181/181 183/183
f 183/183 227/227 226/226
f 227/227 183/183 153/153
f 153/153 228/228 227/227
f 228/228 153/153 155/155
f 155/155 225/225 228/228
f 229/229 153/153 183/183
f 183/183 230/230 229/229
f 230/230 183/183 185/185
f 185/185 231/231 230/230
f 231/231 185/185 151/151
f 151/151 232/232 231/231
f 232/232 151/151 153/153
f 153/153 229/229 232/232
f 233/233 151/151 185/185
f 185/185 234/234 233/233
f 234/234 185/185 187/187
f 187/187 235/235 234/234
f 235/235 187/187 149/149
f 149/149 236/236 235/235
f 236/236 149/149 151/151
f 151/151 233/233 236/236
f 237/237 147/147 189/189
f 189/189 238/238 237/237
f 238/238 189/189 191/191
f 191/191 239/239 238/238
f 239/239 191/191 145/145
f 145/145 240/240 239/239
f 240/240 145/145 147/147
f 147/147 237/237 240/240
f 241/241 242/242 243/243
f 243/243 244/244 241/241
f 245/245 246/246 247/247
f 247/247 248/248 245/245
f 249/249 250/250 251/251
f 251/251 252/252 249/249
f 253/253 254/254 255/255
f 255/255 256/256 253/253
f 257/257 258/258 259/259
f 259/259 260/260 257/257
f 261/261 262/262 263/263
f 263/263 264/264 261/261
f 265/265 266/266 267/267
f 267/267 268/268 265/265
f 269/269 270/270 271/271
f 271/271 272/272 269/269
f 273/273 274/274 275/275
f 275/275 276/276 273/273
f 277/277 278/278 279/279
f 279/279 280/280 277/277
f 281/281 282/282 283/283
f 283/283 284/284 281/281
f 285/285 286/286 287/287
f 287/287 288/288 285/285
f 289/289 290/290 291/291
f 291/291 292/292 289/289
f 293/293 294/294 295/295
f 295/295 296/296 293/293
f 297/297 298/298 299/299
f 299/299 300/300 297/297
f 301/301 302/302 303/303
f 303/303 304/304 301/301
f 305/305 306/306 307/307
f 307/307 308/308 305/305
f 309/309 310/310 311/311
f 311/311 312/312 309/309
f 313/313 314/314 315/315
f 315/315 316/316 313/313
f 317/317 318/318 319/319
f 319/319 320/320 317/317
f 321/321 322/322 323/323
f 323/323 324/324 321/321
f 325/325 326/326 327/327
f 327/327 328/328 325/325
f 329/329 330/330 331/331
f 331/331 332/332 329/329
f 333/333 334/334 335/335
f 335/335 336/336 333/333
f 337/337 338/338 339/339
f 339/339 340/340 337/337
f 341/341 342/342 343/343
f 343/343 344/344 341/341
f 345/345 346/346 347/347
f 347/347 348/348 345/345
f 349/349 350/350 351/351
f 351/351 352/352 349/349
f 353/353 354/354 355/355
f 355/355 356/356 353/353
f 357/357 358/358 359/359
f 359/359 360/360 357/357
f 361/361 362/362 363/363
f 363/363 364/364 361/361
f 365/365 366/366 367/367
f 367/367 368/368 365/365
f 369/369 370/370 371/371
f 371/371 372/372 369/369
f 373/373 374/374 375/375
f 375/375 376/376 373/373
f 377/377 378/378 379/379
f 379/379 380/380 377/377
f 381/381 382/382 383/383
f 383/383 384/384 381/381
f 385/385 386/386 387/387
f 387/387 388/388 385/385
f 389/389 390/390 391/391
f 391/391 392/392 389/389
f 393/393 394/394 395/395
f 395/395 396/396 393/393
f 397/397 398/398 399/399
f 399/399 400/400 397/397
f 401/401 402/402 403/403
f 403/403 404/404 401/401
f 405/405 389/389 406/406
f 407/407 408/408 390/390
f 409/409 395/395 410/410
f 411/411 412/412 394/394
f 413/413 414/414 415/415
f 416/416 417/417 418/418
f 419/419 401/401 420/420
f 421/421 422/422 404/404
f 389/389 405/405 407/407
f 407/407 390/390 389/389
f 390/390 408/408 423/423
f 423/423 391/391 390/390
f 392/392 424/424 406/406
f 406/406 389/389 392/392
f 410/410 395/395 394/394
f 394/394 412/412 410/410
f 413/413 415/415 417/417
f 417/417 416/416 413/413
f 425/425 402/402 401/401
f 401/401 419/419 425/425
f 421/421 404/404 403/403
f 403/403 426/426 421/421
f 420/420 401/401 404/404
f 404/404 422/422 420/420
f 427/427 428/428 414/414
f 414/414 413/413 427/427
f 416/416 418/418 429/429
f 429/429 430/430 416/416
f 431/431 396/396 395/395
f 395/395 409/409 431/431
f 411/411 394/394 393/393
f 393/393 432/432 411/411
f 416/416 430/430 427/427
f 427/427 413/413 416/416
f 433/433 434/434 435/435
f 435/435 436/436 433/433
f 437/437 438/438 439/439
f 439/439 440/440 437/437
f 441/441 442/442 443/443
f 443/443 444/444 441/441
f 445/445 446/446 447/447
f 447/447 448/448 445/445
f 449/449 450/450 451/451
f 451/451 452/452 449/449
f 453/453 437/437 454/454
f 455/455 456/456 438/438
f 457/457 443/443 458/458
f 459/459 460/460 442/442
f 461/461 462/462 463/463
f 464/464 465/465 466/466
f 467/467 449/449 468/468
f 469/469 470/470 452/452
f 437/437 453/453 455/455
f 455/455 438/438 437/437
f 438/438 456/456 471/471
f 471/471 439/439 438/438
f 440/440 472/472 454/454
f 454/454 437/437 440/440
f 458/458 443/443 442/442
f 442/442 460/460 458/458
f 461/461 463/463 465/465
f 465/465 464/464 461/461
f 473/473 450/450 449/449
f 449/449 467/467 473/473
f 469/469 452/452 451/451
f 451/451 474/474 469/469
f 468/468 449/449 452/452
f 452/452 470/470 468/468
f 475/475 476/476 462/462
f 462/462 461/461 475/475
f 464/464 466/466 477/477
f 477/477 478/478 464/464
f 479/479 444/444 443/443
f 443/443 457/457 479/479
f 459/459 442/442 441/441
f 441/441 480/480 459/459
f 464/464 478/478 475/475
f 475/475 461/461 464/464
f 481/481 482/482 483/483
f 483/483 484/484 481/481
f 485/485 486/486 487/487
f 487/487 488/488 485/485
f 489/489 490/490 491/491
f 491/491 492/492 489/489
f 493/493 494/494 495/495
f 495/495 496/496 493/493
f 497/497 498/498 499/499
f 499/499 500/500 497/497
f 501/501 485/485 502/502
f 503/503 504/504 486/486
f 505/505 491/491 506/506
f 507/507 508/508 490/490
f 509/509 510/510 511/511
f 512/512 513/513 514/514
f 515/515 497/497 516/516
f 517/517 518/518 500/500
f 485/485 501/501 503/503
f 503/503 486/486 485/485
f 486/486 504/504 519/519
f 519/519 487/487 486/486
f 488/488 520/520 502/502
f 502/502 485/485 488/488
f 506/506 491/491 490/490
f 490/490 508/508 506/506
f 509/509 511/511 513/513
f 513/513 512/512 509/509
f 521/521 498/498 497/497
f 497/497 515/515 521/521
f 517/517 500/500 499/499
f 499/499 522/522 517/517
f 516/516 497/497 500/500
f 500/500 518/518 516/516
f 523/523 524/524 510/510
f 510/510 509/509 523/523
f 512/512 514/514 525/525
f 525/525 526/526 512/512
f 527/527 492/492 491/491
f 491/491 505/505 527/527
f 507/507 490/490 489/489
f 489/489 528/528 507/507
f 512/512 526/526 523/523
f 523/523 509/509 512/512
f 529/529 530/530 531/531
f 531/531 532/532 529/529
f 533/533 534/534 535/535
f 535/535 536/536 533/533
f 537/537 538/538 539/539
f 539/539 540/540 537/537
f 541/541 542/542 543/543
f 543/543 544/544 541/541
f 545/545 546/546 547/547
f 547/547 548/548 545/545
f 549/549 533/533 550/550
f 551/551 552/552 534/534
f 553/553 539/539 554/554
f 555/555 556/556 538/538
f 557/557 558/558 547/547
f 559/559 546/546 560/560
f 561/561 545/545 562/562
f 563/563 564/564 548/548
f 533/533 549/549 551/551
f 551/551 534/534 533/533
f 534/534 552/552 565/565
f 565/565 535/535 534/534
f 536/536 566/566 550/550
f 550/550 533/533 536/536
f 554/554 539/539 538/538
f 538/538 556/556 554/554
f 557/557 547/547 546/546
f 546/546 559/559 557/557
f 560/560 546/546 545/545
f 545/545 561/561 560/560
f 563/563 548/548 547/547
f 547/547 558/558 563/563
f 562/562 545/545 548/548
f 548/548 564/564 562/562
f 567/567 530/530 529/529
f 529/529 568/568 567/567
f 569/569 544/544 543/543
f 543/543 570/570 569/569
f 571/571 540/540 539/539
f 539/539 553/553 571/571
f 555/555 538/538 537/537
f 537/537 572/572 555/555
f 573/573 574/574 575/575
f 575/575 576/576 573/573
f 577/577 578/578 579/579
f 579/579 580/580 577/577
f 581/581 582/582 583/583
f 583/583 584/584 581/581
f 585/585 586/586 587/587
f 587/587 588/588 585/585
f 589/589 590/590 591/591
f 591/591 592/592 589/589
f 593/593 594/594 595/595
f 595/595 596/596 593/593
f 597/597 581/581 598/598
f 599/599 600/600 582/582
f 601/601 587/587 602/602
f 603/603 604/604 586/586
f 605/605 606/606 607/607
f 608/608 609/609 610/610
f 611/611 593/593 612/612
f 613/613 614/614 596/596
f 581/581 597/597 599/599
f 599/599 582/582 581/581
f 582/582 600/600 615/615
f 615/615 583/583 582/582
f 584/584 616/616 598/598
f 598/598 581/581 584/584
f 602/602 587/587 586/586
f 586/586 604/604 602/602
f 605/605 607/607 609/609
f 609/609 608/608 605/605
f 617/617 594/594 593/593
f 593/593 611/611 617/617
f 613/613 596/596 595/595
f 595/595 618/618 613/613
f 612/612 593/593 596/596
f 596/596 614/614 612/612
f 619/619 620/620 606/606
f 606/606 605/605 619/619
f 608/608 610/610 621/621
f 621/621 622/622 608/608
f 623/623 588/588 587/587
f 587/587 601/601 623/623
f 603/603 586/586 585/585
f 585/585 624/624 603/603
f 608/608 622/622 619/619
f 619/619 605/605 608/608
f 625/625 626/626 627/627
f 627/627 628/628 625/625
f 629/629 630/630 631/631
f 631/631 632/632 629/629
f 633/633 634/634 635/635
f 635/635 636/636 633/633
f 637/637 638/638 639/639
f 639/639 640/640 637/637
f 641/641 642/642 643/643
f 643/643 644/644 641/641
f 645/645 646/646 647/647
f 648/648 649/649 650/650
f 651/651 635/635 652/652
f 653/653 654/654 634/634
f 655/655 656/656 643/643
f 657/657 642/642 658/658
f 659/659 641/641 660/660
f 661/661 662/662 644/644
f 646/646 645/645 648/648
f 648/648 650/650 646/646
f 630/630 663/663 664/664
f 664/664 631/631 630/630
f 632/632 665/665 666/666
f 666/666 629/629 632/632
f 652/652 635/635 634/634
f 634/634 654/654 652/652
f 655/655 643/643 642/642
f 642/642 657/657 655/655
f 658/658 642/642 641/641
f 641/641 659/659 658/658
f 661/661 644/644 643/643
f 643/643 656/656 661/661
f 660/660 641/641 644/644
f 644/644 662/662 660/660
f 645/645 647/647 667/667
f 667/667 668/668 645/645
f 669/669 670/670 649/649
f 649/649 648/648 669/669
f 671/671 636/636 635/635
f 635/635 651/651 671/671
f 653/653 634/634 633/633
f 633/633 672/672 653/653
f 669/669 648/648 645/645
f 645/645 668/668 669/669
f 673/673 674/674 675/675
f 675/675 676/676 673/673
f 677/677 678/678 679/679
f 679/679 680/680 677/677
f 681/681 682/682 683/683
f 683/683 684/684 681/681
f 685/685 686/686 687/687
f 687/687 688/688 685/685
f 689/689 690/690 691/691
f 691/691 692/692 689/689
f 693/693 694/694 695/695
f 696/696 697/697 698/698
f 699/699 700/700 679/679
f 701/701 680/680 702/702
f 703/703 704/704 705/705
f 706/706 707/707 708/708
f 709/709 710/710 684/684
f 711/711 681/681 712/712
f 694/694 693/693 696/696
f 696/696 698/698 694/694
f 678/678 713/713 699/699
f 699/699 679/679 678/678
f 680/680 701/701 714/714
f 714/714 677/677 680/680
f 679/679 700/700 702/702
f 702/702 680/680 679/679
f 703/703 705/705 707/707
f 707/707 706/706 703/703
f 715/715 690/690 689/689
f 689/689 716/716 715/715
f 717/717 692/692 691/691
f 691/691 718/718 717/717
f 684/684 710/710 712/712
f 712/712 681/681 684/684
f 693/693 695/695 704/704
f 704/704 703/703 693/693
f 706/706 708/708 697/697
f 697/697 696/696 706/706
f 709/709 684/684 683/683
f 683/683 719/719 709/709
f 720/720 682/682 681/681
f 681/681 711/711 720/720
f 706/706 696/696 693/693
f 693/693 703/703 706/706
f 721/721 722/722 723/723
f 723/723 724/724 721/721
f 725/725 726/726 727/727
f 727/727 728/728 725/725
f 729/729 730/730 731/731
f 731/731 732/732 729/729
f 733/733 734/734 735/735
f 735/735 736/736 733/733
f 737/737 738/738 739/739
f 739/739 740/740 737/737
f 741/741 725/725 742/742
f 743/743 744/744 726/726
f 745/745 731/731 746/746
f 747/747 748/748 730/730
f 749/749 750/750 751/751
f 752/752 753/753 754/754
f 755/755 756/756 732/732
f 757/757 729/729 758/758
f 725/725 741/741 743/743
f 743/743 726/726 725/725
f 726/726 744/744 759/759
f 759/759 727/727 726/726
f 728/728 760/760 742/742
f 742/742 725/725 728/728
f 746/746 731/731 730/730
f 730/730 748/748 746/746
f 749/749 751/751 753/753
f 753/753 752/752 749/749
f 761/761 738/738 737/737
f 737/737 762/762 761/761
f 763/763 740/740 739/739
f 739/739 764/764 763/763
f 732/732 756/756 758/758
f 758/758 729/729 732/732
f 765/765 766/766 750/750
f 750/750 749/749 765/765
f 752/752 754/754 767/767
f 767/767 768/768 752/752
f 755/755 732/732 731/731
f 731/731 745/745 755/755
f 747/747 730/730 729/729
f 729/729 757/757 747/747
f 752/752 768/768 765/765
f 765/765 749/749 752/752
f 769/769 770/770 771/771
f 771/771 772/772 769/769
f 773/773 774/774 775/775
f 775/775 776/776 773/773
f 777/777 778/778 779/779
f 779/779 780/780 777/777
f 781/781 782/782 783/783
f 783/783 784/784 781/781
f 785/785 786/786 787/787
f 787/787 788/788 785/785
f 789/789 773/773 790/790
f 791/791 792/792 774/774
f 793/793 779/779 794/794
f 795/795 796/796 778/778
f 797/797 798/798 799/799
f 800/800 801/801 802/802
f 803/803 804/804 780/780
f 805/805 777/777 806/806
f 773/773 789/789 791/791
f 791/791 774/774 773/773
f 774/774 792/792 807/807
f 807/807 775/775 774/774
f 776/776 808/808 790/790
f 790/790 773/773 776/776
f 794/794 779/779 778/778
f 778/778 796/796 794/794
f 797/797 799/799 801/801
f 801/801 800/800 797/797
f 809/809 786/786 785/785
f 785/785 810/810 809/809
f 811/811 788/788 787/787
f 787/787 812/812 811/811
f 780/780 804/804 806/806
f 806/806 777/777 780/780
f 813/813 814/814 798/798
f 798/798 797/797 813/813
f 800/800 802/802 815/815
f 815/815 816/816 800/800
f 803/803 780/780 779/779
f 779/779 793/793 803/803
f 795/795 778/778 777/777
f 777/777 805/805 795/795
f 800/800 816/816 813/813
f 813/813 797/797 800/800

